SplineFontDB: 3.0
FontName: LinBiolinumOKb
FullName: Linux Biolinum O Keyboard
FamilyName: Linux Biolinum O Kb
Weight: Regular
Copyright: Linux Libertine by Philipp H. Poll,\nOpen Font under Terms of following Free Software Licenses:\nGPL (General Public License) with font-exception and OFL (Open Font License).\nCreated with FontForge (http://fontforge.sf.net)\nSept 2003, 2004, 2005, 2006, 2007, 2008, 2009
UComments: "2003-08-29: Created.+AAoA-2004-07-25: v(1.0) release candidate+AAoA-2005-12-28: v(1.1.0) stable+AAoA-2006-01-01: v(2.0.0) stable+AAoA-2006-09-05: v(2.2.0) stable+AAoA-2006-12-04: v(2.3.0) stable+AAoA-2007-03-11: v(2.4.0) stable+AAoA-2007-12-00: v(2.7.0) stable+AAoA-2008-06-00: v(2.8.14) stable+AAoA" 
Version: 0.4.9
ItalicAngle: 0
UnderlinePosition: -98
UnderlineWidth: 40
Ascent: 754
Descent: 246
LayerCount: 3
Layer: 0 0 "Back"  0
Layer: 1 0 "Fore"  0
Layer: 2 0 "Frame"  0
NeedsXUIDChange: 1
XUID: [1021 993 1524925707 2876416]
FSType: 0
OS2Version: 0
OS2_WeightWidthSlopeOnly: 0
OS2_UseTypoMetrics: 0
CreationTime: 1156455862
ModificationTime: 1257672818
PfmFamily: 17
TTFWeight: 700
TTFWidth: 5
LineGap: 0
VLineGap: 0
OS2TypoAscent: 894
OS2TypoAOffset: 0
OS2TypoDescent: -246
OS2TypoDOffset: 0
OS2TypoLinegap: 0
OS2WinAscent: 894
OS2WinAOffset: 0
OS2WinDescent: 246
OS2WinDOffset: 0
HheadAscent: 894
HheadAOffset: 0
HheadDescent: -246
HheadDOffset: 0
OS2FamilyClass: 261
OS2Vendor: 'PfEd'
Lookup: 3 0 0 "'aalt' Alle Alternativen zeigen"  {"'aalt' Alle Alternativen zeigen 1"  } ['aalt' ('DFLT' <'dflt' > 'cyrl' <'dflt' > 'grek' <'dflt' > 'latn' <'AZE ' 'CRT ' 'DEU ' 'MOL ' 'ROM ' 'TRK ' 'dflt' > ) ]
Lookup: 1 0 0 "'locl' Localized Forms Romaenisch"  {"'locl' Localized Forms Romaenisch 1"  } ['locl' ('latn' <'MOL ' 'ROM ' > ) ]
Lookup: 1 0 0 "'smcp' Gemeine nach Kapitaelchen i > i.sc"  {"'smcp' Gemeine nach Kapitaelchen i > i.sc 1"  } ['smcp' ('DFLT' <'dflt' > 'cyrl' <'dflt' > 'grek' <'dflt' > 'latn' <'DEU ' 'MOL ' 'ROM ' 'dflt' > ) ]

StartChar: exclam
Encoding: 33 33 0
Width: 1100
VWidth: 999
Flags: HW
HStem: 73 92<516 574> 559 15G<534 554>
VStem: 498 91<411 562> 498 93<88 147>
LayerCount: 3
Fore
SplineSet
1000 -84 m 2
 1000 -174 971 -212 881 -212 c 2
 249 -212 l 2
 159 -212 120 -174 120 -84 c 2
 120 625 l 2
 120 708 168 754 249 754 c 2
 851 754 l 2
 941 754 1000 715 1000 625 c 2
 1000 -84 l 2
249 718 m 2
 189 718 156 685 156 625 c 2
 156 -53 l 2
 156 -113 189 -136 249 -136 c 2
 821 -136 l 2
 881 -136 904 -113 904 -53 c 2
 904 625 l 2
 904 685 881 718 821 718 c 2
 249 718 l 2
493 80 m 1
 493 83 l 1
 502 105 514 118 539 128 c 1
 541 128 l 1
 565 119 578 107 587 83 c 1
 587 80 l 1
 577 53 565 41 541 35 c 1
 539 35 l 1
 512 41 501 53 493 80 c 1
542 534 m 0
 564 534 588 517 588 480 c 0
 588 431 575 399 567 335 c 0
 556 254 555 209 554 198 c 0
 553 190 550 183 542 183 c 0
 533 183 531 189 531 193 c 0
 529 209 525 276 518 335 c 0
 510 401 497 427 497 480 c 0
 497 520 524 534 542 534 c 0
EndSplineSet
Colour: ff80cc
EndChar

StartChar: quotedbl
Encoding: 34 34 1
Width: 1100
VWidth: 999
Flags: HW
HStem: 449 167<475 499 486 499> 450 167<570 594 580 594>
LayerCount: 3
Fore
SplineSet
1000 -84 m 2
 1000 -174 971 -212 881 -212 c 2
 249 -212 l 2
 159 -212 120 -174 120 -84 c 2
 120 625 l 2
 120 708 168 754 249 754 c 2
 851 754 l 2
 941 754 1000 715 1000 625 c 2
 1000 -84 l 2
249 718 m 2
 189 718 156 685 156 625 c 2
 156 -53 l 2
 156 -113 189 -136 249 -136 c 2
 821 -136 l 2
 881 -136 904 -113 904 -53 c 2
 904 625 l 2
 904 685 881 718 821 718 c 2
 249 718 l 2
468 399 m 1
 457 402 l 1
 457 402 433 522 433 526 c 0
 433 544 449 567 482 567 c 0
 513 567 515 553 515 539 c 0
 515 528 488 404 488 404 c 1
 468 399 l 1
562 400 m 1
 551 403 l 1
 551 403 527 523 527 527 c 0
 527 545 543 568 576 568 c 0
 607 568 609 554 609 540 c 0
 609 529 582 405 582 405 c 1
 562 400 l 1
EndSplineSet
Colour: ff00ff
EndChar

StartChar: numbersign
Encoding: 35 35 2
Width: 1100
Flags: HW
HStem: 208 42<386 446 506 554 611 678> 324 42<405 465 524 572 630 696>
DStem2: 427 82 480 82 0.157407 0.987534<8.30078 127.519 178.504 246.489 297.475 416.331> 534 82 584 82 0.155692 0.987806<7.92518 127.52 178.072 246.491 297.043 416.276>
LayerCount: 3
Fore
SplineSet
1000 -84 m 2
 1000 -174 971 -212 881 -212 c 2
 249 -212 l 2
 159 -212 120 -174 120 -84 c 2
 120 625 l 2
 120 708 168 754 249 754 c 2
 851 754 l 2
 941 754 1000 715 1000 625 c 2
 1000 -84 l 2
249 718 m 2
 189 718 156 685 156 625 c 2
 156 -53 l 2
 156 -113 189 -136 249 -136 c 2
 821 -136 l 2
 881 -136 904 -113 904 -53 c 2
 904 625 l 2
 904 685 881 718 821 718 c 2
 249 718 l 2
623 304 m 1
 611 230 l 1
 684 230 l 1
 678 188 l 1
 605 188 l 1
 598 146 591 102 584 62 c 1
 534 62 l 1
 554 188 l 1
 500 188 l 1
 493 146 487 102 480 62 c 1
 427 62 l 1
 446 188 l 1
 380 188 l 1
 386 230 l 1
 453 230 l 1
 458 256 462 278 465 304 c 1
 398 304 l 1
 405 347 l 1
 472 347 l 1
 479 388 486 432 492 472 c 1
 546 472 l 1
 524 347 l 1
 578 347 l 1
 585 388 591 432 598 472 c 1
 649 472 l 1
 630 347 l 1
 702 347 l 1
 696 304 l 1
 623 304 l 1
560 230 m 1
 572 304 l 1
 519 304 l 1
 515 278 511 256 506 230 c 1
 560 230 l 1
EndSplineSet
EndChar

StartChar: dollar
Encoding: 36 36 3
Width: 1100
VWidth: 999
Flags: HW
HStem: 61 35<464 592> 464 33<494 611>
VStem: 397 78<358 437> 530 33<8 538> 615 84<134 220>
LayerCount: 3
Back
SplineSet
92 12 m 0
 76 12 79 1 58 1 c 1x6e
 58 38 50 90 42 146 c 1
 68 149 l 1
 85 83 136 23 214 23 c 0
 251 23 328 42 328 127 c 0xb6
 328 229 237 247 203 262 c 0
 144 288 46 333 46 434 c 0
 46 528 147 572 215 572 c 0
 272 572 307 564 348 564 c 1
 351 519 360 470 368 421 c 1
 342 417 l 1xad
 337 435 l 2
 315 507 281 542 215 542 c 0
 161 542 110 504 110 438 c 0
 110 379 188 344 225 330 c 0
 279 310 400 262 400 156 c 0
 400 122 391 -10 214 -10 c 0xae
 149 -10 113 12 92 12 c 0
46.875 578.125 m 25
 347.168 578.125 l 25
0 572.012 m 1
 438.965 572.012 l 1
 438.965 0 l 1
 0 0 l 1
 0 572.012 l 1
EndSplineSet
Fore
SplineSet
562 233 m 1
 562 85.9 l 1
 593.5 93 615 113.8 615 153 c 0
 615 202.4 593.2 219.2 562 233 c 1
530 315.2 m 1
 530 450 l 1
 495.8 445.3 475 424.1 475 389 c 0
 475 348.9 503.8 327.6 530 315.2 c 1
530 83.1 m 1
 530 246 l 1
 472.2 269.4 397 304.1 397 372 c 0
 397 440.3 466.5 476.3 530 482.9 c 1
 530 525 l 1
 562 525 l 1
 562 483.8 l 1
 634.8 481.3 672 455 672 455 c 1
 674 453 l 1
 668 433 663 399 661 375 c 1
 654 375 l 1
 638.2 410.1 602.3 442.2 562 449.5 c 1
 562 302.5 l 1
 617.2 282.3 699 249.9 699 177 c 0
 699 109.3 635.6 61.9 562 50.6 c 1
 562 -5 l 1
 530 -5 l 1
 530 48 l 2
 529.3 48 528.7 48 528 48 c 0
 454 48 394 78 394 78 c 1
 393 80 l 1
 398 99 404 135 406 159 c 1
 412 159 l 1
 430.4 120.2 486.5 85.2 530 83.1 c 1
1000 -84 m 2
 1000 -174 971 -212 881 -212 c 2
 249 -212 l 2
 159 -212 120 -174 120 -84 c 2
 120 625 l 2
 120 708 168 754 249 754 c 2
 851 754 l 2
 941 754 1000 715 1000 625 c 2
 1000 -84 l 2
249 718 m 2
 189 718 156 685 156 625 c 2
 156 -53 l 2
 156 -113 189 -136 249 -136 c 2
 821 -136 l 2
 881 -136 904 -113 904 -53 c 2
 904 625 l 2
 904 685 881 718 821 718 c 2
 249 718 l 2
EndSplineSet
EndChar

StartChar: percent
Encoding: 37 37 4
Width: 1100
VWidth: 999
Flags: HW
HStem: 54 25<645 690> 229 27<670 719> 292 25<403 446> 424 34<515 647> 466 27<427 479>
VStem: 344 52<321 431> 484 32<360 440> 585 51<85 190> 726 32<120 225>
DStem2: 376 66 417 57 0.588938 0.808178<16.5784 465.337 488.288 531.946>
LayerCount: 3
Back
SplineSet
357.494 492.437 m 4
 360.602 492.437 361.489 492.881 362.821 492.881 c 4
 390.786 491.548 465.804 496.875 506.641 541.265 c 5
 524.399 518.628 l 5
 479.121 468.911 424.078 466.691 364.597 461.809 c 6
 357.494 461.365 l 6
 320.207 461.365 264.721 487.998 248.74 499.985 c 5
 263.39 521.733 l 5
 263.39 521.733 309.11 492.437 357.494 492.437 c 4
460.921 37.0049 m 4
 474.238 31.6777 487.999 35.2285 503.979 45.8828 c 4
 523.511 57.8672 534.609 80.5059 543.931 106.252 c 4
 553.252 130.666 558.135 156.411 555.913 179.05 c 4
 553.696 199.469 545.703 213.674 528.394 220.775 c 4
 527.949 221.22 l 4
 510.64 227.878 493.77 219.443 481.34 208.347 c 4
 464.028 193.254 454.263 175.942 445.385 153.748 c 4
 434.288 126.67 429.849 100.925 433.844 76.9551 c 4
 437.395 56.5352 445.829 43.2188 460.921 37.0049 c 4
579.438 200.801 m 4
 589.204 172.836 582.993 134.66 570.117 98.2617 c 4
 557.246 64.082 535.493 34.3408 510.64 20.1367 c 4
 481.784 3.71289 454.263 6.37598 433.844 16.1416 c 4
 412.537 26.7949 402.327 40.1123 392.118 68.9648 c 4
 383.24 93.8223 382.796 129.777 397.001 163.514 c 4
 410.762 198.137 432.068 224.326 461.809 240.751 c 4
 485.779 253.18 511.968 256.287 540.376 245.189 c 4
 566.567 234.536 570.117 228.766 579.438 200.801 c 4
546.592 542.153 m 5
 166.621 12.1465 l 5
 126.227 12.1465 l 5
 507.085 542.153 l 5
 546.592 542.153 l 5
168.396 323.759 m 4
 181.713 317.988 195.474 321.982 211.454 332.192 c 4
 230.985 344.621 242.083 366.816 251.848 393.006 c 4
 260.726 416.977 265.608 443.166 263.39 465.805 c 4
 261.17 486.223 253.18 500.43 235.868 507.529 c 4
 235.424 507.529 l 4
 218.112 514.189 201.244 505.757 188.815 495.103 c 4
 171.504 479.564 161.738 462.697 152.86 440.059 c 4
 141.763 412.98 137.324 387.68 141.318 363.266 c 4
 144.87 343.29 153.305 329.529 168.396 323.759 c 4
286.916 487.111 m 4
 296.682 459.146 290.467 420.971 277.594 384.572 c 4
 264.721 350.393 243.414 321.096 218.112 306.447 c 4
 189.259 290.023 161.738 293.13 141.763 302.451 c 4
 120.013 313.105 109.803 326.865 99.5928 355.275 c 4
 90.7158 380.133 90.7158 416.088 104.476 450.268 c 4
 118.236 484.892 139.544 510.64 169.284 527.061 c 4
 193.255 539.937 219.443 543.042 247.853 531.943 c 4
 274.043 520.845 277.594 515.078 286.916 487.111 c 4
EndSplineSet
Fore
SplineSet
1000 -84 m 2
 1000 -174 971 -212 881 -212 c 2
 249 -212 l 2
 159 -212 120 -174 120 -84 c 2
 120 625 l 2
 120 708 168 754 249 754 c 2
 851 754 l 2
 941 754 1000 715 1000 625 c 2
 1000 -84 l 2
249 718 m 2
 189 718 156 685 156 625 c 2
 156 -53 l 2
 156 -113 189 -136 249 -136 c 2
 821 -136 l 2
 881 -136 904 -113 904 -53 c 2
 904 625 l 2
 904 685 881 718 821 718 c 2
 249 718 l 2
396 343 m 0
 396 314 407 296 420 296 c 0
 455 296 484 360 484 404 c 0
 484 440 468 446 455 446 c 0
 418 446 396 386 396 343 c 0
577 438 m 0
 609 438 659 442 690 476 c 1
 725 460 l 1
 417 37 l 1
 376 46 l 1
 651 422 l 1
 621 410 592 404 570 404 c 0
 552 404 528 412 514 420 c 1
 516 414 516 410 516 404 c 0
 516 341 477 272 412 272 c 0
 366 272 344 303 344 353 c 0
 344 417 385 472 447 472 c 0
 468 472 489 466 497 457 c 1
 537 438 564 438 577 438 c 0
585 117 m 0
 585 177 621 236 688 236 c 0
 724 236 757 222 757 168 c 0
 757 94 717 34 657 34 c 0
 611 34 585 68 585 117 c 0
636 106 m 0
 636 77 648 59 662 59 c 0
 701 59 726 125 726 166 c 0
 726 206 707 209 696 209 c 0
 664 209 636 149 636 106 c 0
EndSplineSet
EndChar

StartChar: parenleft
Encoding: 40 40 5
Width: 1100
VWidth: 999
Flags: HW
VStem: 437 91<152 353>
LayerCount: 3
Back
SplineSet
101.562 -0.488281 m 4
 64.4531 81.0547 43.9453 164.551 43.9453 251.953 c 4
 43.9453 342.773 62.9883 424.805 102.051 503.418 c 4
 124.023 548.828 168.945 632.324 256.348 707.031 c 5
 273.926 689.453 l 5
 203.613 610.352 173.828 533.203 160.156 491.699 c 4
 134.277 416.504 121.582 337.891 121.582 251.953 c 4
 121.582 166.504 133.789 85.9375 160.156 10.7422 c 4
 174.316 -31.7383 203.613 -108.398 273.926 -187.012 c 5
 256.348 -203.613 l 5
 188.477 -145.02 138.184 -79.5898 101.562 -0.488281 c 4
EndSplineSet
Fore
SplineSet
1000 -84 m 2
 1000 -174 971 -212 881 -212 c 2
 249 -212 l 2
 159 -212 120 -174 120 -84 c 2
 120 625 l 2
 120 708 168 754 249 754 c 2
 851 754 l 2
 941 754 1000 715 1000 625 c 2
 1000 -84 l 2
249 718 m 2
 189 718 156 685 156 625 c 2
 156 -53 l 2
 156 -113 189 -136 249 -136 c 2
 821 -136 l 2
 881 -136 904 -113 904 -53 c 2
 904 625 l 2
 904 685 881 718 821 718 c 2
 249 718 l 2
437 252 m 0
 437 379 521 517 610 593 c 1
 634 572 l 1
 610 545 528 449 528 252 c 0
 528 55 609 -41 634 -70 c 1
 610 -90 l 1
 467 33 437 186 437 252 c 0
EndSplineSet
Substitution2: "'c2sc' Versale nach Kapitaelchen 1" parenleft.sc
AlternateSubs2: "'aalt' Alle Alternativen zeigen 1" parenleft.sc
Substitution2: "'sinf' Wissenschaftliche Indices 1" parenleft.inferior
Substitution2: "'sups' Hochgestellte 1" parenleft.superior
Substitution2: "'case' Versalformen 1" parenleft.sc
EndChar

StartChar: parenright
Encoding: 41 41 6
Width: 1100
VWidth: 999
Flags: HW
VStem: 572 91<152 353>
LayerCount: 3
Fore
SplineSet
1000 -84 m 2
 1000 -174 971 -212 881 -212 c 2
 249 -212 l 2
 159 -212 120 -174 120 -84 c 2
 120 625 l 2
 120 708 168 754 249 754 c 2
 851 754 l 2
 941 754 1000 715 1000 625 c 2
 1000 -84 l 2
249 718 m 2
 189 718 156 685 156 625 c 2
 156 -53 l 2
 156 -113 189 -136 249 -136 c 2
 821 -136 l 2
 881 -136 904 -113 904 -53 c 2
 904 625 l 2
 904 685 881 718 821 718 c 2
 249 718 l 2
663 252 m 0
 663 186 633 33 490 -90 c 1
 466 -70 l 1
 491 -41 572 55 572 252 c 0
 572 449 490 545 466 572 c 1
 490 593 l 1
 579 517 663 379 663 252 c 0
EndSplineSet
Substitution2: "'c2sc' Versale nach Kapitaelchen 1" parenright.sc
AlternateSubs2: "'aalt' Alle Alternativen zeigen 1" parenright.sc
Substitution2: "'sinf' Wissenschaftliche Indices 1" parenright.inferior
Substitution2: "'sups' Hochgestellte 1" parenright.superior
Substitution2: "'case' Versalformen 1" parenright.sc
Colour: ff00ff
EndChar

StartChar: asterisk
Encoding: 42 42 7
Width: 1100
VWidth: 999
Flags: HMW
HStem: 574 52<482 531 619 675>
VStem: 543 58<613 681>
LayerCount: 3
Back
SplineSet
155.273 557.129 m 4
 123.535 558.105 102.051 560.547 92.2852 566.406 c 4
 82.0312 572.266 76.6602 580.078 75.1953 588.867 c 4
 74.707 591.309 74.707 592.773 74.707 594.727 c 4
 74.707 600.586 76.1719 605.957 79.5898 610.84 c 4
 84.9609 619.141 91.7969 622.07 99.1211 623.535 c 4
 102.539 624.512 104.98 624.512 107.91 624.512 c 4
 114.258 624.512 119.629 623.535 125 621.582 c 4
 135.254 618.164 149.902 607.91 167.969 594.238 c 4
 180.176 584.473 192.383 578.125 204.102 573.242 c 5
 202.637 587.891 199.219 601.562 194.824 613.77 c 4
 186.035 637.207 181.641 653.32 181.152 663.086 c 4
 181.152 663.086 181.152 664.062 181.152 664.551 c 4
 181.152 673.828 183.105 681.641 187.012 688.477 c 4
 191.406 696.289 197.266 700.684 205.078 703.125 c 4
 208.496 704.102 210.938 704.59 213.867 704.102 c 4
 219.238 704.102 223.145 703.125 227.539 700.684 c 4
 236.816 695.312 241.699 687.012 243.652 677.734 c 4
 244.141 674.805 244.141 672.363 244.141 669.434 c 4
 244.141 656.25 239.746 637.207 233.398 614.746 c 4
 229.004 598.633 225.586 584.473 224.609 572.754 c 5
 238.281 578.613 250 585.449 260.742 593.75 c 4
 280.273 608.887 294.434 618.164 303.223 621.094 c 4
 309.57 623.535 314.941 624.023 320.312 624.023 c 4
 323.73 624.023 326.172 624.023 329.102 623.047 c 4
 338.379 621.582 344.238 617.188 348.633 610.352 c 4
 352.051 604.98 353.516 600.098 353.516 594.238 c 4
 353.516 591.797 353.516 590.332 353.027 588.379 c 4
 351.074 578.613 345.215 571.289 335.938 565.918 c 4
 324.707 559.57 300.781 557.617 272.949 557.129 c 4
 256.348 556.641 242.188 555.176 230.469 553.223 c 5
 240.723 541.992 251.465 533.203 262.207 526.367 c 4
 282.715 513.184 296.387 502.93 302.246 495.605 c 4
 308.594 487.793 312.012 479.98 312.988 471.68 c 4
 313.477 469.727 313.477 468.262 313.477 466.797 c 4
 313.477 459.473 311.523 454.102 307.617 449.219 c 4
 302.734 442.383 296.387 438.477 288.574 437.5 c 4
 286.621 437.012 285.645 437.012 284.18 437.012 c 4
 274.902 437.012 267.578 440.918 261.719 446.289 c 4
 251.953 454.59 241.699 475.586 231.934 501.953 c 4
 225.586 518.555 219.727 531.25 213.379 541.504 c 5
 207.031 530.273 201.172 517.578 195.312 501.953 c 4
 184.082 472.656 174.316 453.125 165.527 446.289 c 4
 158.203 439.941 150.879 437.012 143.066 437.012 c 4
 141.113 437.012 140.137 437.012 138.672 437.5 c 4
 129.395 438.965 124.023 442.871 119.141 449.219 c 4
 115.234 455.078 113.281 460.449 113.77 466.797 c 4
 113.77 468.75 113.77 470.215 113.77 471.68 c 4
 115.234 480.469 119.141 488.281 124.512 495.605 c 4
 131.348 503.906 146.484 514.648 165.039 526.367 c 4
 178.711 534.668 189.453 543.945 198.242 553.711 c 5
 185.059 556.152 170.41 557.129 155.273 557.129 c 4
EndSplineSet
Fore
SplineSet
1000 -84 m 2
 1000 -174 971 -212 881 -212 c 2
 249 -212 l 2
 159 -212 120 -174 120 -84 c 2
 120 625 l 2
 120 708 168 754 249 754 c 2
 851 754 l 2
 941 754 1000 715 1000 625 c 2
 1000 -84 l 2
249 718 m 2
 189 718 156 685 156 625 c 2
 156 -53 l 2
 156 -113 189 -136 249 -136 c 2
 821 -136 l 2
 881 -136 904 -113 904 -53 c 2
 904 625 l 2
 904 685 881 718 821 718 c 2
 249 718 l 2
521 441 m 1
 512 442 502 445.9 491 444 c 0
 457 438.1 430 438 430 472 c 0
 430 483 437 496 455 496 c 0
 480 496 493 471 526 457 c 1
 523 487 503 506 503 525 c 0
 503 541 518 555 532 555 c 0
 545 555 562 546 562 528 c 0
 562 508 545 480 543 457 c 1
 577 471 585 498 610 498 c 0
 633 498 639 480 639 472 c 0
 639 450 614 442 587 442 c 0
 573 442 560 442 547 440 c 1
 572 413 611 414 611 376 c 0
 611 363 597 354 587 354 c 0
 550 354 552 401 533 430 c 1
 515 396 525 354 481 354 c 0
 468 354 459 364 459 375 c 0
 459 416 497 412 521 441 c 1
EndSplineSet
EndChar

StartChar: plus
Encoding: 43 43 8
Width: 1100
Flags: HW
HStem: -212 76<179.2 885.174> 204 56<385 513 569 697> 718 36<188.821 875.472>
VStem: 120 36<-107.953 686.051> 513 56<82 204 260 383> 904 96<-118.923 694.8>
LayerCount: 3
Back
SplineSet
-58 257 m 29
 565 257 l 29
0 572 m 5
 527 572 l 5
 527 0 l 5
 0 0 l 5
 0 572 l 5
EndSplineSet
Fore
SplineSet
1000 -84 m 2
 1000 -174 971 -212 881 -212 c 2
 249 -212 l 2
 159 -212 120 -174 120 -84 c 2
 120 625 l 2
 120 708 168 754 249 754 c 2
 851 754 l 2
 941 754 1000 715 1000 625 c 2
 1000 -84 l 2
249 718 m 2
 189 718 156 685 156 625 c 2
 156 -53 l 2
 156 -113 189 -136 249 -136 c 2
 821 -136 l 2
 881 -136 904 -113 904 -53 c 2
 904 625 l 2
 904 685 881 718 821 718 c 2
 249 718 l 2
569 260 m 1
 697 260 l 1
 697 204 l 1
 569 204 l 1
 569 82 l 1
 513 82 l 1
 513 204 l 1
 385 204 l 1
 385 260 l 1
 513 260 l 1
 513 383 l 1
 569 383 l 1
 569 260 l 1
EndSplineSet
AlternateSubs2: "'aalt' Alle Alternativen zeigen 1" plus.superior plus.inferior uni2098
Substitution2: "'sinf' Wissenschaftliche Indices 1" plus.inferior
Substitution2: "'sups' Hochgestellte 1" plus.superior
EndChar

StartChar: slash
Encoding: 47 47 9
Width: 1100
VWidth: 999
Flags: HW
HStem: 543 15G<595 645>
VStem: 422 223
DStem2: 422 29 467 29 0.318647 0.947874<14.3391 557.828>
LayerCount: 3
Back
SplineSet
267.97 661.299 m 1
 50.0186 17.6553 l 1
 14.5068 17.6553 l 1
 232.458 661.299 l 1
 267.97 661.299 l 1
EndSplineSet
Fore
SplineSet
1000 -84 m 2
 1000 -174 971 -212 881 -212 c 2
 249 -212 l 2
 159 -212 120 -174 120 -84 c 2
 120 625 l 2
 120 708 168 754 249 754 c 2
 851 754 l 2
 941 754 1000 715 1000 625 c 2
 1000 -84 l 2
249 718 m 2
 189 718 156 685 156 625 c 2
 156 -53 l 2
 156 -113 189 -136 249 -136 c 2
 821 -136 l 2
 881 -136 904 -113 904 -53 c 2
 904 625 l 2
 904 685 881 718 821 718 c 2
 249 718 l 2
645 558 m 1
 467 29 l 1
 422 29 l 1
 600 558 l 1
 645 558 l 1
EndSplineSet
Ligature2: "'frac' Brueche 1" uni2215
AlternateSubs2: "'aalt' Alle Alternativen zeigen 1" uni2215
EndChar

StartChar: one
Encoding: 49 49 10
Width: 1100
VWidth: 999
Flags: HW
HStem: 70 16G<201 252 252 303> 403 16G<125 148> 490 15G<277 299>
VStem: 209 86<74 422>
LayerCount: 3
Back
SplineSet
46.875 578.125 m 25
 347.168 578.125 l 25
0 572.012 m 1
 438.965 572.012 l 1
 438.965 0 l 1
 0 0 l 1
 0 572.012 l 1
EndSplineSet
Fore
SplineSet
1000 -84 m 2
 1000 -174 971 -212 881 -212 c 2
 249 -212 l 2
 159 -212 120 -174 120 -84 c 2
 120 625 l 2
 120 708 168 754 249 754 c 2
 851 754 l 2
 941 754 1000 715 1000 625 c 2
 1000 -84 l 2
249 718 m 2
 189 718 156 685 156 625 c 2
 156 -53 l 2
 156 -113 189 -136 249 -136 c 2
 821 -136 l 2
 881 -136 904 -113 904 -53 c 2
 904 625 l 2
 904 685 881 718 821 718 c 2
 249 718 l 2
585 176 m 2
 585 120 587 85 593 42 c 1
 592 40 l 1
 592 40 568 42 542 42 c 0
 516 42 492 40 492 40 c 1
 491 42 l 1
 498 82 499 121 499 176 c 2
 499 349 l 2
 499 374 498 392 486 392 c 0
 472 392 455 388 421 373 c 1
 410 400 l 1
 476 431 547 450 588 475 c 1
 591 475 593 475 593 472 c 0
 591 462 585 433 585 356 c 2
 585 176 l 2
EndSplineSet
AlternateSubs2: "'aalt' Alle Alternativen zeigen 1" one.oldstyle one.superior one.fitted
Substitution2: "'sups' Hochgestellte 1" one.superior
Substitution2: "'sinf' Wissenschaftliche Indices 1" one.inferior
Substitution2: "'pnum' Proportionalziffern 1" one.fitted
Substitution2: "'onum' Minuskelziffern 1" one.taboldstyle
EndChar

StartChar: two
Encoding: 50 50 11
Width: 1100
VWidth: 487
Flags: HW
HStem: 72 52<203 397> 472 34<186 291>
VStem: 120 58<392 448> 310 92<336 452>
DStem2: 198 217 259 204 0.718358 0.695673<-55.7301 156.444>
LayerCount: 3
Back
SplineSet
46.875 578.125 m 25
 347.168 578.125 l 25
0 572.012 m 1
 438.965 572.012 l 5
 438.965 0 l 1
 0 0 l 1
 0 572.012 l 1
EndSplineSet
Fore
SplineSet
1000 -84 m 2
 1000 -174 971 -212 881 -212 c 2
 249 -212 l 2
 159 -212 120 -174 120 -84 c 2
 120 625 l 2
 120 708 168 754 249 754 c 2
 851 754 l 2
 941 754 1000 715 1000 625 c 2
 1000 -84 l 2
249 718 m 2
 189 718 156 685 156 625 c 2
 156 -53 l 2
 156 -113 189 -136 249 -136 c 2
 821 -136 l 2
 881 -136 904 -113 904 -53 c 2
 904 625 l 2
 904 685 881 718 821 718 c 2
 249 718 l 2
537 44 m 0
 483 44 443 42 383 41 c 1
 382 44 l 1
 382 86 388 118 458 189 c 2
 510 241 l 2
 552 284 570 320 570 366 c 0
 570 434 533 444 507 444 c 0
 456 444 438 427 438 409 c 0
 438 403 440 397 442 392 c 0
 444 386 445 381 445 375 c 0
 445 356 426 348 413 348 c 0
 395 348 380 361 380 376 c 0
 380 419 433 477 512 477 c 0
 598 477 661 446 661 369 c 0
 661 315 630 284 590 245 c 2
 519 176 l 2
 515 172 463 130 463 96 c 1
 529 96 l 2
 600 96 620 99 661 102 c 1
 659 93 657 84 657 74 c 0
 657 66 659 50 661 41 c 1
 608 43 591 44 537 44 c 0
EndSplineSet
AlternateSubs2: "'aalt' Alle Alternativen zeigen 1" two.oldstyle two.superior two.fitted
Substitution2: "'sups' Hochgestellte 1" two.superior
Substitution2: "'sinf' Wissenschaftliche Indices 1" two.inferior
Substitution2: "'pnum' Proportionalziffern 1" two.fitted
Substitution2: "'onum' Minuskelziffern 1" two.taboldstyle
EndChar

StartChar: three
Encoding: 51 51 12
Width: 1100
VWidth: 487
Flags: HW
HStem: 64 34<184 278> 288 29<209 233> 471 34<194 278>
VStem: 128 55<392 454> 286 83<379 463> 311 90<148 270>
LayerCount: 3
Back
SplineSet
46.875 578.125 m 29
 347.168 578.125 l 29
0 572.012 m 1
 438.965 572.012 l 1
 438.965 0 l 1
 0 0 l 1
 0 572.012 l 1
EndSplineSet
Fore
SplineSet
1000 -84 m 2
 1000 -174 971 -212 881 -212 c 2
 249 -212 l 2
 159 -212 120 -174 120 -84 c 2
 120 625 l 2
 120 708 168 754 249 754 c 2
 851 754 l 2
 941 754 1000 715 1000 625 c 2
 1000 -84 l 2
249 718 m 2
 189 718 156 685 156 625 c 2
 156 -53 l 2
 156 -113 189 -136 249 -136 c 2
 821 -136 l 2
 881 -136 904 -113 904 -53 c 2
 904 625 l 2
 904 685 881 718 821 718 c 2
 249 718 l 2
504 443 m 0
 483 443 443 438 443 397 c 0
 443 384 435 360 413 360 c 0
 391 360 388 382 388 384 c 0
 388 408 415 476 519 476 c 0
 549 476 579 471 594 462 c 0
 619 447 630 422 630 401 c 0
 630 372 615 337 562 302 c 1
 604 295 661 264 661 186 c 0
 661 87 570 36 486 36 c 0
 443 36 380 50 380 81 c 0
 380 94 395 108 411 108 c 0
 427 108 434.9 100 442 89 c 0
 451 75 459 69 495 69 c 0
 519 69 571 82 571 176 c 0
 571 257 534 263 493 263 c 0
 486 263 478 261 470 260 c 1
 467 289 l 1
 525 299 546 355 546 390 c 0
 546 427 532 443 504 443 c 0
EndSplineSet
AlternateSubs2: "'aalt' Alle Alternativen zeigen 1" three.oldstyle three.superior three.fitted
Substitution2: "'sups' Hochgestellte 1" three.superior
Substitution2: "'sinf' Wissenschaftliche Indices 1" three.inferior
Substitution2: "'pnum' Proportionalziffern 1" three.fitted
Substitution2: "'onum' Minuskelziffern 1" three.taboldstyle
EndChar

StartChar: four
Encoding: 52 52 13
Width: 1100
VWidth: 487
Flags: HW
HStem: 70 16G<298 347 347 382> 183 1<306 374> 183 40<189 306 374 440> 490 15G<295 297>
VStem: 306 68<74 184 223 353>
LayerCount: 3
Back
SplineSet
227 189 m 6
 -12 189 l 6
 -21 189 -26 196 -26 206 c 4
 -26 218 -22 224 -8 244 c 6
 313 692 l 6
 320 701 326 706 336 706 c 6
 353 706 l 6
 363 706 368 703 368 698 c 4
 368 695 366 691 363 687 c 6
 45 247 l 6
 33 231 47 231 73 231 c 6
 228 231 l 6
 252 231 256 234 256 257 c 6
 256 441 l 6
 256 448 257 456 265 461 c 4
 277 469 300 477 316 478 c 4
 330 479 330 467 330 447 c 6
 330 254 l 6
 330 235 333 231 350 231 c 6
 414 231 l 5
 423 224 423 198 414 189 c 5
 360 189 l 6
 335 189 330 188 330 167 c 6
 330 122 l 6
 330 43 332 30 373 25 c 6
 399 22 l 5
 405 16 404 0 397 -3 c 5
 361 -1 324 0 293 0 c 4
 257 0 212 -1 168 -3 c 5
 161 0 160 16 166 22 c 5
 211 25 l 6
 253 28 256 45 256 122 c 6
 256 164 l 6
 256 188 253 189 227 189 c 6
46.875 578.125 m 25
 347.168 578.125 l 25
-58.1055 256.836 m 25
 565.43 256.836 l 25
0 572.012 m 1
 438.965 572.012 l 1
 438.965 0 l 1
 0 0 l 1
 0 572.012 l 1
EndSplineSet
Fore
SplineSet
1000 -84 m 2
 1000 -174 971 -212 881 -212 c 2
 249 -212 l 2
 159 -212 120 -174 120 -84 c 2
 120 625 l 2
 120 708 168 754 249 754 c 2
 851 754 l 2
 941 754 1000 715 1000 625 c 2
 1000 -84 l 2
249 718 m 2
 189 718 156 685 156 625 c 2
 156 -53 l 2
 156 -113 189 -136 249 -136 c 2
 821 -136 l 2
 881 -136 904 -113 904 -53 c 2
 904 625 l 2
 904 685 881 718 821 718 c 2
 249 718 l 2
384 153 m 2
 362 153 352 176 350 187 c 1
 350 187 351 188 351 189 c 0
 400 243 491 409 521 472 c 0
 522 474 523 475 526 475 c 0
 528 475 561 469 570 467 c 1
 532 376 474 280 419 193 c 1
 536 193 l 1
 536 308 l 2
 536 313 538 319 545 323 c 1
 553 329 581 336 592 336 c 0
 602 336 604 328 604 313 c 2
 604 193 l 1
 663 193 l 2
 670 193 673 186 673 179 c 0
 673 171 663 153 653 153 c 2
 604 153 l 1
 604 96.9 606 84.7 612 42 c 1
 611 40 l 1
 611 40 603 42 577 42 c 0
 551 42 529 40 529 40 c 1
 528 42 l 1
 535 81.8 536 97.8 536 153 c 1
 384 153 l 2
EndSplineSet
AlternateSubs2: "'aalt' Alle Alternativen zeigen 1" four.oldstyle four.superior four.fitted
Substitution2: "'sups' Hochgestellte 1" four.superior
Substitution2: "'sinf' Wissenschaftliche Indices 1" four.inferior
Substitution2: "'pnum' Proportionalziffern 1" four.fitted
Substitution2: "'onum' Minuskelziffern 1" four.taboldstyle
EndChar

StartChar: five
Encoding: 53 53 14
Width: 1100
VWidth: 487
Flags: HW
HStem: 64 36<189 275> 306 42<191 273> 443 54<204 364> 490 15G<351 375>
VStem: 297 90<146 273>
DStem2: 135 289 190 337 0.112752 0.993623<53.867 166.511>
LayerCount: 3
Back
SplineSet
46.875 578.125 m 25
 377.93 578.125 l 29
308.838 169.678 m 0
 308.838 273.438 245.117 323.242 188.477 323.242 c 0
 140.625 323.242 98.6328 311.523 74.2188 300.293 c 1
 106.445 572.754 l 1
 369.629 572.754 l 1
 355.469 514.648 l 1
 355.469 512.695 l 1
 142.09 512.695 l 1
 123.047 355.469 l 1
 140.625 365.234 170.898 370.117 212.891 370.117 c 0
 312.5 370.117 381.104 297.363 381.104 186.279 c 0
 381.104 54.9316 305.664 -9.27734 187.988 -9.27734 c 0
 130.859 -9.27734 47.8516 22.4609 47.8516 62.0117 c 0
 47.8516 81.0547 63.9648 93.75 82.0312 93.75 c 0
 102.051 93.75 114.258 79.1016 126.953 62.9883 c 0
 141.113 44.9219 157.715 24.9023 189.453 24.9023 c 0
 259.766 24.9023 308.838 75.1953 308.838 169.678 c 0
0 572.012 m 1
 438.965 572.012 l 1
 438.965 0 l 1
 0 0 l 1
 0 572.012 l 1
EndSplineSet
Fore
SplineSet
1000 -84 m 2
 1000 -174 971 -212 881 -212 c 2
 249 -212 l 2
 159 -212 120 -174 120 -84 c 2
 120 625 l 2
 120 708 168 754 249 754 c 2
 851 754 l 2
 941 754 1000 715 1000 625 c 2
 1000 -84 l 2
249 718 m 2
 189 718 156 685 156 625 c 2
 156 -53 l 2
 156 -113 189 -136 249 -136 c 2
 821 -136 l 2
 881 -136 904 -113 904 -53 c 2
 904 625 l 2
 904 685 881 718 821 718 c 2
 249 718 l 2
567 168 m 0
 567 245 546 276 499 276 c 0
 465 276 435 271 405 259 c 1
 429 471 l 1
 454 468 483 467 510 467 c 0
 547 467 600 470 641 474 c 1
 645 472 l 1
 634 417 l 1
 605 414 567 413 546 413 c 0
 512 413 501 416 474 419 c 1
 460 307 l 1
 476 313 489 318 518 318 c 0
 597 318 657 250 657 180 c 0
 657 96 583 34 498 34 c 0
 456 34 390 56 390 88 c 0
 390 104 404 115 418 115 c 0
 435 115 446 102 456 89 c 0
 467 74 476 70 500 70 c 0
 548 70 567 102 567 168 c 0
EndSplineSet
AlternateSubs2: "'aalt' Alle Alternativen zeigen 1" five.oldstyle five.superior five.fitted
Substitution2: "'sups' Hochgestellte 1" five.superior
Substitution2: "'sinf' Wissenschaftliche Indices 1" five.inferior
Substitution2: "'pnum' Proportionalziffern 1" five.fitted
Substitution2: "'onum' Minuskelziffern 1" five.taboldstyle
EndChar

StartChar: six
Encoding: 54 54 15
Width: 1100
VWidth: 487
Flags: HW
HStem: 64 28<242 315> 294 31<222 307> 478 26<338 398>
VStem: 120 85<153 301> 334 85<136 266>
LayerCount: 3
Back
SplineSet
46.875 578.125 m 25
 406.25 578.125 l 25
0 572.012 m 1
 438.965 572.012 l 1
 438.965 0 l 1
 0 0 l 1
 0 572.012 l 1
375.977 561.035 m 1
 295.898 543.945 258.403 525.747 227.051 500.977 c 0
 197.85 477.906 176.758 453.125 154.297 405.762 c 0
 135.949 367.065 124.211 330.648 118.615 290.749 c 1
 141.601 318.168 194.727 339.844 232.422 339.844 c 0
 284.18 339.844 322.266 333.008 361.328 292.48 c 0
 386.23 266.113 402.344 213.867 402.344 177.246 c 0
 402.344 129.395 383.489 72.0898 354.492 43.9453 c 0
 321.289 11.7188 277.344 -2.44141 230.469 -2.44141 c 0
 184.567 -2.44141 148.438 10.7422 118.164 37.5977 c 0
 69.2656 80.9756 45.8984 131.836 45.8984 235.84 c 0
 45.8984 295.898 62.0117 358.398 85.4492 403.809 c 0
 110.84 452.637 146.6 491.05 192.871 524.414 c 0
 239.374 557.944 293.945 573.242 375.488 580.566 c 1
 375.977 561.035 l 1
115.692 262.137 m 1
 115.06 252.512 114.746 242.629 114.746 232.422 c 0
 114.746 164.062 128.018 107.486 149.414 78.125 c 0
 170.007 49.8672 205.078 26.8555 240.234 26.8555 c 0
 270.02 26.8555 293.457 41.9922 306.641 61.5234 c 0
 328.125 91.3086 334.961 131.51 334.961 169.434 c 0
 334.961 201.188 322.754 245.117 303.223 268.066 c 0
 280.762 294.434 251.465 307.129 215.332 307.129 c 0
 194.572 307.129 156.109 305.244 115.692 262.137 c 1
EndSplineSet
Fore
SplineSet
1000 -84 m 2
 1000 -174 971 -212 881 -212 c 2
 249 -212 l 2
 159 -212 120 -174 120 -84 c 2
 120 625 l 2
 120 708 168 754 249 754 c 2
 851 754 l 2
 941 754 1000 715 1000 625 c 2
 1000 -84 l 2
249 718 m 2
 189 718 156 685 156 625 c 2
 156 -53 l 2
 156 -113 189 -136 249 -136 c 2
 821 -136 l 2
 881 -136 904 -113 904 -53 c 2
 904 625 l 2
 904 685 881 718 821 718 c 2
 249 718 l 2
456 245 m 1
 455 236 455 218 455 211 c 0
 455 85 494 62 532 62 c 0
 566 62 584 86 584 164 c 0
 584 199 580 264 513 264 c 0
 500 264 480 263 456 245 c 1
460 273 m 1
 480 286 507 295 528 295 c 0
 639 295 669 228 669 169 c 0
 669 110 628 34 524 34 c 0
 470 34 370 64 370 214 c 0
 370 321 455 462 647 474 c 1
 650 448 l 1
 605 444 489 430 460 273 c 1
EndSplineSet
AlternateSubs2: "'aalt' Alle Alternativen zeigen 1" six.oldstyle six.superior six.fitted
Substitution2: "'sups' Hochgestellte 1" six.superior
Substitution2: "'sinf' Wissenschaftliche Indices 1" six.inferior
Substitution2: "'pnum' Proportionalziffern 1" six.fitted
Substitution2: "'onum' Minuskelziffern 1" six.taboldstyle
EndChar

StartChar: seven
Encoding: 55 55 16
Width: 1100
VWidth: 487
Flags: HMW
HStem: 62 16G<149 200> 448 49<134 307>
LayerCount: 3
Back
SplineSet
164.062 522.432 m 2
 133.789 522.432 100.098 505.342 80.0781 433.075 c 1
 53.2227 436.005 l 1
 62.0117 484.833 67.3828 528.779 68.6035 573.701 c 1
 93.2617 573.701 l 1
 95.2148 567.842 104.441 561.523 120.361 561.523 c 2
46.875 578.125 m 25
 347.168 578.125 l 25
0 572.012 m 1
 438.965 572.012 l 1
 438.965 0 l 1
 0 0 l 1
 0 572.012 l 1
EndSplineSet
Fore
SplineSet
619.4 410.9 m 1
 577.5 410.6 513.6 409.3 420 404 c 1
 422 415 423 432 423 443 c 0
 423 453 422 461 420 471 c 1
 450 467 527 467 633 467 c 0
 655 467 668 471 679 474 c 1
 691 467 l 1
 611 273 569 155 528 34 c 1
 465 32 l 1
 463 36 l 1
 509.5 140.9 564.9 276.2 619.4 410.9 c 1
1000 -84 m 2
 1000 -174 971 -212 881 -212 c 2
 249 -212 l 2
 159 -212 120 -174 120 -84 c 2
 120 625 l 2
 120 708 168 754 249 754 c 2
 851 754 l 2
 941 754 1000 715 1000 625 c 2
 1000 -84 l 2
249 718 m 2
 189 718 156 685 156 625 c 2
 156 -53 l 2
 156 -113 189 -136 249 -136 c 2
 821 -136 l 2
 881 -136 904 -113 904 -53 c 2
 904 625 l 2
 904 685 881 718 821 718 c 2
 249 718 l 2
EndSplineSet
AlternateSubs2: "'aalt' Alle Alternativen zeigen 1" seven.oldstyle seven.superior seven.fitted
Substitution2: "'sups' Hochgestellte 1" seven.superior
Substitution2: "'sinf' Wissenschaftliche Indices 1" seven.inferior
Substitution2: "'pnum' Proportionalziffern 1" seven.fitted
Substitution2: "'onum' Minuskelziffern 1" seven.taboldstyle
EndChar

StartChar: nine
Encoding: 57 57 17
Width: 1100
VWidth: 487
Flags: HW
HStem: 64 26<288 348> 243 31<379 464> 476 28<371 444>
VStem: 267 85<302 432> 481 85<267 415>
LayerCount: 3
Back
SplineSet
46.875 578.125 m 29
 347.168 578.125 l 29
0 572.012 m 1
 438.965 572.012 l 1
 438.965 0 l 1
 0 0 l 1
 0 572.012 l 1
EndSplineSet
Fore
SplineSet
1000 -84 m 2
 1000 -174 971 -212 881 -212 c 2
 249 -212 l 2
 159 -212 120 -174 120 -84 c 2
 120 625 l 2
 120 708 168 754 249 754 c 2
 851 754 l 2
 941 754 1000 715 1000 625 c 2
 1000 -84 l 2
249 718 m 2
 189 718 156 685 156 625 c 2
 156 -53 l 2
 156 -113 189 -136 249 -136 c 2
 821 -136 l 2
 881 -136 904 -113 904 -53 c 2
 904 625 l 2
 904 685 881 718 821 718 c 2
 249 718 l 2
603 261 m 1
 604 270 604 288 604 295 c 0
 604 421 565 444 527 444 c 0
 493 444 475 420 475 342 c 0
 475 307 479 242 546 242 c 0
 559 242 579 243 603 261 c 1
599 233 m 1
 579 220 552 211 531 211 c 0
 420 211 390 278 390 337 c 0
 390 396 431 472 535 472 c 0
 589 472 689 442 689 292 c 0
 689 185 604 44 412 32 c 1
 409 58 l 1
 454 62 570 76 599 233 c 1
EndSplineSet
AlternateSubs2: "'aalt' Alle Alternativen zeigen 1" nine.oldstyle nine.superior nine.fitted
Substitution2: "'sups' Hochgestellte 1" nine.superior
Substitution2: "'sinf' Wissenschaftliche Indices 1" nine.inferior
Substitution2: "'pnum' Proportionalziffern 1" nine.fitted
Substitution2: "'onum' Minuskelziffern 1" nine.taboldstyle
Colour: ff00ff
EndChar

StartChar: colon
Encoding: 58 58 18
Width: 1100
VWidth: 999
Flags: HW
HStem: -212 76<179.2 885.174> 34 97<502.123 570.724> 246 97<502.123 570.724> 718 36<188.821 875.472>
VStem: 120 36<-107.953 686.051> 487 98<46.5645 115.833 258.564 327.833> 904 96<-118.923 694.8>
LayerCount: 3
Fore
SplineSet
1000 -84 m 2
 1000 -174 971 -212 881 -212 c 2
 249 -212 l 2
 159 -212 120 -174 120 -84 c 2
 120 625 l 2
 120 708 168 754 249 754 c 2
 851 754 l 2
 941 754 1000 715 1000 625 c 2
 1000 -84 l 2
249 718 m 2
 189 718 156 685 156 625 c 2
 156 -53 l 2
 156 -113 189 -136 249 -136 c 2
 821 -136 l 2
 881 -136 904 -113 904 -53 c 2
 904 625 l 2
 904 685 881 718 821 718 c 2
 249 718 l 2
487 81 m 1
 487 84 l 1
 496 107 509 121 535 131 c 1
 537 131 l 1
 562 122 576 109 585 84 c 1
 585 81 l 1
 575 53 562 40 537 34 c 1
 535 34 l 1
 507 40 495 53 487 81 c 1
487 293 m 1
 487 296 l 1
 496 319 509 333 535 343 c 1
 537 343 l 1
 562 334 576 321 585 296 c 1
 585 293 l 1
 575 265 562 252 537 246 c 1
 535 246 l 1
 507 252 495 265 487 293 c 1
EndSplineSet
Colour: ff00ff
EndChar

StartChar: less
Encoding: 60 60 19
Width: 1100
Flags: HW
DStem2: 356 256 439 240 0.939793 0.341743<72.599 326.471> 439 240 356 224 0.939793 -0.341743<0 253.872>
LayerCount: 3
Fore
SplineSet
1000 -84 m 2
 1000 -174 971 -212 881 -212 c 2
 249 -212 l 2
 159 -212 120 -174 120 -84 c 2
 120 625 l 2
 120 708 168 754 249 754 c 2
 851 754 l 2
 941 754 1000 715 1000 625 c 2
 1000 -84 l 2
249 718 m 2
 189 718 156 685 156 625 c 2
 156 -53 l 2
 156 -113 189 -136 249 -136 c 2
 821 -136 l 2
 881 -136 904 -113 904 -53 c 2
 904 625 l 2
 904 685 881 718 821 718 c 2
 249 718 l 2
439 240 m 1
 677 153 l 1
 677 106 l 1
 356 224 l 1
 356 256 l 1
 677 374 l 1
 677 327 l 1
 439 240 l 1
EndSplineSet
EndChar

StartChar: equal
Encoding: 61 61 20
Width: 1100
Flags: HW
HStem: 165 42<375 701> 258 43<375 701>
LayerCount: 3
Back
SplineSet
-58 257 m 25
 565 257 l 25
0 572 m 1
 527 572 l 1
 527 0 l 1
 0 0 l 1
 0 572 l 1
EndSplineSet
Fore
SplineSet
1000 -84 m 2
 1000 -174 971 -212 881 -212 c 2
 249 -212 l 2
 159 -212 120 -174 120 -84 c 2
 120 625 l 2
 120 708 168 754 249 754 c 2
 851 754 l 2
 941 754 1000 715 1000 625 c 2
 1000 -84 l 2
249 718 m 2
 189 718 156 685 156 625 c 2
 156 -53 l 2
 156 -113 189 -136 249 -136 c 2
 821 -136 l 2
 881 -136 904 -113 904 -53 c 2
 904 625 l 2
 904 685 881 718 821 718 c 2
 249 718 l 2
701 300 m 1
 701 258 l 1
 375 258 l 1
 375 300 l 1
 701 300 l 1
701 207 m 1
 701 165 l 1
 375 165 l 1
 375 207 l 1
 701 207 l 1
EndSplineSet
AlternateSubs2: "'aalt' Alle Alternativen zeigen 1" equal.superior
Substitution2: "'sinf' Wissenschaftliche Indices 1" equal.inferior
Substitution2: "'sups' Hochgestellte 1" equal.superior
EndChar

StartChar: greater
Encoding: 62 62 21
Width: 1100
Flags: HW
HStem: 104 267<396 396>
VStem: 396 322<254 325>
DStem2: 396 372 396 325 0.939669 -0.342086<15.9101 269.621> 396 151 396 104 0.940012 0.341142<0 253.835>
LayerCount: 3
Fore
SplineSet
1000 -84 m 2
 1000 -174 971 -212 881 -212 c 2
 249 -212 l 2
 159 -212 120 -174 120 -84 c 2
 120 625 l 2
 120 708 168 754 249 754 c 2
 851 754 l 2
 941 754 1000 715 1000 625 c 2
 1000 -84 l 2
249 718 m 2
 189 718 156 685 156 625 c 2
 156 -53 l 2
 156 -113 189 -136 249 -136 c 2
 821 -136 l 2
 881 -136 904 -113 904 -53 c 2
 904 625 l 2
 904 685 881 718 821 718 c 2
 249 718 l 2
633 238 m 1
 396 325 l 1
 396 372 l 1
 717 254 l 1
 717 221 l 1
 396 104 l 1
 396 151 l 1
 633 238 l 1
EndSplineSet
Colour: ff00ff
EndChar

StartChar: question
Encoding: 63 63 22
Width: 1100
VWidth: 487
Flags: HW
HStem: 75 92<490 548> 540 37<485 571>
VStem: 472 93<90 149> 502 34<213 317> 590 85<413 519>
LayerCount: 3
Back
SplineSet
497.5 375.775 m 0
 511.406 395.306 532.124 412.618 559.648 427.71 c 0
 578.589 437.771 600.186 454.344 624.453 477.426 c 128
 647.236 498.73 658.491 522.847 658.188 549.78 c 0
 657.891 581.152 651.089 603.936 637.773 618.14 c 128
 616.763 640.034 594.414 650.986 570.742 650.986 c 0
 545.298 650.986 522.358 640.776 501.938 620.361 c 128
 485.662 603.789 475.896 585.293 472.644 564.873 c 1
 435.357 564.873 l 1
 435.357 615.918 l 1
 442.459 625.684 459.622 639.004 486.849 655.869 c 128
 508.154 669.487 537.451 676.289 574.741 676.289 c 0
 626.528 676.289 664.106 661.787 687.485 632.788 c 128
 706.431 609.116 715.898 581.597 715.898 550.225 c 0
 715.898 520.928 704.653 492.222 682.163 464.109 c 128
 662.93 440.139 633.335 416.465 593.384 393.086 c 0
 571.187 380.065 554.766 364.678 544.111 346.922 c 0
 534.048 330.646 529.019 314.221 529.019 297.65 c 0
 529.019 282.261 533.604 269.685 542.778 259.919 c 0
 555.796 246.307 571.777 239.352 590.718 239.056 c 0
 611.138 238.76 637.471 242.459 669.731 250.152 c 1
 669.731 237.281 l 1
 662.632 231.066 652.275 224.852 638.657 218.637 c 0
 623.569 212.127 605.225 208.724 583.618 208.428 c 0
 552.246 207.836 525.469 215.974 503.271 232.842 c 0
 481.667 249.117 471.167 271.756 471.756 300.758 c 8
 472.345 327.095 480.933 352.101 497.5 375.775 c 0
EndSplineSet
Fore
SplineSet
1000 -84 m 2
 1000 -174 971 -212 881 -212 c 2
 249 -212 l 2
 159 -212 120 -174 120 -84 c 2
 120 625 l 2
 120 708 168 754 249 754 c 2
 851 754 l 2
 941 754 1000 715 1000 625 c 2
 1000 -84 l 2
249 718 m 2
 189 718 156 685 156 625 c 2
 156 -53 l 2
 156 -113 189 -136 249 -136 c 2
 821 -136 l 2
 881 -136 904 -113 904 -53 c 2
 904 625 l 2
 904 685 881 718 821 718 c 2
 249 718 l 2
477 81 m 1
 477 84 l 1
 486 106 498 119 523 129 c 1
 525 129 l 1
 549 120 562 108 571 84 c 1
 571 81 l 1
 561 54 549 42 525 36 c 1
 523 36 l 1
 496 42 485 54 477 81 c 1
530 500 m 0
 488 500 457 464 438 430 c 1
 428 431 l 1
 416 488 l 1
 418 491 l 1
 437 506 482 537 537 537 c 0
 613 537 675 492 675 424 c 0
 675 365 616 332 581 306 c 0
 559 290 536 269 536 214 c 2
 536 185 l 2
 536 179 525 173 519 173 c 0
 513 173 502 179 502 185 c 2
 502 215 l 2
 502 248 511.4 291.6 559 336 c 0
 589 364 590 386 590 421 c 0
 590 470 573 500 530 500 c 0
EndSplineSet
Colour: ff80cc
EndChar

StartChar: at
Encoding: 64 64 23
Width: 1100
Flags: HW
HStem: -212 76<179.2 885.174> -52 29<473.254 640.961> 82 31<620 697.733> 90 32<489.175 554.329> 354 25<545.853 609.396> 506 27<473.322 615.749> 718 36<188.821 875.472>
VStem: 120 36<-107.953 686.051> 237 70<129.304 340.022> 405 73<127.662 274.948> 771 64<194.204 374.622> 904 96<-118.923 694.8>
LayerCount: 3
Back
SplineSet
658.691 46.875 m 0xbf
 658.691 35.6445 668.945 33.2031 671.387 33.2031 c 0
 791.992 33.2031 872.07 77.1484 872.07 289.062 c 0
 872.07 551.758 671.387 648.926 523.926 648.926 c 0
 345.215 648.926 142.09 521.484 142.09 242.676 c 0
 142.09 100.098 220.215 -187.988 534.18 -187.988 c 0
 634.277 -187.988 707.52 -159.668 770.996 -109.863 c 1
 786.621 -131.348 l 1
 715.82 -184.57 645.02 -226.562 512.207 -226.562 c 0
 245.605 -226.562 58.5938 -22.9492 58.5938 228.027 c 0
 58.5938 481.445 250.977 684.57 524.414 684.57 c 0
 776.855 684.57 948.242 505.859 948.242 285.156 c 0
 948.242 151.367 882.324 -5.37109 626.953 -5.37109 c 0xdf
 592.773 -5.37109 584.473 20.9961 584.473 40.0391 c 0
 584.473 58.5938 589.355 83.4961 599.121 114.746 c 1
 530.273 14.6484 474.121 -2.92969 442.871 -2.92969 c 0
 325.684 -2.92969 305.176 92.7734 305.176 139.16 c 0
 305.176 308.105 448.73 441.895 573.242 441.895 c 0
 612.793 441.895 652.344 421.875 664.062 391.602 c 1
 669.922 419.922 l 1
 726.074 434.57 l 1
 744.141 428.711 l 1
 674.316 125 l 2
 666.992 93.2617 658.691 56.6406 658.691 46.875 c 0xbf
647.949 334.961 m 0
 647.949 378.418 618.164 411.133 576.66 411.133 c 0
 556.152 411.133 506.836 410.645 464.355 363.77 c 0
 407.227 302.246 385.742 222.656 385.742 150.391 c 0
 385.742 94.2383 404.297 39.0625 478.027 39.0625 c 0xbf
 509.766 39.0625 582.031 103.516 612.793 183.105 c 0
 626.953 220.703 647.949 306.152 647.949 334.961 c 0
EndSplineSet
Fore
SplineSet
1000 -84 m 2
 1000 -174 971 -212 881 -212 c 2
 249 -212 l 2
 159 -212 120 -174 120 -84 c 2
 120 625 l 2
 120 708 168 754 249 754 c 2
 851 754 l 2
 941 754 1000 715 1000 625 c 2
 1000 -84 l 2
249 718 m 2
 189 718 156 685 156 625 c 2
 156 -53 l 2
 156 -113 189 -136 249 -136 c 2
 821 -136 l 2
 881 -136 904 -113 904 -53 c 2
 904 625 l 2
 904 685 881 718 821 718 c 2
 249 718 l 2
648 124 m 0
 648 114 653 113 661 113 c 0
 689 113 771 164 771 272 c 0
 771 438 633 506 546 506 c 0
 429 506 307 412 307 239 c 0
 307 128 375 -23 559 -23 c 0
 616 -23 669 -5 716 33 c 1
 725 30 730 21 732 11 c 1
 684 -25 637 -52 544 -52 c 0
 367 -52 237 62 237 233 c 0
 237 389 363 533 553 533 c 0
 722 533 835 425 835 283 c 0
 835 178 747 82 646 82 c 0
 594 82 580 109 580 125 c 1
 549 96 519 90 501 90 c 0
 414 90 405 155 405 186 c 0
 405 295 497 379 583 379 c 0
 619 379 641 366 654 350 c 1
 681 375 l 1
 702 367 l 1
 657 173 l 2
 653 154 648 132 648 124 c 0
622 308 m 0
 622 334 604 354 585 354 c 0
 575 354 551.1 352.9 525 325 c 0
 491.2 288.9 478 238 478 191 c 0
 478 155 485 122 520 122 c 0
 543 122 580 148 601 212 c 1
 608 237 622 290 622 308 c 0
EndSplineSet
EndChar

StartChar: A
Encoding: 65 65 24
Width: 1100
Flags: HW
HStem: -212 76<179.2 885.174> 207 39<441.391 618> 412 20G<503 515 530 566> 718 36<188.821 875.472>
VStem: 120 36<-107.953 686.051> 663 114<39 86.3662> 904 96<-118.923 694.8>
LayerCount: 3
Back
SplineSet
132 79 m 6
 121.979 53.5967 134.54 31.583 172 29 c 6
 201 27 l 6
 204.991 26.7246 209 24 209 19 c 6
 209 0 l 5
 207 -2 l 5
 207 -2 98 0 74 0 c 4
 48 0 -16 -2 -16 -2 c 5
 -18 0 l 5
 -18 19 l 6
 -18 24 -14.9883 26.6562 -10 27 c 4
 33.5 30 59.1699 37.7783 86.9834 102 c 6
 309.333 622.333 l 6
 318.036 642.698 331.667 658 344 658 c 4
 355 658 362.389 648.121 370 628 c 6
 575 86 l 6
 589 47 609.193 31.6191 649 28 c 6
 660 27 l 6
 664.98 26.5469 670 24 670 19 c 6
 670 0 l 5
 667 -2 l 5
 667 -2 590 0 551 0 c 4
 516 0 418 -2 418 -2 c 5
 417 0 l 5
 417 19 l 6
 417 24 419.013 26.6436 424 27 c 6
 452 29 l 6
 489.772 31.6982 503.995 44.3066 494 72 c 6
 433 241 l 5
 225 241 l 6
 201 241 195.06 236.649 190 224 c 6
 132 79 l 6
243 283 m 6
 417 283 l 5
 319 550 l 5
 318 550 l 5
 217.826 296.333 l 6
 213.576 285.571 226.965 283 243 283 c 6
EndSplineSet
Fore
SplineSet
433.2 205.1 m 1
 407.7 142.2 385.7 83.3 374 39 c 1
 365 41 348 41 340 41 c 0
 332 41 307 41 298 39 c 1
 374 204 447 368 519 534 c 1
 572 534 l 1
 641 370 740 114 777 39 c 1
 764 41 729 41 716 41 c 0
 704 41 676 41 663 39 c 1
 658.7 54.9 642.5 111.1 607.2 205.6 c 1
 582.6 206.3 556.6 207 533 207 c 0
 506 207 462.3 206.1 433.2 205.1 c 1
522.5 414.7 m 1
 450.9 248 l 1
 474.7 247.7 507.2 246 529 246 c 0
 546.3 246 570 246.5 591.5 247.1 c 1
 572.9 295.1 550.1 351 522.5 414.7 c 1
1000 -84 m 2
 1000 -174 971 -212 881 -212 c 2
 249 -212 l 2
 159 -212 120 -174 120 -84 c 2
 120 625 l 2
 120 708 168 754 249 754 c 2
 851 754 l 2
 941 754 1000 715 1000 625 c 2
 1000 -84 l 2
249 718 m 2
 189 718 156 685 156 625 c 2
 156 -53 l 2
 156 -113 189 -136 249 -136 c 2
 821 -136 l 2
 881 -136 904 -113 904 -53 c 2
 904 625 l 2
 904 685 881 718 821 718 c 2
 249 718 l 2
EndSplineSet
Position2: "'cpsp' Versalabstaende 1" dx=2 dy=0 dh=4 dv=0
Substitution2: "'c2sc' Versale nach Kapitaelchen 1" a.sc
EndChar

StartChar: B
Encoding: 66 66 25
Width: 1100
VWidth: 999
Flags: HW
HStem: 78 40<429 596> 322 40<450 570> 527 40<428 568>
VStem: 354 96<124 322 362 522> 589 97<398 505> 624 106<160 280>
LayerCount: 3
Fore
SplineSet
1000 -84 m 2
 1000 -174 971 -212 881 -212 c 2
 249 -212 l 2
 159 -212 120 -174 120 -84 c 2
 120 625 l 2
 120 708 168 754 249 754 c 2
 851 754 l 2
 941 754 1000 715 1000 625 c 2
 1000 -84 l 2
249 718 m 2
 189 718 156 685 156 625 c 2
 156 -53 l 2
 156 -113 189 -136 249 -136 c 2
 821 -136 l 2
 881 -136 904 -113 904 -53 c 2
 904 625 l 2
 904 685 881 718 821 718 c 2
 249 718 l 2
402 524 m 0
 444 524 483 527 509 527 c 0
 648 527 686 461 686 410 c 0
 686 369 654 329 616 311 c 1
 681 292 730 251 730 179 c 0
 730 114 675 38 525 38 c 0
 459 38 450 41 402 41 c 0
 376 41 348 38 348 38 c 1
 347 41 l 1
 353 81 354 134 354 191 c 2
 354 374 l 2
 354 431 353 482 347 524 c 1
 348 527 l 1
 348 527 377 524 402 524 c 0
450 282 m 1
 450 113 l 2
 450 89 459 78 511 78 c 0
 612 78 624 110 624 164 c 0
 624 232 603 282 516 282 c 2
 450 282 l 1
450 453 m 2
 450 322 l 1
 504 322 l 2
 567 322 589 338 589 401 c 0
 589 478 556 487 514 487 c 0
 453 487 450 478 450 453 c 2
EndSplineSet
Position2: "'cpsp' Versalabstaende 1" dx=2 dy=0 dh=4 dv=0
Substitution2: "'c2sc' Versale nach Kapitaelchen 1" b.sc
EndChar

StartChar: C
Encoding: 67 67 26
Width: 1100
VWidth: 999
Flags: HW
HStem: -212 76<179.2 885.174> 34 44<473.301 637.148> 492 42<476.962 628.553> 718 36<188.821 875.472>
VStem: 120 36<-107.953 686.051> 292 109<171.935 372.978> 904 96<-118.923 694.8>
LayerCount: 3
Back
SplineSet
572.754 645.508 m 5
 591.797 471.68 l 5
 562.012 468.75 l 5
 554.688 511.719 519.043 606.445 467.285 606.445 c 6
EndSplineSet
Fore
SplineSet
1000 -84 m 2
 1000 -174 971 -212 881 -212 c 2
 249 -212 l 2
 159 -212 120 -174 120 -84 c 2
 120 625 l 2
 120 708 168 754 249 754 c 2
 851 754 l 2
 941 754 1000 715 1000 625 c 2
 1000 -84 l 2
249 718 m 2
 189 718 156 685 156 625 c 2
 156 -53 l 2
 156 -113 189 -136 249 -136 c 2
 821 -136 l 2
 881 -136 904 -113 904 -53 c 2
 904 625 l 2
 904 685 881 718 821 718 c 2
 249 718 l 2
554 534 m 0
 645 534 717 501 717 501 c 1
 719 498 l 1
 710 462 706 439 704 401 c 1
 696 400 l 1
 665 462 611 492 543 492 c 0
 482 492 401 444 401 292 c 0
 401 182 434 78 550 78 c 0
 620 78 671 94 724 153 c 1
 741 135 l 1
 690 68 608 34 536 34 c 0
 374 34 292 156 292 277 c 0
 292 425 427 534 554 534 c 0
EndSplineSet
Position2: "'cpsp' Versalabstaende 1" dx=2 dy=0 dh=4 dv=0
Substitution2: "'c2sc' Versale nach Kapitaelchen 1" c.sc
EndChar

StartChar: D
Encoding: 68 68 27
Width: 1100
VWidth: 999
Flags: HW
HStem: 79 33<368 565> 534 33<368 533>
VStem: 317 64<118 526> 655 77<215 400>
LayerCount: 3
Fore
SplineSet
1000 -84 m 2
 1000 -174 971 -212 881 -212 c 2
 249 -212 l 2
 159 -212 120 -174 120 -84 c 2
 120 625 l 2
 120 708 168 754 249 754 c 2
 851 754 l 2
 941 754 1000 715 1000 625 c 2
 1000 -84 l 2
249 718 m 2
 189 718 156 685 156 625 c 2
 156 -53 l 2
 156 -113 189 -136 249 -136 c 2
 821 -136 l 2
 881 -136 904 -113 904 -53 c 2
 904 625 l 2
 904 685 881 718 821 718 c 2
 249 718 l 2
365 524 m 0
 420 524 450 527 504 527 c 0
 648 527 780 411 780 272 c 0
 780 87 624 39 518 39 c 0
 441 39 425 41 365 41 c 0
 339 41 310 38 310 38 c 1
 309 41 l 1
 315 81 317 134 317 191 c 2
 317 374 l 2
 317 431 315 482 309 524 c 1
 311 527 l 1
 311 527 339 524 365 524 c 0
413 109 m 2
 413 85 421 79 495 79 c 0
 600 79 671 102 671 254 c 0
 671 369 638 487 476 487 c 0
 439 487 413 483 413 457 c 2
 413 109 l 2
EndSplineSet
Position2: "'cpsp' Versalabstaende 1" dx=2 dy=0 dh=4 dv=0
Substitution2: "'c2sc' Versale nach Kapitaelchen 1" d.sc
EndChar

StartChar: E
Encoding: 69 69 28
Width: 1100
VWidth: 999
Flags: HW
HStem: -212 76<179.2 885.174> 41 47<455.953 670.434> 278 38<453 617.588> 472 21G<459 665> 481 43<456.105 662.434> 718 36<188.821 875.472>
VStem: 120 36<-107.953 686.051> 357 96<88.8829 278 316 479.855> 904 96<-118.923 694.8>
LayerCount: 3
Back
SplineSet
98 150 m 6x3d
 98 510 l 6
 98 614 96 629 37 636 c 6
 21 638 l 5
 15 642 17 660 23 663 c 5x3b
 66 661 100 660 141 660 c 6
 329 660 l 6x3d
 393 660 452 660 464 663 c 5x3b
 470 646 476 574 480 530 c 5
 476 524 460 522 455 528 c 5
 440 575 431 610 379 623 c 4
 358 628 326 629 282 629 c 6
 210 629 l 6
 180 629 180 627 180 589 c 6
 180 389 l 6
 180 361 183 361 213 361 c 6
 271 361 l 6
 313 361 344 363 356 367 c 4
 368 371 375 377 380 402 c 6
 388 443 l 5
 393 449 410 449 414 442 c 5
 414 418 410 379 410 341 c 4
 410 305 414 267 414 245 c 5
 410 238 393 238 388 244 c 5
 379 283 l 6
 375 301 368 316 348 321 c 4
 334 325 310 326 271 326 c 6
 213 326 l 6
 183 326 180 325 180 299 c 6
 180 158 l 6
 180 105 183 71 199 54 c 4
 211 42 232 31 320 31 c 4
 397 31 426 35 448 46 c 4
 466 56 493 91 519 143 c 5
 526 148 540 145 544 136 c 5
 537 101 512 24 499 -3 c 5
 409 -1 320 0 231 0 c 6
 141 0 l 6x3d
 98 0 64 -1 5 -3 c 5x9d
 -1 0 -3 16 3 22 c 5
 36 25 l 6x5d
 93 30 98 45 98 150 c 6x3d
EndSplineSet
Fore
SplineSet
1000 -84 m 2
 1000 -174 971 -212 881 -212 c 2
 249 -212 l 2
 159 -212 120 -174 120 -84 c 2
 120 625 l 2
 120 708 168 754 249 754 c 2
 851 754 l 2
 941 754 1000 715 1000 625 c 2
 1000 -84 l 2
249 718 m 2
 189 718 156 685 156 625 c 2
 156 -53 l 2
 156 -113 189 -136 249 -136 c 2
 821 -136 l 2
 881 -136 904 -113 904 -53 c 2
 904 625 l 2
 904 685 881 718 821 718 c 2
 249 718 l 2
453 191 m 2
 453 178 454 106 459 88 c 1
 560 88 671 97 671 97 c 1
 672 94 l 1
 672 88 671 75 671 68 c 0
 671 60 672 51 672 41 c 1
 671 38 l 1
 659 40 642 41 626 41 c 2
 405 41 l 2
 379 41 350 38 350 38 c 1
 350 41 l 1
 356 81 357 134 357 191 c 2
 357 374 l 2
 357 431 356 482 350 524 c 1
 351 527 l 1
 351 527 380 524 405 524 c 0
 428 524 618 524 618 524 c 2
 634 524 651 525 663 527 c 1
 665 524 l 1
 664 514 663 504 663 498 c 0
 663 491 664 481 665 475 c 1
 663 472 l 1
 663 472 560 481 459 481 c 1
 454 463 453 387 453 374 c 2
 453 316 l 1
 542 316 576 320 620 323 c 1
 623 321 l 1
 621 314 620 304 620 297 c 0
 620 290 621 279 623 272 c 1
 620 270 l 1
 569 275 489 278 453 278 c 1
 453 191 l 2
EndSplineSet
Position2: "'cpsp' Versalabstaende 1" dx=2 dy=0 dh=4 dv=0
Substitution2: "'c2sc' Versale nach Kapitaelchen 1" e.sc
EndChar

StartChar: F
Encoding: 70 70 29
Width: 1100
VWidth: 999
Flags: HW
HStem: -212 76<179.2 885.174> 278 38<454 618.588> 472 21G<460 666> 481 43<457.105 663.434> 718 36<188.821 875.472>
VStem: 120 36<-107.953 686.051> 358 96<42.9753 278 316 479.855> 904 96<-118.923 694.8>
LayerCount: 3
Fore
SplineSet
1000 -84 m 2
 1000 -174 971 -212 881 -212 c 2
 249 -212 l 2
 159 -212 120 -174 120 -84 c 2
 120 625 l 2
 120 708 168 754 249 754 c 2
 851 754 l 2
 941 754 1000 715 1000 625 c 2
 1000 -84 l 2
249 718 m 2
 189 718 156 685 156 625 c 2
 156 -53 l 2
 156 -113 189 -136 249 -136 c 2
 821 -136 l 2
 881 -136 904 -113 904 -53 c 2
 904 625 l 2
 904 685 881 718 821 718 c 2
 249 718 l 2
617 524 m 2
 635 524 652 525 664 527 c 1
 666 524 l 1
 665 514 664 504 664 498 c 0
 664 491 665 481 666 475 c 1
 664 472 l 1
 664 472 560 481 460 481 c 1
 455 463 454 387 454 374 c 2
 454 316 l 1
 542 316 577 320 621 323 c 1
 624 321 l 1
 622 314 621 304 621 297 c 0
 621 290 622 279 624 272 c 1
 621 270 l 1
 570 275 490 278 454 278 c 1
 454 191 l 2
 454 134 456 83 462 41 c 1
 460 38 l 1
 460 38 432 41 406 41 c 0
 380 41 351 38 351 38 c 1
 350 41 l 1
 356 81 358 134 358 191 c 2
 358 374 l 2
 358 431 356 482 350 524 c 1
 352 527 l 1
 352 527 380 524 406 524 c 2
 617 524 l 2
EndSplineSet
Position2: "'cpsp' Versalabstaende 1" dx=2 dy=0 dh=4 dv=0
Substitution2: "'c2sc' Versale nach Kapitaelchen 1" f.sc
EndChar

StartChar: G
Encoding: 71 71 30
Width: 1100
VWidth: 999
Flags: HW
HStem: -212 46<169.359 930.641> 74 41<489.075 658.576> 440 21G<703.5 727> 532 42<470.668 642.78> 708 46<168.938 931.062>
VStem: 120 46<-162.981 705.906> 284 108<219.789 411.607> 669 96<143.284 308.984> 934 46<-162.981 705.906>
LayerCount: 3
Back
SplineSet
593.262 612.793 m 5
 596.309 558.179 605.469 509.766 615.234 458.496 c 5
 584.961 453.613 l 5
 559.082 539.551 501.465 621.094 362.793 621.094 c 4
EndSplineSet
Fore
SplineSet
1000 -84 m 2
 1000 -174 971 -212 881 -212 c 2
 249 -212 l 2
 159 -212 120 -174 120 -84 c 2
 120 625 l 2
 120 708 168 754 249 754 c 2
 851 754 l 2
 941 754 1000 715 1000 625 c 2
 1000 -84 l 2
249 718 m 2
 189 718 156 685 156 625 c 2
 156 -53 l 2
 156 -113 189 -136 249 -136 c 2
 821 -136 l 2
 881 -136 904 -113 904 -53 c 2
 904 625 l 2
 904 685 881 718 821 718 c 2
 249 718 l 2
669 129 m 2
 669 185 668 228 662 271 c 1
 663 274 l 1
 663 274 692 271 717 271 c 0
 743 271 772 274 772 274 c 1
 772 271 l 1
 766 232 765 200 765 144 c 0
 765 119 768 109 772 103 c 1
 772 101 l 1
 722 59 645 34 557 34 c 0
 406 34 284 142 284 271 c 0
 284 436 432 534 561 534 c 0
 652 534 740 501 740 501 c 1
 742 498 l 1
 733 462 729 439 727 401 c 1
 719 400 l 1
 688 462 618 492 550 492 c 0
 449 492 392 418 392 286 c 0
 392 187 441 75 574 75 c 0
 615 75 644 79 669 103 c 1
 669 129 l 2
EndSplineSet
Position2: "'cpsp' Versalabstaende 1" dx=2 dy=0 dh=4 dv=0
Substitution2: "'c2sc' Versale nach Kapitaelchen 1" g.sc
EndChar

StartChar: grave
Encoding: 96 96 31
Width: 1100
VWidth: 999
Flags: HW
LayerCount: 3
Fore
SplineSet
1000 -84 m 2
 1000 -174 971 -212 881 -212 c 2
 249 -212 l 2
 159 -212 120 -174 120 -84 c 2
 120 625 l 2
 120 708 168 754 249 754 c 2
 851 754 l 2
 941 754 1000 715 1000 625 c 2
 1000 -84 l 2
249 718 m 2
 189 718 156 685 156 625 c 2
 156 -53 l 2
 156 -113 189 -136 249 -136 c 2
 821 -136 l 2
 881 -136 904 -113 904 -53 c 2
 904 625 l 2
 904 685 881 718 821 718 c 2
 249 718 l 2
532 513 m 1
 584 421 l 2
 587 415 590 407 590 401 c 0
 590 394 584 389 578 389 c 0
 572 389 564 393 551 404 c 2
 461 483 l 1
 462 491 l 1
 468 498 490 515 517 515 c 0
 521 515 529 514 532 513 c 1
EndSplineSet
Substitution2: "'case' Versalformen 1" grave.cap
Colour: ff00ff
EndChar

StartChar: ograve
Encoding: 242 242 32
Width: 1100
VWidth: 999
Flags: HW
HStem: 83 38<499 588> 382 38<487 583>
VStem: 363 96<174 323> 616 96<180 328>
LayerCount: 3
Back
SplineSet
-90.8203 672.852 m 5
 528.32 672.852 l 5
 528.32 510.254 l 5
 -90.8203 510.254 l 5
 -90.8203 672.852 l 5
EndSplineSet
Fore
SplineSet
1000 -84 m 2
 1000 -174 971 -212 881 -212 c 2
 249 -212 l 2
 159 -212 120 -174 120 -84 c 2
 120 625 l 2
 120 708 168 754 249 754 c 2
 851 754 l 2
 941 754 1000 715 1000 625 c 2
 1000 -84 l 2
249 718 m 2
 189 718 156 685 156 625 c 2
 156 -53 l 2
 156 -113 189 -136 249 -136 c 2
 821 -136 l 2
 881 -136 904 -113 904 -53 c 2
 904 625 l 2
 904 685 881 718 821 718 c 2
 249 718 l 2
530 335 m 0
 466 335 459 280 459 215 c 0
 459 157 466 74 544 74 c 0
 578 74 609 98 609 184 c 0
 609 288 594 335 530 335 c 0
363 197 m 0
 363 300 428 373 536 373 c 0
 662 373 705 282 705 204 c 0
 705 124 649 36 534 36 c 0
 422 36 363 115 363 197 c 0
544.7 588.1 m 1
 601.8 486.9 l 2
 605.1 480.3 608.5 471.5 608.5 464.9 c 0
 608.5 457.2 601.8 451.7 595.2 451.7 c 0
 588.6 451.7 579.8 456.1 565.5 468.2 c 2
 466.5 555.1 l 1
 467.7 563.9 l 1
 474.3 571.6 498.5 590.3 528.2 590.3 c 0
 532.6 590.3 541.4 589.2 544.7 588.1 c 1
EndSplineSet
Substitution2: "'smcp' Gemeine nach Kapitaelchen 1" ograve.sc
AlternateSubs2: "'aalt' Alle Alternativen zeigen 1" ograve.sc
Colour: ff00ff
EndChar

StartChar: oacute
Encoding: 243 243 33
Width: 1100
VWidth: 999
Flags: HW
HStem: 83 38<499 588> 382 38<487 583>
VStem: 363 96<174 323> 616 96<180 328>
LayerCount: 3
Back
SplineSet
-90.8203 672.852 m 5
 528.32 672.852 l 5
 528.32 510.254 l 5
 -90.8203 510.254 l 5
 -90.8203 672.852 l 5
EndSplineSet
Fore
SplineSet
1000 -84 m 2
 1000 -174 971 -212 881 -212 c 2
 249 -212 l 2
 159 -212 120 -174 120 -84 c 2
 120 625 l 2
 120 708 168 754 249 754 c 2
 851 754 l 2
 941 754 1000 715 1000 625 c 2
 1000 -84 l 2
249 718 m 2
 189 718 156 685 156 625 c 2
 156 -53 l 2
 156 -113 189 -136 249 -136 c 2
 821 -136 l 2
 881 -136 904 -113 904 -53 c 2
 904 625 l 2
 904 685 881 718 821 718 c 2
 249 718 l 2
530 335 m 0
 466 335 459 280 459 215 c 0
 459 157 466 74 544 74 c 0
 578 74 609 98 609 184 c 0
 609 288 594 335 530 335 c 0
363 197 m 0
 363 300 428 373 536 373 c 0
 662 373 705 282 705 204 c 0
 705 124 649 36 534 36 c 0
 422 36 363 115 363 197 c 0
533.3 578.2 m 1
 535.5 579.3 542.1 580.5 546.5 580.5 c 0
 571.8 580.5 587.2 568.4 593.8 560.7 c 1
 601.5 540.8 l 1
 502.5 451.8 l 2
 491.5 441.9 479.4 438.5 471.7 438.5 c 0
 465.1 438.5 458.5 445.2 458.5 450.7 c 0
 458.5 455.1 459.6 462.8 465.1 470.5 c 2
 533.3 578.2 l 1
EndSplineSet
Substitution2: "'smcp' Gemeine nach Kapitaelchen 1" oacute.sc
AlternateSubs2: "'aalt' Alle Alternativen zeigen 1" oacute.sc
Colour: ff00ff
EndChar

StartChar: ocircumflex
Encoding: 244 244 34
Width: 1100
VWidth: 999
Flags: HW
HStem: 79 38<499 588> 379 38<487 583>
VStem: 363 96<171 320> 430 190<475 475> 616 96<176 324>
LayerCount: 3
Back
SplineSet
151.855 645.508 m 1
 180.664 598.633 217.285 555.664 252.93 515.625 c 1
 232.422 502.441 l 1
 193.359 531.25 159.668 556.152 125.977 592.285 c 1
 88.8672 554.199 56.1523 529.297 19.043 502.441 c 1
 -0.488281 515.625 l 1
 34.668 555.176 72.7539 599.609 102.051 645.508 c 1
 151.855 645.508 l 1
-90.5762 664.062 m 1
 528.076 664.062 l 1
 528.076 500.732 l 1
 -90.5762 500.732 l 1
 -90.5762 664.062 l 1
EndSplineSet
Fore
SplineSet
1000 -84 m 2
 1000 -174 971 -212 881 -212 c 2
 249 -212 l 2
 159 -212 120 -174 120 -84 c 2
 120 625 l 2
 120 708 168 754 249 754 c 2
 851 754 l 2
 941 754 1000 715 1000 625 c 2
 1000 -84 l 2
249 718 m 2
 189 718 156 685 156 625 c 2
 156 -53 l 2
 156 -113 189 -136 249 -136 c 2
 821 -136 l 2
 881 -136 904 -113 904 -53 c 2
 904 625 l 2
 904 685 881 718 821 718 c 2
 249 718 l 2
530 335 m 0
 466 335 459 280 459 215 c 0
 459 157 466 74 544 74 c 0
 578 74 609 98 609 184 c 0
 609 288 594 335 530 335 c 0
363 197 m 0
 363 300 428 373 536 373 c 0
 662 373 705 282 705 204 c 0
 705 124 649 36 534 36 c 0
 422 36 363 115 363 197 c 0
548 548.8 m 1
 573.3 508.1 604 471.8 634.8 437.7 c 1
 614 422.2 l 1
 578.8 444.2 554.6 460.8 526 490.5 c 1
 495.2 458.6 472 444.2 439 422.2 c 1
 418.2 437.7 l 1
 447.9 471.8 480.8 509.2 505 548.8 c 1
 548 548.8 l 1
EndSplineSet
Substitution2: "'smcp' Gemeine nach Kapitaelchen 1" ocircumflex.sc
AlternateSubs2: "'aalt' Alle Alternativen zeigen 1" ocircumflex.sc
Colour: ff00ff
EndChar

StartChar: otilde
Encoding: 245 245 35
Width: 1100
VWidth: 999
Flags: HW
HStem: 77 38<499 588> 376 38<487 583> 479 33<533 598> 515 34<445 513> 544 8
VStem: 363 96<168 317> 616 96<174 322>
LayerCount: 3
Back
SplineSet
-87.8906 622.07 m 5
 531.25 622.07 l 5
 531.25 525.391 l 5
 -87.8906 525.391 l 5
 -87.8906 622.07 l 5
EndSplineSet
Fore
SplineSet
1000 -84 m 2
 1000 -174 971 -212 881 -212 c 2
 249 -212 l 2
 159 -212 120 -174 120 -84 c 2
 120 625 l 2
 120 708 168 754 249 754 c 2
 851 754 l 2
 941 754 1000 715 1000 625 c 2
 1000 -84 l 2
249 718 m 2
 189 718 156 685 156 625 c 2
 156 -53 l 2
 156 -113 189 -136 249 -136 c 2
 821 -136 l 2
 881 -136 904 -113 904 -53 c 2
 904 625 l 2
 904 685 881 718 821 718 c 2
 249 718 l 2
530 335 m 0
 466 335 459 280 459 215 c 0
 459 157 466 74 544 74 c 0
 578 74 609 98 609 184 c 0
 609 288 594 335 530 335 c 0
363 197 m 0
 363 300 428 373 536 373 c 0
 662 373 705 282 705 204 c 0
 705 124 649 36 534 36 c 0
 422 36 363 115 363 197 c 0
578 486.1 m 0
 596.7 486.1 606.7 492.7 618.8 533.4 c 1
 641.8 525.7 l 1
 630.8 469.6 606.6 436.6 567 436.6 c 0
 547.2 436.6 529.7 448.7 513.2 460.8 c 0
 496.7 471.8 480.2 482.8 464.8 482.8 c 0
 442.8 482.8 434 470.7 425.2 438.8 c 1
 403.2 445.4 l 1
 415.3 501.5 435 532.3 471.3 532.3 c 0
 497.7 532.3 516.5 519.1 533 505.9 c 0
 547.3 494.9 561.5 486.1 578 486.1 c 0
EndSplineSet
Substitution2: "'smcp' Gemeine nach Kapitaelchen 1" otilde.sc
AlternateSubs2: "'aalt' Alle Alternativen zeigen 1" otilde.sc
Colour: ff00ff
EndChar

StartChar: odieresis
Encoding: 246 246 36
Width: 1100
VWidth: 999
Flags: HW
HStem: 75 38<499 588> 374 38<487 583> 478 69<436 494 556 614>
VStem: 363 96<166 315> 430 69<483 541> 550 69<483 541> 616 96<172 320>
LayerCount: 3
Back
SplineSet
-90.8203 617.676 m 5
 528.32 617.676 l 5
 528.32 526.855 l 5
 -90.8203 526.855 l 5
 -90.8203 617.676 l 5
EndSplineSet
Fore
SplineSet
1000 -84 m 2
 1000 -174 971 -212 881 -212 c 2
 249 -212 l 2
 159 -212 120 -174 120 -84 c 2
 120 625 l 2
 120 708 168 754 249 754 c 2
 851 754 l 2
 941 754 1000 715 1000 625 c 2
 1000 -84 l 2
249 718 m 2
 189 718 156 685 156 625 c 2
 156 -53 l 2
 156 -113 189 -136 249 -136 c 2
 821 -136 l 2
 881 -136 904 -113 904 -53 c 2
 904 625 l 2
 904 685 881 718 821 718 c 2
 249 718 l 2
530 335 m 0
 466 335 459 280 459 215 c 0
 459 157 466 74 544 74 c 0
 578 74 609 98 609 184 c 0
 609 288 594 335 530 335 c 0
363 197 m 0
 363 300 428 373 536 373 c 0
 662 373 705 282 705 204 c 0
 705 124 649 36 534 36 c 0
 422 36 363 115 363 197 c 0
407.2 501 m 0
 407.2 526.3 428 546 452.2 546 c 0
 476.4 546 496.2 526.3 496.2 501 c 0
 496.2 476.8 476.4 457 452.2 457 c 0
 428 457 407.2 476.8 407.2 501 c 0
556.8 501 m 0
 556.8 526.3 576.6 546 600.8 546 c 0
 625 546 645.8 526.3 645.8 501 c 0
 645.8 476.8 625 457 600.8 457 c 0
 576.6 457 556.8 476.8 556.8 501 c 0
EndSplineSet
Substitution2: "'smcp' Gemeine nach Kapitaelchen 1" odieresis.sc
AlternateSubs2: "'aalt' Alle Alternativen zeigen 1" odieresis.sc
Colour: ff00ff
EndChar

StartChar: divide
Encoding: 247 247 37
Width: 527
VWidth: 999
Flags: HW
HStem: -212 76<-60.7998 645.174> 60 86<238.182 303.644> 190 59<100 427> 285 86<238.746 303.104> 718 36<-51.179 635.472>
VStem: -120 36<-107.953 686.051> 227 87<69.334 134.346 294.018 359.029> 664 96<-118.923 694.8>
LayerCount: 3
Back
SplineSet
-58.1055 256.836 m 29
 565.43 256.836 l 29
0 572.012 m 5
 527.344 572.012 l 5
 527.344 0 l 5
 0 0 l 5
 0 572.012 l 5
EndSplineSet
Fore
SplineSet
760 -84 m 2
 760 -174 731 -212 641 -212 c 2
 9 -212 l 2
 -81 -212 -120 -174 -120 -84 c 2
 -120 625 l 2
 -120 708 -72 754 9 754 c 2
 611 754 l 2
 701 754 760 715 760 625 c 2
 760 -84 l 2
9 718 m 2
 -51 718 -84 685 -84 625 c 2
 -84 -53 l 2
 -84 -113 -51 -136 9 -136 c 2
 581 -136 l 2
 641 -136 664 -113 664 -53 c 2
 664 625 l 2
 664 685 641 718 581 718 c 2
 9 718 l 2
427 248 m 1
 427 191 l 1
 100 191 l 1
 100 248 l 1
 427 248 l 1
227 102 m 1
 227 105 l 1
 235 125 247 137 270 146 c 1
 272 146 l 1
 294 138 306 127 314 105 c 1
 314 102 l 1
 305 77 294 66 272 60 c 1
 270 60 l 1
 245 66 234 77 227 102 c 1
227 326 m 1
 227 329 l 1
 235 349 247 362 270 371 c 1
 272 371 l 1
 294 363 306 351 314 329 c 1
 314 326 l 1
 305 301 294 291 272 285 c 1
 270 285 l 1
 245 291 234 301 227 326 c 1
EndSplineSet
Colour: ff00ff
EndChar

StartChar: ugrave
Encoding: 249 249 38
Width: 1100
VWidth: 999
Flags: HW
HStem: -212 76<179.2 885.174> 35 48<474.899 551.764> 718 36<188.821 875.472>
VStem: 120 36<-107.953 686.051> 375 89<92.9125 362.036> 588 89<115.094 362.036> 904 96<-118.923 694.8>
LayerCount: 3
Back
SplineSet
-90.8203 672.852 m 5
 528.32 672.852 l 5
 528.32 510.254 l 5
 -90.8203 510.254 l 5
 -90.8203 672.852 l 5
EndSplineSet
Fore
SplineSet
1000 -84 m 2
 1000 -174 971 -212 881 -212 c 2
 249 -212 l 2
 159 -212 120 -174 120 -84 c 2
 120 625 l 2
 120 708 168 754 249 754 c 2
 851 754 l 2
 941 754 1000 715 1000 625 c 2
 1000 -84 l 2
249 718 m 2
 189 718 156 685 156 625 c 2
 156 -53 l 2
 156 -113 189 -136 249 -136 c 2
 821 -136 l 2
 881 -136 904 -113 904 -53 c 2
 904 625 l 2
 904 685 881 718 821 718 c 2
 249 718 l 2
588 91 m 1
 546 46 523 35 492 35 c 0
 418 35 375 86 375 137 c 2
 375 230 l 2
 375 286 374 322 368 364 c 1
 369 367 l 1
 369 367 394 364 419 364 c 0
 446 364 470 367 470 367 c 1
 471 364 l 1
 464 325 464 286 464 230 c 2
 464 162 l 2
 464 95 489 83 512 83 c 0
 545 83 569 116 588 139 c 1
 588 230 l 2
 588 286 587 322 581 364 c 1
 582 367 l 1
 582 367 607 364 632 364 c 0
 659 364 683 367 683 367 c 1
 684 364 l 1
 677 325 677 286 677 230 c 2
 677 187 l 2
 677 130 683 75 689 43 c 1
 688 40 l 1
 678 42 650 43 640 43 c 0
 629 43 610 42 600 40 c 0
 596 40 593 41 593 43 c 2
 590 91 l 1
 588 91 l 1
510.7 588.1 m 1
 567.8 486.9 l 2
 571.1 480.3 574.5 471.5 574.5 464.9 c 0
 574.5 457.2 567.8 451.7 561.2 451.7 c 0
 554.6 451.7 545.8 456.1 531.5 468.2 c 2
 432.5 555.1 l 1
 433.7 563.9 l 1
 440.3 571.6 464.5 590.3 494.2 590.3 c 0
 498.6 590.3 507.4 589.2 510.7 588.1 c 1
EndSplineSet
Substitution2: "'smcp' Gemeine nach Kapitaelchen 1" ugrave.sc
AlternateSubs2: "'aalt' Alle Alternativen zeigen 1" ugrave.sc
Colour: ff00ff
EndChar

StartChar: uacute
Encoding: 250 250 39
Width: 1100
VWidth: 999
Flags: HW
HStem: 83 48<482 557> 88 16<613 620 698 704> 399 15<368 419 419 471 596 647 647 699>
VStem: 375 88<149 410> 603 88<170 410>
LayerCount: 3
Back
SplineSet
-90.8203 672.852 m 5
 528.32 672.852 l 5
 528.32 510.254 l 5
 -90.8203 510.254 l 5
 -90.8203 672.852 l 5
EndSplineSet
Fore
SplineSet
1000 -84 m 2
 1000 -174 971 -212 881 -212 c 2
 249 -212 l 2
 159 -212 120 -174 120 -84 c 2
 120 625 l 2
 120 708 168 754 249 754 c 2
 851 754 l 2
 941 754 1000 715 1000 625 c 2
 1000 -84 l 2
249 718 m 2
 189 718 156 685 156 625 c 2
 156 -53 l 2
 156 -113 189 -136 249 -136 c 2
 821 -136 l 2
 881 -136 904 -113 904 -53 c 2
 904 625 l 2
 904 685 881 718 821 718 c 2
 249 718 l 2
588 91 m 1
 546 46 523 35 492 35 c 0
 418 35 375 86 375 137 c 2
 375 230 l 2
 375 286 374 322 368 364 c 1
 369 367 l 1
 369 367 394 364 419 364 c 0
 446 364 470 367 470 367 c 1
 471 364 l 1
 464 325 464 286 464 230 c 2
 464 162 l 2
 464 95 489 83 512 83 c 0
 545 83 569 116 588 139 c 1
 588 230 l 2
 588 286 587 322 581 364 c 1
 582 367 l 1
 582 367 607 364 632 364 c 0
 659 364 683 367 683 367 c 1
 684 364 l 1
 677 325 677 286 677 230 c 2
 677 187 l 2
 677 130 683 75 689 43 c 1
 688 40 l 1
 678 42 650 43 640 43 c 0
 629 43 610 42 600 40 c 0
 596 40 593 41 593 43 c 2
 590 91 l 1
 588 91 l 1
523.3 578.2 m 1
 525.5 579.3 532.1 580.5 536.5 580.5 c 0
 561.8 580.5 577.2 568.4 583.8 560.7 c 1
 591.5 540.8 l 1
 492.5 451.8 l 2
 481.5 441.9 469.4 438.5 461.7 438.5 c 0
 455.1 438.5 448.5 445.2 448.5 450.7 c 0
 448.5 455.1 449.6 462.8 455.1 470.5 c 2
 523.3 578.2 l 1
EndSplineSet
Substitution2: "'smcp' Gemeine nach Kapitaelchen 1" uacute.sc
AlternateSubs2: "'aalt' Alle Alternativen zeigen 1" uacute.sc
Colour: ff00ff
EndChar

StartChar: ucircumflex
Encoding: 251 251 40
Width: 1100
VWidth: 999
Flags: HW
HStem: 79 48<482 557> 84 16<613 620 698 704> 396 15<368 419 419 471 596 647 647 699>
VStem: 375 88<146 407> 409 190<474 474> 603 88<167 407>
LayerCount: 3
Fore
SplineSet
1000 -84 m 2
 1000 -174 971 -212 881 -212 c 2
 249 -212 l 2
 159 -212 120 -174 120 -84 c 2
 120 625 l 2
 120 708 168 754 249 754 c 2
 851 754 l 2
 941 754 1000 715 1000 625 c 2
 1000 -84 l 2
249 718 m 2
 189 718 156 685 156 625 c 2
 156 -53 l 2
 156 -113 189 -136 249 -136 c 2
 821 -136 l 2
 881 -136 904 -113 904 -53 c 2
 904 625 l 2
 904 685 881 718 821 718 c 2
 249 718 l 2
588 91 m 1
 546 46 523 35 492 35 c 0
 418 35 375 86 375 137 c 2
 375 230 l 2
 375 286 374 322 368 364 c 1
 369 367 l 1
 369 367 394 364 419 364 c 0
 446 364 470 367 470 367 c 1
 471 364 l 1
 464 325 464 286 464 230 c 2
 464 162 l 2
 464 95 489 83 512 83 c 0
 545 83 569 116 588 139 c 1
 588 230 l 2
 588 286 587 322 581 364 c 1
 582 367 l 1
 582 367 607 364 632 364 c 0
 659 364 683 367 683 367 c 1
 684 364 l 1
 677 325 677 286 677 230 c 2
 677 187 l 2
 677 130 683 75 689 43 c 1
 688 40 l 1
 678 42 650 43 640 43 c 0
 629 43 610 42 600 40 c 0
 596 40 593 41 593 43 c 2
 590 91 l 1
 588 91 l 1
543 548.8 m 1
 568.3 508.1 599 471.8 629.8 437.7 c 1
 609 422.2 l 1
 573.8 444.2 549.6 460.8 521 490.5 c 1
 490.2 458.6 467 444.2 434 422.2 c 1
 413.2 437.7 l 1
 442.9 471.8 475.8 509.2 500 548.8 c 1
 543 548.8 l 1
EndSplineSet
Substitution2: "'smcp' Gemeine nach Kapitaelchen 1" ucircumflex.sc
AlternateSubs2: "'aalt' Alle Alternativen zeigen 1" ucircumflex.sc
Colour: ff00ff
EndChar

StartChar: ebreve
Encoding: 277 277 41
Width: 1100
VWidth: 999
Flags: HW
HStem: 80 51<506 621> 270 33<463 588> 380 37<495 574> 463 43<460 563>
VStem: 366 94<183 270 303 312> 411 20<543 567> 588 95<278 344> 593 20<544 567>
LayerCount: 3
Fore
SplineSet
1000 -84 m 2
 1000 -174 971 -212 881 -212 c 2
 249 -212 l 2
 159 -212 120 -174 120 -84 c 2
 120 625 l 2
 120 708 168 754 249 754 c 2
 851 754 l 2
 941 754 1000 715 1000 625 c 2
 1000 -84 l 2
249 718 m 2
 189 718 156 685 156 625 c 2
 156 -53 l 2
 156 -113 189 -136 249 -136 c 2
 821 -136 l 2
 881 -136 904 -113 904 -53 c 2
 904 625 l 2
 904 685 881 718 821 718 c 2
 249 718 l 2
666 129 m 1
 677 123 682 114 682 103 c 1
 653 64 597 36 543 36 c 0
 431 36 366 107 366 193 c 0
 366 307 463 373 534 373 c 0
 634 373 676 302 676 239 c 0
 676 230 671 226 663 226 c 2
 461 226 l 1
 461 120 515 87 558 87 c 0
 599 87 640 101 666 129 c 1
463 259 m 1
 570 259 l 2
 578 259 581 263 581 269 c 0
 581 323 562 336 534 336 c 0
 517 336 474 326 463 259 c 1
413 560 m 1
 414 520 446 490 494 490 c 0
 529 490 572 512 574 560 c 1
 598 539 l 1
 590 460 532 432 494 432 c 0
 433 432 393 478 388 539 c 1
 413 560 l 1
EndSplineSet
Colour: ff00ff
EndChar

StartChar: Edotaccent
Encoding: 278 278 42
Width: 1100
VWidth: 999
Flags: HW
HStem: 115 47<457 630> 352 38<453 616> 546 16<459 665> 555 44<457 625> 640 104<472 547>
VStem: 357 96<163 352 390 554> 458 104<655 730>
LayerCount: 3
Fore
SplineSet
1000 -84 m 2
 1000 -174 971 -212 881 -212 c 2
 249 -212 l 2
 159 -212 120 -174 120 -84 c 2
 120 625 l 2
 120 708 168 754 249 754 c 2
 344.3 754 l 1
 351.6 773.6 370.5 788 393 788 c 0
 415.5 788 434.4 773.6 441.7 754 c 1
 851 754 l 2
 941 754 1000 715 1000 625 c 2
 1000 -84 l 2
249 718 m 2
 189 718 156 685 156 625 c 2
 156 -53 l 2
 156 -113 189 -136 249 -136 c 2
 821 -136 l 2
 881 -136 904 -113 904 -53 c 2
 904 625 l 2
 904 685 881 718 821 718 c 2
 441.7 718 l 1
 434.4 698.4 415.5 684 393 684 c 0
 370.5 684 351.6 698.4 344.3 718 c 1
 249 718 l 2
453 191 m 2
 453 178 454 106 459 88 c 1
 560 88 671 97 671 97 c 1
 672 94 l 1
 672 88 671 75 671 68 c 0
 671 60 672 51 672 41 c 1
 671 38 l 1
 659 40 642 41 626 41 c 2
 405 41 l 2
 379 41 350 38 350 38 c 1
 350 41 l 1
 356 81 357 134 357 191 c 2
 357 374 l 2
 357 431 356 482 350 524 c 1
 351 527 l 1
 351 527 380 524 405 524 c 0
 428 524 618 524 618 524 c 2
 634 524 651 525 663 527 c 1
 665 524 l 1
 664 514 663 504 663 498 c 0
 663 491 664 481 665 475 c 1
 663 472 l 1
 663 472 560 481 459 481 c 1
 454 463 453 387 453 374 c 2
 453 316 l 1
 542 316 576 320 620 323 c 1
 623 321 l 1
 621 314 620 304 620 297 c 0
 620 290 621 279 623 272 c 1
 620 270 l 1
 569 275 489 278 453 278 c 1
 453 191 l 2
EndSplineSet
Position2: "'cpsp' Versalabstaende 1" dx=2 dy=0 dh=4 dv=0
Colour: ff00ff
EndChar

StartChar: edotaccent
Encoding: 279 279 43
Width: 1100
VWidth: 999
Flags: HW
HStem: 82 51<506 621> 272 33<463 588> 382 37<495 574> 488 104<490 565>
VStem: 366 94<185 272 305 314> 476 104<503 578> 588 95<280 346>
LayerCount: 3
Back
SplineSet
-98.3887 618.652 m 5
 520.264 618.652 l 5
 520.508 522.949 l 5
 -98.6328 522.949 l 5
 -98.3887 618.652 l 5
510.742 502.441 m 5
 481.934 549.316 444.336 594.727 409.668 632.324 c 5
 430.176 645.508 l 5
 469.238 616.699 501.465 591.309 535.645 555.176 c 5
 572.754 593.262 606.445 618.652 643.555 645.508 c 5
 662.598 632.324 l 5
 627.93 592.773 589.844 548.34 560.547 502.441 c 5
 510.742 502.441 l 5
-210.449 647.949 m 5
 -208.496 596.68 -162.109 556.152 -101.562 556.152 c 4
 -55.6641 556.152 3.90625 585.938 6.34766 647.949 c 5
 32.7148 634.277 l 5
 22.9492 533.691 -51.7578 499.023 -101.562 499.023 c 4
 -179.199 499.023 -229.98 556.641 -237.305 634.277 c 5
 -210.449 647.949 l 5
144.043 645.508 m 5
 172.852 598.633 209.473 555.664 245.117 515.625 c 5
 224.609 502.441 l 5
 185.547 531.25 151.855 556.152 118.164 592.285 c 5
 81.0547 554.199 48.3398 529.297 11.2305 502.441 c 5
 -8.30078 515.625 l 5
 26.8555 555.176 64.9414 599.609 94.2383 645.508 c 5
 144.043 645.508 l 5
-98.3887 664.062 m 5
 520.264 664.062 l 5
 520.264 500.732 l 5
 -98.3887 500.732 l 5
 -98.3887 664.062 l 5
438.477 662.598 m 21
 441.895 664.062 448.242 665.039 453.125 665.039 c 4
 481.123 665.039 493.569 654.214 501.953 646.704 c 4
 504.258 644.639 506.309 642.856 508.301 641.602 c 5
 510.742 630.859 l 5
 395.996 521.973 l 6
 380.371 507.324 373.535 502.441 367.188 502.441 c 4
 359.375 502.441 352.539 507.974 352.539 514.487 c 4
 352.539 519.858 352.631 527.246 358.887 537.109 c 6
 438.477 662.598 l 21
-98.3887 616.211 m 5
 520.264 616.211 l 5
 520.508 525.391 l 5
 -98.6328 525.391 l 5
 -98.3887 616.211 l 5
80.0781 570.801 m 4
 80.0781 595.703 100.586 616.211 125.488 616.211 c 4
 150.391 616.211 170.898 595.703 170.898 570.801 c 4
 170.898 545.898 150.391 525.391 125.488 525.391 c 4
 100.586 525.391 80.0781 545.898 80.0781 570.801 c 4
240.723 570.801 m 4
 240.723 595.703 261.23 616.211 286.133 616.211 c 4
 311.035 616.211 331.543 595.703 331.543 570.801 c 4
 331.543 545.898 311.035 525.391 286.133 525.391 c 4
 261.23 525.391 240.723 545.898 240.723 570.801 c 4
EndSplineSet
Fore
SplineSet
1000 -84 m 2
 1000 -174 971 -212 881 -212 c 2
 249 -212 l 2
 159 -212 120 -174 120 -84 c 2
 120 625 l 2
 120 708 168 754 249 754 c 2
 851 754 l 2
 941 754 1000 715 1000 625 c 2
 1000 -84 l 2
249 718 m 2
 189 718 156 685 156 625 c 2
 156 -53 l 2
 156 -113 189 -136 249 -136 c 2
 821 -136 l 2
 881 -136 904 -113 904 -53 c 2
 904 625 l 2
 904 685 881 718 821 718 c 2
 249 718 l 2
666 129 m 1
 677 123 682 114 682 103 c 1
 653 64 597 36 543 36 c 0
 431 36 366 107 366 193 c 0
 366 307 463 373 534 373 c 0
 634 373 676 302 676 239 c 0
 676 230 671 226 663 226 c 2
 461 226 l 1
 461 120 515 87 558 87 c 0
 599 87 640 101 666 129 c 1
463 259 m 1
 570 259 l 2
 578 259 581 263 581 269 c 0
 581 323 562 336 534 336 c 0
 517 336 474 326 463 259 c 1
374 609 m 0
 374 637 397 661 426 661 c 0
 455 661 478 637 478 609 c 0
 478 581 455 557 426 557 c 0
 397 557 374 581 374 609 c 0
EndSplineSet
Colour: ff00ff
EndChar

StartChar: Eogonek
Encoding: 280 280 44
Width: 1100
VWidth: 999
Flags: HW
HStem: -125 29<529 592> 43 19<581 608> 43 47<457 630> 280 38<453 616> 474 16<459 665> 483 44<457 625>
VStem: 357 96<91 280 318 482> 474 45<-87 -13>
LayerCount: 3
Fore
SplineSet
1000 -84 m 2
 1000 -174 971 -212 881 -212 c 2
 249 -212 l 2
 159 -212 120 -174 120 -84 c 2
 120 625 l 2
 120 708 168 754 249 754 c 2
 851 754 l 2
 941 754 1000 715 1000 625 c 2
 1000 -84 l 2
249 718 m 2
 189 718 156 685 156 625 c 2
 156 -53 l 2
 156 -113 189 -136 249 -136 c 2
 821 -136 l 2
 881 -136 904 -113 904 -53 c 2
 904 625 l 2
 904 685 881 718 821 718 c 2
 249 718 l 2
543 -125 m 0
 504 -125 474 -102 474 -61 c 0
 474 -26.8 502.4 15.5 545.5 41 c 1
 405 41 l 2
 379 41 350 38 350 38 c 1
 350 41 l 1
 356 81 357 134 357 191 c 2
 357 374 l 2
 357 431 356 482 350 524 c 1
 351 527 l 1
 351 527 380 524 405 524 c 0
 428 524 618 524 618 524 c 2
 634 524 651 525 663 527 c 1
 665 524 l 1
 664 514 663 504 663 498 c 0
 663 491 664 481 665 475 c 1
 663 472 l 1
 663 472 560 481 459 481 c 1
 454 463 453 387 453 374 c 2
 453 316 l 1
 542 316 576 320 620 323 c 1
 623 321 l 1
 621 314 620 304 620 297 c 0
 620 290 621 279 623 272 c 1
 620 270 l 1
 569 275 489 278 453 278 c 1
 453 191 l 2
 453 178 454 106 459 88 c 1
 560 88 671 97 671 97 c 1
 672 94 l 1
 672 88 671 75 671 68 c 0
 671 60 672 51 672 41 c 1
 671 38 l 1
 659 40 642 41 626 41 c 2
 600.6 41 l 1
 551.2 30.7 518 -17.4 518 -52 c 0
 518 -76 535 -96 562 -96 c 0
 584 -96 600 -85 614 -69 c 1
 626 -75 l 1
 608 -110 570 -125 543 -125 c 0
EndSplineSet
Position2: "'cpsp' Versalabstaende 1" dx=2 dy=0 dh=4 dv=0
Substitution2: "'c2sc' Versale nach Kapitaelchen 1" eogonek.sc
Colour: ff80cc
EndChar

StartChar: eogonek
Encoding: 281 281 45
Width: 1100
VWidth: 999
Flags: HW
HStem: -121 33<562 614> 16 51<506 621> 206 33<463 588> 316 37<495 574>
VStem: 366 94<119 206 239 248> 508 50<-84 -13> 588 95<215 281>
LayerCount: 3
Back
SplineSet
311.768 -193.359 m 4
 258.057 -193.359 218.506 -162.598 218.506 -107.91 c 4
 218.506 -42.9688 293.213 41.5039 392.334 56.1523 c 5
 413.33 30.7617 l 5
 333.13 30.7617 278.564 -43.9453 278.564 -95.7031 c 4
 278.564 -127.441 300.537 -153.809 336.67 -153.809 c 4
 366.455 -153.809 386.963 -139.404 406.25 -118.652 c 5
 421.387 -126.221 l 5
 397.705 -173.34 347.21 -193.359 311.768 -193.359 c 4
EndSplineSet
Fore
SplineSet
1000 -84 m 2
 1000 -174 971 -212 881 -212 c 2
 249 -212 l 2
 159 -212 120 -174 120 -84 c 2
 120 625 l 2
 120 708 168 754 249 754 c 2
 851 754 l 2
 941 754 1000 715 1000 625 c 2
 1000 -84 l 2
249 718 m 2
 189 718 156 685 156 625 c 2
 156 -53 l 2
 156 -113 189 -136 249 -136 c 2
 394.6 -136 l 1
 390.9 -128.2 389 -119.2 389 -109 c 0
 389 -57 441 -12 487 18 c 1
 503 6 l 1
 462 -34 439 -61 439 -101 c 0
 439 -117 451 -133 470 -133 c 0
 483 -133 499 -122 510 -111 c 1
 512 -112 l 1
 523 -124 l 1
 519.6 -128.2 516 -132.3 512.1 -136 c 1
 821 -136 l 2
 881 -136 904 -113 904 -53 c 2
 904 625 l 2
 904 685 881 718 821 718 c 2
 249 718 l 2
666 129 m 1
 677 123 682 114 682 103 c 1
 653 64 597 36 543 36 c 0
 431 36 366 107 366 193 c 0
 366 307 463 373 534 373 c 0
 634 373 676 302 676 239 c 0
 676 230 671 226 663 226 c 2
 461 226 l 1
 461 120 515 87 558 87 c 0
 599 87 640 101 666 129 c 1
463 259 m 1
 570 259 l 2
 578 259 581 263 581 269 c 0
 581 323 562 336 534 336 c 0
 517 336 474 326 463 259 c 1
EndSplineSet
AlternateSubs2: "'aalt' Alle Alternativen zeigen 1" eogonek.sc
Substitution2: "'smcp' Gemeine nach Kapitaelchen 1" eogonek.sc
Colour: ff00ff
EndChar

StartChar: Ecaron
Encoding: 282 282 46
Width: 1100
VWidth: 999
Flags: HW
HStem: 111 47<457 630> 348 38<453 616> 542 16<459 665> 552 44<457 625>
VStem: 357 96<159 348 386 550>
LayerCount: 3
Fore
SplineSet
394.4 718 m 1
 368.6 718 l 1
 381 709 l 1
 394.4 718 l 1
1000 -84 m 2
 1000 -174 971 -212 881 -212 c 2
 249 -212 l 2
 159 -212 120 -174 120 -84 c 2
 120 625 l 2
 120 708 168 754 249 754 c 2
 300.2 754 l 1
 301 755 l 1
 303.3 754 l 1
 458.7 754 l 1
 461 755 l 1
 461.8 754 l 1
 851 754 l 2
 941 754 1000 715 1000 625 c 2
 1000 -84 l 2
249 718 m 2
 189 718 156 685 156 625 c 2
 156 -53 l 2
 156 -113 189 -136 249 -136 c 2
 821 -136 l 2
 881 -136 904 -113 904 -53 c 2
 904 625 l 2
 904 685 881 718 821 718 c 2
 446.3 718 l 1
 428.6 702.2 412.6 685.6 397 668 c 1
 365 668 l 1
 350.4 686.6 334 702.9 316.5 718 c 1
 249 718 l 2
453 191 m 2
 453 178 454 106 459 88 c 1
 560 88 671 97 671 97 c 1
 672 94 l 1
 672 88 671 75 671 68 c 0
 671 60 672 51 672 41 c 1
 671 38 l 1
 659 40 642 41 626 41 c 2
 405 41 l 2
 379 41 350 38 350 38 c 1
 350 41 l 1
 356 81 357 134 357 191 c 2
 357 374 l 2
 357 431 356 482 350 524 c 1
 351 527 l 1
 351 527 380 524 405 524 c 0
 428 524 618 524 618 524 c 2
 634 524 651 525 663 527 c 1
 665 524 l 1
 664 514 663 504 663 498 c 0
 663 491 664 481 665 475 c 1
 663 472 l 1
 663 472 560 481 459 481 c 1
 454 463 453 387 453 374 c 2
 453 316 l 1
 542 316 576 320 620 323 c 1
 623 321 l 1
 621 314 620 304 620 297 c 0
 620 290 621 279 623 272 c 1
 620 270 l 1
 569 275 489 278 453 278 c 1
 453 191 l 2
EndSplineSet
Position2: "'cpsp' Versalabstaende 1" dx=2 dy=0 dh=4 dv=0
Substitution2: "'c2sc' Versale nach Kapitaelchen 1" ecaron.sc
Colour: ff00ff
EndChar

StartChar: ecaron
Encoding: 283 283 47
Width: 1100
VWidth: 999
Flags: HW
HStem: 79 51<506 621> 268 33<463 588> 379 37<495 574>
VStem: 366 94<182 268 302 311> 588 95<277 343>
LayerCount: 3
Back
SplineSet
518.555 502.441 m 5
 489.746 549.316 452.148 594.727 417.48 632.324 c 5
 437.988 645.508 l 5
 477.051 616.699 509.277 591.309 543.457 555.176 c 5
 580.566 593.262 614.258 618.652 651.367 645.508 c 5
 670.41 632.324 l 5
 635.742 592.773 597.656 548.34 568.359 502.441 c 5
 518.555 502.441 l 5
-202.637 647.949 m 5
 -200.684 596.68 -154.297 556.152 -93.75 556.152 c 4
 -47.8516 556.152 11.7188 585.938 14.1602 647.949 c 5
 40.5273 634.277 l 5
 30.7617 533.691 -43.9453 499.023 -93.75 499.023 c 4
 -171.387 499.023 -222.168 556.641 -229.492 634.277 c 5
 -202.637 647.949 l 5
151.855 645.508 m 5
 180.664 598.633 217.285 555.664 252.93 515.625 c 5
 232.422 502.441 l 5
 193.359 531.25 159.668 556.152 125.977 592.285 c 5
 88.8672 554.199 56.1523 529.297 19.043 502.441 c 5
 -0.488281 515.625 l 5
 34.668 555.176 72.7539 599.609 102.051 645.508 c 5
 151.855 645.508 l 5
-90.5762 664.062 m 5
 528.076 664.062 l 5
 528.076 500.732 l 5
 -90.5762 500.732 l 5
 -90.5762 664.062 l 5
446.289 662.598 m 21
 449.707 664.062 456.055 665.039 460.938 665.039 c 4
 488.936 665.039 501.382 654.214 509.766 646.704 c 4
 512.07 644.639 514.121 642.856 516.113 641.602 c 5
 518.555 630.859 l 5
 403.809 521.973 l 6
 388.184 507.324 381.348 502.441 375 502.441 c 4
 367.188 502.441 360.352 507.974 360.352 514.487 c 4
 360.352 519.858 360.443 527.246 366.699 537.109 c 6
 446.289 662.598 l 21
-90.5762 616.211 m 5
 528.076 616.211 l 5
 528.076 525.635 l 5
 -90.5762 525.635 l 5
 -90.5762 616.211 l 5
87.8906 570.801 m 4
 87.8906 595.703 108.398 616.211 133.301 616.211 c 4
 158.203 616.211 178.711 595.703 178.711 570.801 c 4
 178.711 545.898 158.203 525.391 133.301 525.391 c 4
 108.398 525.391 87.8906 545.898 87.8906 570.801 c 4
248.535 570.801 m 4
 248.535 595.703 269.043 616.211 293.945 616.211 c 4
 318.848 616.211 339.355 595.703 339.355 570.801 c 4
 339.355 545.898 318.848 525.391 293.945 525.391 c 4
 269.043 525.391 248.535 545.898 248.535 570.801 c 4
EndSplineSet
Fore
SplineSet
1000 -84 m 2
 1000 -174 971 -212 881 -212 c 2
 249 -212 l 2
 159 -212 120 -174 120 -84 c 2
 120 625 l 2
 120 708 168 754 249 754 c 2
 851 754 l 2
 941 754 1000 715 1000 625 c 2
 1000 -84 l 2
249 718 m 2
 189 718 156 685 156 625 c 2
 156 -53 l 2
 156 -113 189 -136 249 -136 c 2
 821 -136 l 2
 881 -136 904 -113 904 -53 c 2
 904 625 l 2
 904 685 881 718 821 718 c 2
 249 718 l 2
666 129 m 1
 677 123 682 114 682 103 c 1
 653 64 597 36 543 36 c 0
 431 36 366 107 366 193 c 0
 366 307 463 373 534 373 c 0
 634 373 676 302 676 239 c 0
 676 230 671 226 663 226 c 2
 461 226 l 1
 461 120 515 87 558 87 c 0
 599 87 640 101 666 129 c 1
463 259 m 1
 570 259 l 2
 578 259 581 263 581 269 c 0
 581 323 562 336 534 336 c 0
 517 336 474 326 463 259 c 1
429 523 m 1
 391 523 l 1
 369 558 341 590 315 620 c 1
 333 634 l 1
 362 613 381 599 409 571 c 1
 435 598 457 613 486 634 c 1
 504 620 l 1
 477 590 450 559 429 523 c 1
EndSplineSet
AlternateSubs2: "'aalt' Alle Alternativen zeigen 1" ecaron.sc
Substitution2: "'smcp' Gemeine nach Kapitaelchen 1" ecaron.sc
Colour: ff00ff
EndChar

StartChar: Gcircumflex
Encoding: 284 284 48
Width: 1100
VWidth: 999
Flags: HW
HStem: 102 34<481 649> 568 35<463 617>
VStem: 284 77<270 433> 669 64<173 338>
LayerCount: 3
Fore
SplineSet
1000 -84 m 2
 1000 -174 971 -212 881 -212 c 2
 249 -212 l 2
 159 -212 120 -174 120 -84 c 2
 120 625 l 2
 120 708 168 754 249 754 c 2
 851 754 l 2
 941 754 1000 715 1000 625 c 2
 1000 -84 l 2
249 718 m 2
 189 718 156 685 156 625 c 2
 156 -53 l 2
 156 -113 189 -136 249 -136 c 2
 821 -136 l 2
 881 -136 904 -113 904 -53 c 2
 904 625 l 2
 904 685 881 718 821 718 c 2
 249 718 l 2
669 129 m 2
 669 185 668 228 662 271 c 1
 663 274 l 1
 663 274 692 271 717 271 c 0
 743 271 772 274 772 274 c 1
 772 271 l 1
 766 232 765 200 765 144 c 0
 765 119 768 109 772 103 c 1
 772 101 l 1
 722 59 645 34 557 34 c 0
 406 34 284 142 284 271 c 0
 284 436 432 534 561 534 c 0
 652 534 740 501 740 501 c 1
 742 498 l 1
 733 462 729 439 727 401 c 1
 719 400 l 1
 688 462 618 492 550 492 c 0
 449 492 392 418 392 286 c 0
 392 187 441 75 574 75 c 0
 615 75 644 79 669 103 c 1
 669 129 l 2
557.5 683.3 m 1
 581.7 653.6 611.5 627.2 641.2 605.2 c 1
 628 587.7 l 1
 595 603.1 567.5 618.4 540 639.3 c 1
 509.2 617.3 482.8 602 452 587.7 c 1
 439.8 605.2 l 1
 470.6 628.3 495.9 654.7 522.3 683.3 c 1
 557.5 683.3 l 1
EndSplineSet
Position2: "'cpsp' Versalabstaende 1" dx=2 dy=0 dh=4 dv=0
Colour: ff00ff
EndChar

StartChar: gcircumflex
Encoding: 285 285 49
Width: 1100
VWidth: 999
Flags: HW
HStem: -116 39<430 559> 51 53<448 497> 53 56<451 580> 164 40<449 530> 352 40<446 527>
VStem: 330 81<-58 19> 350 82<221 329> 354 58<107 174> 383 190<449 449> 544 81<224 325> 600 77<-37 34>
LayerCount: 3
Fore
SplineSet
476.7 54 m 1
 449.7 32.5 441 15.6 441 -9 c 0
 441 -60 485 -78 511 -78 c 0
 575 -78 630 -45 630 1 c 0
 630 53 570 57 528 57 c 0
 518.1 57 498.4 54.1 476.7 54 c 1
477.4 54.5 m 2
 479 54.8 480.5 55 478 55 c 1
 477.4 54.5 l 2
1000 -84 m 2
 1000 -174 971 -212 881 -212 c 2
 249 -212 l 2
 159 -212 120 -174 120 -84 c 2
 120 625 l 2
 120 708 168 754 249 754 c 2
 851 754 l 2
 941 754 1000 715 1000 625 c 2
 1000 -84 l 2
249 718 m 2
 189 718 156 685 156 625 c 2
 156 -53 l 2
 156 -113 189 -136 249 -136 c 2
 821 -136 l 2
 881 -136 904 -113 904 -53 c 2
 904 625 l 2
 904 685 881 718 821 718 c 2
 249 718 l 2
573 279 m 0
 573 335 556 366 511 366 c 0
 472 366 461 330 461 296 c 0
 461 248 471 207 520 207 c 0
 547 207 573 225 573 279 c 0
653 286 m 0
 653 225 605 175 518 175 c 0
 493 175 475 177 460 186 c 0
 458 187 456 188 454 189 c 1
 446 176 442 159 442 144 c 0
 442 111 464 111 485 111 c 0
 489 111 496 112 507 113 c 0
 524 115 541 117 554 117 c 0
 623 117 707 95 707 18 c 0
 707 -63 586 -109 490 -109 c 0
 435 -109 360 -89 360 -24 c 0
 360 9 388 43 426 67 c 1
 404 73 384 93 384 125 c 0
 384 150 395 184 415 202 c 1
 411 207 l 1
 394 220 380 247 380 285 c 0
 380 349 438 399 519 399 c 0
 535 399 550 396 563 392 c 1
 619 395 661 403 697 406 c 1
 700 404 l 1
 698 397 697 387 697 380 c 0
 697 373 698 365 700 358 c 1
 697 356 l 1
 669.9 358.6 636.1 361.2 612.6 363.2 c 1
 636.3 345.8 653 315 653 286 c 0
501 547.8 m 1
 526.3 507.1 557 470.8 587.8 436.7 c 1
 567 421.2 l 1
 531.8 443.2 507.6 459.8 479 489.5 c 1
 448.2 457.6 425 443.2 392 421.2 c 1
 371.2 436.7 l 1
 400.9 470.8 433.8 508.2 458 547.8 c 1
 501 547.8 l 1
EndSplineSet
Colour: ff00ff
EndChar

StartChar: Gbreve
Encoding: 286 286 50
Width: 1100
VWidth: 999
Flags: HW
HStem: 102 34<481 649> 568 35<463 617> 630 39<479 596>
VStem: 284 77<270 433> 436 21<684 713> 620 20<686 714> 669 64<173 338>
LayerCount: 3
Fore
SplineSet
1000 -84 m 2
 1000 -174 971 -212 881 -212 c 2
 249 -212 l 2
 159 -212 120 -174 120 -84 c 2
 120 625 l 2
 120 708 168 754 249 754 c 2
 851 754 l 2
 941 754 1000 715 1000 625 c 2
 1000 -84 l 2
249 718 m 2
 189 718 156 685 156 625 c 2
 156 -53 l 2
 156 -113 189 -136 249 -136 c 2
 821 -136 l 2
 881 -136 904 -113 904 -53 c 2
 904 625 l 2
 904 685 881 718 821 718 c 2
 249 718 l 2
669 129 m 2
 669 185 668 228 662 271 c 1
 663 274 l 1
 663 274 692 271 717 271 c 0
 743 271 772 274 772 274 c 1
 772 271 l 1
 766 232 765 200 765 144 c 0
 765 119 768 109 772 103 c 1
 772 101 l 1
 722 59 645 34 557 34 c 0
 406 34 284 142 284 271 c 0
 284 436 432 534 561 534 c 0
 652 534 740 501 740 501 c 1
 742 498 l 1
 733 462 729 439 727 401 c 1
 719 400 l 1
 688 462 618 492 550 492 c 0
 449 492 392 418 392 286 c 0
 392 187 441 75 574 75 c 0
 615 75 644 79 669 103 c 1
 669 129 l 2
600 675 m 1
 589 606 548 580 499 580 c 0
 444 580 400 613 397 675 c 1
 422 675 l 1
 428 646 459 629 499 629 c 0
 536 629 571 646 576 675 c 1
 600 675 l 1
EndSplineSet
Position2: "'cpsp' Versalabstaende 1" dx=2 dy=0 dh=4 dv=0
Substitution2: "'c2sc' Versale nach Kapitaelchen 1" gbreve.sc
Colour: ff00ff
EndChar

StartChar: gbreve
Encoding: 287 287 51
Width: 1100
VWidth: 999
Flags: HW
HStem: -116 39<430 559> 51 53<448 497> 53 56<451 580> 164 40<449 530> 352 40<446 527> 435 43<419 522>
VStem: 330 81<-58 19> 350 82<222 329> 354 58<107 175> 370 20<515 539> 544 81<224 325> 552 20<516 539> 600 77<-37 34>
LayerCount: 3
Fore
SplineSet
476.7 54 m 1
 449.7 32.5 441 15.6 441 -9 c 0
 441 -60 485 -78 511 -78 c 0
 575 -78 630 -45 630 1 c 0
 630 53 570 57 528 57 c 0
 518.1 57 498.4 54.1 476.7 54 c 1
477.4 54.5 m 2
 479 54.8 480.5 55 478 55 c 1
 477.4 54.5 l 2
1000 -84 m 2
 1000 -174 971 -212 881 -212 c 2
 249 -212 l 2
 159 -212 120 -174 120 -84 c 2
 120 625 l 2
 120 708 168 754 249 754 c 2
 851 754 l 2
 941 754 1000 715 1000 625 c 2
 1000 -84 l 2
249 718 m 2
 189 718 156 685 156 625 c 2
 156 -53 l 2
 156 -113 189 -136 249 -136 c 2
 821 -136 l 2
 881 -136 904 -113 904 -53 c 2
 904 625 l 2
 904 685 881 718 821 718 c 2
 249 718 l 2
573 279 m 0
 573 335 556 366 511 366 c 0
 472 366 461 330 461 296 c 0
 461 248 471 207 520 207 c 0
 547 207 573 225 573 279 c 0
653 286 m 0
 653 225 605 175 518 175 c 0
 493 175 475 177 460 186 c 0
 458 187 456 188 454 189 c 1
 446 176 442 159 442 144 c 0
 442 111 464 111 485 111 c 0
 489 111 496 112 507 113 c 0
 524 115 541 117 554 117 c 0
 623 117 707 95 707 18 c 0
 707 -63 586 -109 490 -109 c 0
 435 -109 360 -89 360 -24 c 0
 360 9 388 43 426 67 c 1
 404 73 384 93 384 125 c 0
 384 150 395 184 415 202 c 1
 411 207 l 1
 394 220 380 247 380 285 c 0
 380 349 438 399 519 399 c 0
 535 399 550 396 563 392 c 1
 619 395 661 403 697 406 c 1
 700 404 l 1
 698 397 697 387 697 380 c 0
 697 373 698 365 700 358 c 1
 697 356 l 1
 669.9 358.6 636.1 361.2 612.6 363.2 c 1
 636.3 345.8 653 315 653 286 c 0
367 557 m 1
 368 517 400 487 448 487 c 0
 483 487 526 509 528 557 c 1
 552 536 l 1
 544 457 486 429 448 429 c 0
 387 429 347 475 342 536 c 1
 367 557 l 1
EndSplineSet
AlternateSubs2: "'aalt' Alle Alternativen zeigen 1" gbreve.sc
Substitution2: "'smcp' Gemeine nach Kapitaelchen 1" gbreve.sc
Colour: ff00ff
EndChar

StartChar: Gdotaccent
Encoding: 288 288 52
Width: 1100
VWidth: 999
Flags: HW
HStem: 108 34<481 649> 574 35<463 617> 651 104<518 592>
VStem: 284 77<276 439> 503 104<666 740> 669 64<178 344>
LayerCount: 3
Fore
SplineSet
1000 -84 m 2
 1000 -174 971 -212 881 -212 c 2
 249 -212 l 2
 159 -212 120 -174 120 -84 c 2
 120 625 l 2
 120 708 168 754 249 754 c 2
 373.6 754 l 1
 377.5 778.4 398.8 798 425 798 c 0
 451.2 798 472.5 778.4 476.4 754 c 1
 851 754 l 2
 941 754 1000 715 1000 625 c 2
 1000 -84 l 2
249 718 m 2
 189 718 156 685 156 625 c 2
 156 -53 l 2
 156 -113 189 -136 249 -136 c 2
 821 -136 l 2
 881 -136 904 -113 904 -53 c 2
 904 625 l 2
 904 685 881 718 821 718 c 2
 468.7 718 l 1
 459.5 703.7 443.5 694 425 694 c 0
 406.5 694 390.5 703.7 381.3 718 c 1
 249 718 l 2
669 129 m 2
 669 185 668 228 662 271 c 1
 663 274 l 1
 663 274 692 271 717 271 c 0
 743 271 772 274 772 274 c 1
 772 271 l 1
 766 232 765 200 765 144 c 0
 765 119 768 109 772 103 c 1
 772 101 l 1
 722 59 645 34 557 34 c 0
 406 34 284 142 284 271 c 0
 284 436 432 534 561 534 c 0
 652 534 740 501 740 501 c 1
 742 498 l 1
 733 462 729 439 727 401 c 1
 719 400 l 1
 688 462 618 492 550 492 c 0
 449 492 392 418 392 286 c 0
 392 187 441 75 574 75 c 0
 615 75 644 79 669 103 c 1
 669 129 l 2
EndSplineSet
Position2: "'cpsp' Versalabstaende 1" dx=2 dy=0 dh=4 dv=0
Colour: ff00ff
EndChar

StartChar: gdotaccent
Encoding: 289 289 53
Width: 1100
VWidth: 999
Flags: HW
HStem: -114 39<430 559> 53 53<448 497> 56 56<451 580> 167 40<449 530> 354 40<446 527> 463 104<451 526>
VStem: 330 81<-56 22> 350 82<224 332> 354 58<110 177> 437 104<477 552> 544 81<227 327> 600 77<-34 37>
LayerCount: 3
Back
SplineSet
-98.3887 618.652 m 5
 520.264 618.652 l 5
 520.508 522.949 l 5
 -98.6328 522.949 l 5
 -98.3887 618.652 l 5
510.742 502.441 m 5
 481.934 549.316 444.336 594.727 409.668 632.324 c 5
 430.176 645.508 l 5
 469.238 616.699 501.465 591.309 535.645 555.176 c 5
 572.754 593.262 606.445 618.652 643.555 645.508 c 5
 662.598 632.324 l 5
 627.93 592.773 589.844 548.34 560.547 502.441 c 5
 510.742 502.441 l 5
-210.449 647.949 m 5
 -208.496 596.68 -162.109 556.152 -101.562 556.152 c 4
 -55.6641 556.152 3.90625 585.938 6.34766 647.949 c 5
 32.7148 634.277 l 5
 22.9492 533.691 -51.7578 499.023 -101.562 499.023 c 4
 -179.199 499.023 -229.98 556.641 -237.305 634.277 c 5
 -210.449 647.949 l 5
144.043 645.508 m 5
 172.852 598.633 209.473 555.664 245.117 515.625 c 5
 224.609 502.441 l 5
 185.547 531.25 151.855 556.152 118.164 592.285 c 5
 81.0547 554.199 48.3398 529.297 11.2305 502.441 c 5
 -8.30078 515.625 l 5
 26.8555 555.176 64.9414 599.609 94.2383 645.508 c 5
 144.043 645.508 l 5
-98.3887 664.062 m 5
 520.264 664.062 l 5
 520.264 500.732 l 5
 -98.3887 500.732 l 5
 -98.3887 664.062 l 5
438.477 662.598 m 21
 441.895 664.062 448.242 665.039 453.125 665.039 c 4
 481.123 665.039 493.569 654.214 501.953 646.704 c 4
 504.258 644.639 506.309 642.856 508.301 641.602 c 5
 510.742 630.859 l 5
 395.996 521.973 l 6
 380.371 507.324 373.535 502.441 367.188 502.441 c 4
 359.375 502.441 352.539 507.974 352.539 514.487 c 4
 352.539 519.858 352.631 527.246 358.887 537.109 c 6
 438.477 662.598 l 21
-98.3887 616.211 m 5
 520.264 616.211 l 5
 520.508 525.391 l 5
 -98.6328 525.391 l 5
 -98.3887 616.211 l 5
80.0781 570.801 m 4
 80.0781 595.703 100.586 616.211 125.488 616.211 c 4
 150.391 616.211 170.898 595.703 170.898 570.801 c 4
 170.898 545.898 150.391 525.391 125.488 525.391 c 4
 100.586 525.391 80.0781 545.898 80.0781 570.801 c 4
240.723 570.801 m 4
 240.723 595.703 261.23 616.211 286.133 616.211 c 4
 311.035 616.211 331.543 595.703 331.543 570.801 c 4
 331.543 545.898 311.035 525.391 286.133 525.391 c 4
 261.23 525.391 240.723 545.898 240.723 570.801 c 4
EndSplineSet
Fore
SplineSet
476.7 54 m 1
 449.7 32.5 441 15.6 441 -9 c 0
 441 -60 485 -78 511 -78 c 0
 575 -78 630 -45 630 1 c 0
 630 53 570 57 528 57 c 0
 518.1 57 498.4 54.1 476.7 54 c 1
477.4 54.5 m 2
 479 54.8 480.5 55 478 55 c 1
 477.4 54.5 l 2
1000 -84 m 2
 1000 -174 971 -212 881 -212 c 2
 249 -212 l 2
 159 -212 120 -174 120 -84 c 2
 120 625 l 2
 120 708 168 754 249 754 c 2
 851 754 l 2
 941 754 1000 715 1000 625 c 2
 1000 -84 l 2
249 718 m 2
 189 718 156 685 156 625 c 2
 156 -53 l 2
 156 -113 189 -136 249 -136 c 2
 821 -136 l 2
 881 -136 904 -113 904 -53 c 2
 904 625 l 2
 904 685 881 718 821 718 c 2
 249 718 l 2
573 279 m 0
 573 335 556 366 511 366 c 0
 472 366 461 330 461 296 c 0
 461 248 471 207 520 207 c 0
 547 207 573 225 573 279 c 0
653 286 m 0
 653 225 605 175 518 175 c 0
 493 175 475 177 460 186 c 0
 458 187 456 188 454 189 c 1
 446 176 442 159 442 144 c 0
 442 111 464 111 485 111 c 0
 489 111 496 112 507 113 c 0
 524 115 541 117 554 117 c 0
 623 117 707 95 707 18 c 0
 707 -63 586 -109 490 -109 c 0
 435 -109 360 -89 360 -24 c 0
 360 9 388 43 426 67 c 1
 404 73 384 93 384 125 c 0
 384 150 395 184 415 202 c 1
 411 207 l 1
 394 220 380 247 380 285 c 0
 380 349 438 399 519 399 c 0
 535 399 550 396 563 392 c 1
 619 395 661 403 697 406 c 1
 700 404 l 1
 698 397 697 387 697 380 c 0
 697 373 698 365 700 358 c 1
 697 356 l 1
 669.9 358.6 636.1 361.2 612.6 363.2 c 1
 636.3 345.8 653 315 653 286 c 0
331 608 m 0
 331 636 354 660 383 660 c 0
 412 660 435 636 435 608 c 0
 435 580 412 556 383 556 c 0
 354 556 331 580 331 608 c 0
EndSplineSet
Colour: ff00ff
EndChar

StartChar: Gcommaaccent
Encoding: 290 290 54
Width: 1100
VWidth: 999
Flags: HW
HStem: -130 13<507 523> -58 61<507 561> 35 34<481 649> 501 35<463 617>
VStem: 284 77<203 366> 563 24<-90 -38> 669 64<106 271>
LayerCount: 3
Fore
SplineSet
1000 -84 m 2
 1000 -174 971 -212 881 -212 c 2
 249 -212 l 2
 159 -212 120 -174 120 -84 c 2
 120 625 l 2
 120 708 168 754 249 754 c 2
 851 754 l 2
 941 754 1000 715 1000 625 c 2
 1000 -84 l 2
669 129 m 2
 669 185 668 228 662 271 c 1
 663 274 l 1
 663 274 692 271 717 271 c 0
 743 271 772 274 772 274 c 1
 772 271 l 1
 766 232 765 200 765 144 c 0
 765 119 768 109 772 103 c 1
 772 101 l 1
 722 59 645 34 557 34 c 0
 406 34 284 142 284 271 c 0
 284 436 432 534 561 534 c 0
 652 534 740 501 740 501 c 1
 742 498 l 1
 733 462 729 439 727 401 c 1
 719 400 l 1
 688 462 618 492 550 492 c 0
 449 492 392 418 392 286 c 0
 392 187 441 75 574 75 c 0
 615 75 644 79 669 103 c 1
 669 129 l 2
390 -70 m 0
 420 -70 437 -98 437 -124 c 0
 437 -127.2 436.6 -131.3 435.8 -136 c 1
 821 -136 l 2
 881 -136 904 -113 904 -53 c 2
 904 625 l 2
 904 685 881 718 821 718 c 2
 249 718 l 2
 189 718 156 685 156 625 c 2
 156 -53 l 2
 156 -113 189 -136 249 -136 c 2
 412.7 -136 l 1
 412.9 -134 413 -132.6 413 -132 c 0
 413 -129 412 -126 411 -124 c 1
 403 -129 396 -131 390 -131 c 0
 359 -131 352 -112 352 -100 c 0
 352 -88 363 -70 390 -70 c 0
EndSplineSet
Position2: "'cpsp' Versalabstaende 1" dx=2 dy=0 dh=4 dv=0
Colour: ff00ff
EndChar

StartChar: gcommaaccent
Encoding: 291 291 55
Width: 1100
VWidth: 999
Flags: HW
HStem: -111 39<430 559> 56 53<448 497> 58 56<451 580> 169 40<449 530> 357 40<446 527> 450 62<456 510> 572 13<494 511>
VStem: 330 81<-53 24> 350 82<227 335> 354 58<113 180> 430 24<505 544> 544 81<230 330> 600 77<-32 39>
LayerCount: 3
Back
SplineSet
518.555 502.441 m 5
 489.746 549.316 452.148 594.727 417.48 632.324 c 5
 437.988 645.508 l 5
 477.051 616.699 509.277 591.309 543.457 555.176 c 5
 580.566 593.262 614.258 618.652 651.367 645.508 c 5
 670.41 632.324 l 5
 635.742 592.773 597.656 548.34 568.359 502.441 c 5
 518.555 502.441 l 5
-202.637 647.949 m 5
 -200.684 596.68 -154.297 556.152 -93.75 556.152 c 4
 -47.8516 556.152 11.7188 585.938 14.1602 647.949 c 5
 40.5273 634.277 l 5
 30.7617 533.691 -43.9453 499.023 -93.75 499.023 c 4
 -171.387 499.023 -222.168 556.641 -229.492 634.277 c 5
 -202.637 647.949 l 5
151.855 645.508 m 5
 180.664 598.633 217.285 555.664 252.93 515.625 c 5
 232.422 502.441 l 5
 193.359 531.25 159.668 556.152 125.977 592.285 c 5
 88.8672 554.199 56.1523 529.297 19.043 502.441 c 5
 -0.488281 515.625 l 5
 34.668 555.176 72.7539 599.609 102.051 645.508 c 5
 151.855 645.508 l 5
-90.5762 664.062 m 5
 528.076 664.062 l 5
 528.076 500.732 l 5
 -90.5762 500.732 l 5
 -90.5762 664.062 l 5
446.289 662.598 m 21
 449.707 664.062 456.055 665.039 460.938 665.039 c 4
 488.936 665.039 501.382 654.214 509.766 646.704 c 4
 512.07 644.639 514.121 642.856 516.113 641.602 c 5
 518.555 630.859 l 5
 403.809 521.973 l 6
 388.184 507.324 381.348 502.441 375 502.441 c 4
 367.188 502.441 360.352 507.974 360.352 514.487 c 4
 360.352 519.858 360.443 527.246 366.699 537.109 c 6
 446.289 662.598 l 21
-90.5762 616.211 m 5
 528.076 616.211 l 5
 528.076 525.635 l 5
 -90.5762 525.635 l 5
 -90.5762 616.211 l 5
87.8906 570.801 m 4
 87.8906 595.703 108.398 616.211 133.301 616.211 c 4
 158.203 616.211 178.711 595.703 178.711 570.801 c 4
 178.711 545.898 158.203 525.391 133.301 525.391 c 4
 108.398 525.391 87.8906 545.898 87.8906 570.801 c 4
248.535 570.801 m 4
 248.535 595.703 269.043 616.211 293.945 616.211 c 4
 318.848 616.211 339.355 595.703 339.355 570.801 c 4
 339.355 545.898 318.848 525.391 293.945 525.391 c 4
 269.043 525.391 248.535 545.898 248.535 570.801 c 4
EndSplineSet
Fore
SplineSet
476.7 54 m 1
 449.7 32.5 441 15.6 441 -9 c 0
 441 -60 485 -78 511 -78 c 0
 575 -78 630 -45 630 1 c 0
 630 53 570 57 528 57 c 0
 518.1 57 498.4 54.1 476.7 54 c 1
477.4 54.5 m 2
 479 54.8 480.5 55 478 55 c 1
 477.4 54.5 l 2
1000 -84 m 2
 1000 -174 971 -212 881 -212 c 2
 249 -212 l 2
 159 -212 120 -174 120 -84 c 2
 120 625 l 2
 120 708 168 754 249 754 c 2
 851 754 l 2
 941 754 1000 715 1000 625 c 2
 1000 -84 l 2
249 718 m 2
 189 718 156 685 156 625 c 2
 156 -53 l 2
 156 -113 189 -136 249 -136 c 2
 821 -136 l 2
 881 -136 904 -113 904 -53 c 2
 904 625 l 2
 904 685 881 718 821 718 c 2
 249 718 l 2
573 279 m 0
 573 335 556 366 511 366 c 0
 472 366 461 330 461 296 c 0
 461 248 471 207 520 207 c 0
 547 207 573 225 573 279 c 0
653 286 m 0
 653 225 605 175 518 175 c 0
 493 175 475 177 460 186 c 0
 458 187 456 188 454 189 c 1
 446 176 442 159 442 144 c 0
 442 111 464 111 485 111 c 0
 489 111 496 112 507 113 c 0
 524 115 541 117 554 117 c 0
 623 117 707 95 707 18 c 0
 707 -63 586 -109 490 -109 c 0
 435 -109 360 -89 360 -24 c 0
 360 9 388 43 426 67 c 1
 404 73 384 93 384 125 c 0
 384 150 395 184 415 202 c 1
 411 207 l 1
 394 220 380 247 380 285 c 0
 380 349 438 399 519 399 c 0
 535 399 550 396 563 392 c 1
 619 395 661 403 697 406 c 1
 700 404 l 1
 698 397 697 387 697 380 c 0
 697 373 698 365 700 358 c 1
 697 356 l 1
 669.9 358.6 636.1 361.2 612.6 363.2 c 1
 636.3 345.8 653 315 653 286 c 0
386 522 m 0
 356 522 339 550 339 577 c 0
 339 597 352 654 419 657 c 1
 422 644 l 1
 365 633 363 588 363 585 c 0
 363 582 364 579 364 577 c 1
 373 582 380 584 386 584 c 0
 416 584 424 565 424 552 c 0
 424 540 412 522 386 522 c 0
EndSplineSet
Colour: ff00ff
EndChar

StartChar: Hcircumflex
Encoding: 292 292 56
Width: 1100
VWidth: 999
Flags: HW
HStem: 108 16<370 426 426 481 676 732 732 787> 343 39<463 708> 581 15<370 426 426 481 676 732 732 787>
VStem: 378 96<112 592> 684 96<112 592>
LayerCount: 3
Fore
SplineSet
594.5 682.3 m 1
 618.7 652.6 648.5 626.2 678.2 604.2 c 1
 665 586.7 l 1
 632 602.1 604.5 617.4 577 638.3 c 1
 546.2 616.3 519.8 601 489 586.7 c 1
 476.8 604.2 l 1
 507.6 627.3 532.9 653.7 559.3 682.3 c 1
 594.5 682.3 l 1
1000 -84 m 2
 1000 -174 971 -212 881 -212 c 2
 249 -212 l 2
 159 -212 120 -174 120 -84 c 2
 120 625 l 2
 120 708 168 754 249 754 c 2
 851 754 l 2
 941 754 1000 715 1000 625 c 2
 1000 -84 l 2
249 718 m 2
 189 718 156 685 156 625 c 2
 156 -53 l 2
 156 -113 189 -136 249 -136 c 2
 821 -136 l 2
 881 -136 904 -113 904 -53 c 2
 904 625 l 2
 904 685 881 718 821 718 c 2
 249 718 l 2
646 374 m 2
 646 431 644 482 638 524 c 1
 640 527 l 1
 640 527 668 524 694 524 c 0
 720 524 749 527 749 527 c 1
 750 524 l 1
 744 485 742 431 742 374 c 2
 742 191 l 2
 742 134 744 83 750 41 c 1
 748 38 l 1
 748 38 720 41 694 41 c 0
 668 41 639 38 639 38 c 1
 638 41 l 1
 644 81 646 134 646 191 c 2
 646 274 l 1
 436 274 l 1
 436 191 l 2
 436 134 438 83 444 41 c 1
 442 38 l 1
 442 38 414 41 388 41 c 0
 362 41 333 38 333 38 c 1
 332 41 l 1
 338 81 340 134 340 191 c 2
 340 374 l 2
 340 431 338 482 332 524 c 1
 334 527 l 1
 334 527 362 524 388 524 c 0
 414 524 443 527 443 527 c 1
 444 524 l 1
 438 485 436 431 436 374 c 2
 436 313 l 1
 646 313 l 1
 646 374 l 2
EndSplineSet
Position2: "'cpsp' Versalabstaende 1" dx=2 dy=0 dh=4 dv=0
Colour: ff00ff
EndChar

StartChar: hcircumflex
Encoding: 293 293 57
Width: 1100
VWidth: 999
Flags: HW
HStem: 112 16<367 419 419 470 602 653 653 705> 394 50<520 598> 623 15<454 466>
VStem: 374 88<117 354 385 616> 609 88<117 384>
LayerCount: 3
Fore
SplineSet
1000 -84 m 2
 1000 -174 971 -212 881 -212 c 2
 249 -212 l 2
 159 -212 120 -174 120 -84 c 2
 120 625 l 2
 120 708 168 754 249 754 c 2
 851 754 l 2
 941 754 1000 715 1000 625 c 2
 1000 -84 l 2
249 718 m 2
 189 718 156 685 156 625 c 2
 156 -53 l 2
 156 -113 189 -136 249 -136 c 2
 821 -136 l 2
 881 -136 904 -113 904 -53 c 2
 904 625 l 2
 904 685 881 718 821 718 c 2
 249 718 l 2
594 180 m 2
 594 252 l 2
 594 313 580 325 538 325 c 0
 516 325 499 305 463 270 c 1
 463 180 l 2
 463 123 464 88 470 45 c 1
 469 43 l 1
 469 43 444 45 419 45 c 0
 392 45 368 43 368 43 c 1
 367 45 l 1
 373 85 374 124 374 180 c 2
 374 406 l 2
 374 463 373 515 367 547 c 1
 368 550 l 1
 399 552 445 561 464 568 c 1
 468 568 470 566 470 561 c 0
 465 515 463 476 463 421 c 2
 463 315 l 1
 513 365 542 374 572 374 c 0
 626 374 683 335 683 258 c 2
 683 180 l 2
 683 123 684 88 690 45 c 1
 689 43 l 1
 689 43 664 45 638 45 c 0
 612 45 587 43 587 43 c 1
 587 45 l 1
 593 85 594 124 594 180 c 2
553.5 704.3 m 1
 577.7 674.6 607.5 648.2 637.2 626.2 c 1
 624 608.7 l 1
 591 624.1 563.5 639.4 536 660.3 c 1
 505.2 638.3 478.8 623 448 608.7 c 1
 435.8 626.2 l 1
 466.6 649.3 491.9 675.7 518.3 704.3 c 1
 553.5 704.3 l 1
EndSplineSet
Colour: ff00ff
EndChar

StartChar: Hbar
Encoding: 294 294 58
Width: 1100
VWidth: 999
Flags: HW
HStem: 78 16<377 432 432 488 683 738 738 794> 314 39<470 714> 465 26<338 799> 552 15<377 432 432 488 683 738 738 794>
VStem: 384 96<83 562> 690 96<83 562>
LayerCount: 3
Fore
SplineSet
646 313 m 1
 646 374 l 2
 646 406.5 645.4 437 643.7 465 c 1
 438.2 465 l 1
 436.6 437 436 406 436 374 c 2
 436 313 l 1
 646 313 l 1
1000 -84 m 2
 1000 -174 971 -212 881 -212 c 2
 249 -212 l 2
 159 -212 120 -174 120 -84 c 2
 120 625 l 2
 120 708 168 754 249 754 c 2
 851 754 l 2
 941 754 1000 715 1000 625 c 2
 1000 -84 l 2
249 718 m 2
 189 718 156 685 156 625 c 2
 156 -53 l 2
 156 -113 189 -136 249 -136 c 2
 821 -136 l 2
 881 -136 904 -113 904 -53 c 2
 904 625 l 2
 904 685 881 718 821 718 c 2
 249 718 l 2
340 374 m 2
 340 431 338 482 332 524 c 1
 334 527 l 1
 334 527 362 524 388 524 c 0
 414 524 443 527 443 527 c 1
 444 524 l 1
 442.4 513.6 441.1 502.2 440 490 c 1
 641.9 490 l 1
 640.9 501.9 639.5 513.2 638 524 c 1
 640 527 l 1
 640 527 668 524 694 524 c 0
 720 524 749 527 749 527 c 1
 750 524 l 1
 748.4 513.6 747.1 502.2 746 490 c 1
 799 490 l 1
 799 465 l 1
 744.2 465 l 1
 742.6 437 742 406 742 374 c 2
 742 191 l 2
 742 134 744 83 750 41 c 1
 748 38 l 1
 748 38 720 41 694 41 c 0
 668 41 639 38 639 38 c 1
 638 41 l 1
 644 81 646 134 646 191 c 2
 646 274 l 1
 436 274 l 1
 436 191 l 2
 436 134 438 83 444 41 c 1
 442 38 l 1
 442 38 414 41 388 41 c 0
 362 41 333 38 333 38 c 1
 332 41 l 1
 338 81 340 134 340 191 c 2
 340 374 l 2
EndSplineSet
Position2: "'cpsp' Versalabstaende 1" dx=2 dy=0 dh=4 dv=0
Colour: ff80cc
EndChar

StartChar: hbar
Encoding: 295 295 59
Width: 1100
VWidth: 999
Flags: HW
HStem: 85 16<354 406 406 458 589 641 641 692> 367 50<508 585> 484 29<319 555> 595 15<442 453>
VStem: 362 88<89 326 357 588> 596 88<89 356>
LayerCount: 3
Fore
SplineSet
1000 -84 m 2
 1000 -174 971 -212 881 -212 c 2
 249 -212 l 2
 159 -212 120 -174 120 -84 c 2
 120 625 l 2
 120 708 168 754 249 754 c 2
 851 754 l 2
 941 754 1000 715 1000 625 c 2
 1000 -84 l 2
249 718 m 2
 189 718 156 685 156 625 c 2
 156 -53 l 2
 156 -113 189 -136 249 -136 c 2
 821 -136 l 2
 881 -136 904 -113 904 -53 c 2
 904 625 l 2
 904 685 881 718 821 718 c 2
 249 718 l 2
594 180 m 2
 594 252 l 2
 594 313 580 325 538 325 c 0
 516 325 499 305 463 270 c 1
 463 180 l 2
 463 123 464 88 470 45 c 1
 469 43 l 1
 469 43 444 45 419 45 c 0
 392 45 368 43 368 43 c 1
 367 45 l 1
 373 85 374 124 374 180 c 2
 374 406 l 2
 374 433.8 373.7 460.3 372.8 484 c 1
 319 484 l 1
 319 514 l 1
 371.1 514 l 1
 370.1 526.5 368.8 537.6 367 547 c 1
 368 550 l 1
 399 552 445 561 464 568 c 1
 468 568 470 566 470 561 c 0
 468.2 544.8 466.9 529.5 465.8 514 c 1
 555 514 l 1
 555 484 l 1
 464.2 484 l 1
 463.4 464.7 463 444.3 463 421 c 2
 463 315 l 1
 513 365 542 374 572 374 c 0
 626 374 683 335 683 258 c 2
 683 180 l 2
 683 123 684 88 690 45 c 1
 689 43 l 1
 689 43 664 45 638 45 c 0
 612 45 587 43 587 43 c 1
 587 45 l 1
 593 85 594 124 594 180 c 2
EndSplineSet
Colour: ff80cc
EndChar

StartChar: Itilde
Encoding: 296 296 60
Width: 1100
VWidth: 999
Flags: HW
HStem: 108 16<492 548 548 603> 581 15<492 548 548 603> 633 33<542 607> 669 34<453 521> 698 8
VStem: 500 96<112 592>
LayerCount: 3
Fore
SplineSet
1000 -84 m 2
 1000 -174 971 -212 881 -212 c 2
 249 -212 l 2
 159 -212 120 -174 120 -84 c 2
 120 625 l 2
 120 708 168 754 249 754 c 2
 851 754 l 2
 941 754 1000 715 1000 625 c 2
 1000 -84 l 2
249 718 m 2
 189 718 156 685 156 625 c 2
 156 -53 l 2
 156 -113 189 -136 249 -136 c 2
 821 -136 l 2
 881 -136 904 -113 904 -53 c 2
 904 625 l 2
 904 685 881 718 821 718 c 2
 249 718 l 2
502 374 m 2
 502 431 500 482 494 524 c 1
 496 527 l 1
 496 527 524 524 550 524 c 0
 576 524 605 527 605 527 c 1
 606 524 l 1
 600 485 598 431 598 374 c 2
 598 191 l 2
 598 134 600 83 606 41 c 1
 604 38 l 1
 604 38 576 41 550 41 c 0
 524 41 495 38 495 38 c 1
 494 41 l 1
 500 81 502 134 502 191 c 2
 502 374 l 2
612 614.1 m 0
 630.7 614.1 640.7 620.7 652.8 661.4 c 1
 675.8 653.7 l 1
 664.8 597.6 640.6 564.6 601 564.6 c 0
 581.2 564.6 563.7 576.7 547.2 588.8 c 0
 530.7 599.8 514.2 610.8 498.8 610.8 c 0
 476.8 610.8 468 598.7 459.2 566.8 c 1
 437.2 573.4 l 1
 449.3 629.5 469 660.3 505.3 660.3 c 0
 531.7 660.3 550.5 647.1 567 633.9 c 0
 581.3 622.9 595.5 614.1 612 614.1 c 0
EndSplineSet
Position2: "'cpsp' Versalabstaende 1" dx=2 dy=0 dh=4 dv=0
Colour: ff00ff
EndChar

StartChar: itilde
Encoding: 297 297 61
Width: 306
VWidth: 999
Flags: HW
HStem: 76 16<100 152 152 203> 393 15<187 199> 473 33<149 208> 509 34<69 131> 538 8
VStem: 107 88<81 385>
LayerCount: 3
Back
SplineSet
-87.8906 622.07 m 5
 531.25 622.07 l 5
 531.25 525.391 l 5
 -87.8906 525.391 l 5
 -87.8906 622.07 l 5
EndSplineSet
Fore
SplineSet
620 -84 m 2
 620 -174 591 -212 501 -212 c 2
 -131 -212 l 2
 -221 -212 -260 -174 -260 -84 c 2
 -260 625 l 2
 -260 708 -212 754 -131 754 c 2
 471 754 l 2
 561 754 620 715 620 625 c 2
 620 -84 l 2
-131 718 m 2
 -191 718 -224 685 -224 625 c 2
 -224 -53 l 2
 -224 -113 -191 -136 -131 -136 c 2
 441 -136 l 2
 501 -136 524 -113 524 -53 c 2
 524 625 l 2
 524 685 501 718 441 718 c 2
 -131 718 l 2
109 214 m 2
 109 270 107 313 101 346 c 1
 103 348 l 1
 133 350 179 359 198 367 c 1
 202 367 205 365 205 359 c 0
 199 313 197 282 197 226 c 2
 197 173 l 2
 197 115 199 80 205 37 c 1
 203 35 l 1
 203 35 178 37 153 37 c 0
 127 37 102 35 102 35 c 1
 101 37 l 1
 107 78 109 116 109 173 c 2
 109 214 l 2
211.1 486.1 m 0
 227.9 486.1 236.9 492.7 247.8 533.4 c 1
 268.6 525.7 l 1
 258.7 469.6 236.8 436.6 201.2 436.6 c 0
 183.4 436.6 167.5 448.7 152.7 460.8 c 0
 137.9 471.8 123.1 482.8 109.2 482.8 c 0
 89.4 482.8 81.4 470.7 73.5 438.8 c 1
 53.7 445.4 l 1
 64.6 501.5 82.4 532.3 115.1 532.3 c 0
 138.9 532.3 155.8 519.1 170.6 505.9 c 0
 183.5 494.9 196.3 486.1 211.1 486.1 c 0
EndSplineSet
Colour: ff00ff
EndChar

StartChar: Imacron
Encoding: 298 298 62
Width: 1100
VWidth: 999
Flags: HW
HStem: 105 16<492 548 548 603> 578 15<492 548 548 603> 657 33<427 636>
VStem: 426 211<657 690> 500 96<109 589>
LayerCount: 3
Fore
SplineSet
1000 -84 m 2
 1000 -174 971 -212 881 -212 c 2
 249 -212 l 2
 159 -212 120 -174 120 -84 c 2
 120 625 l 2
 120 708 168 754 249 754 c 2
 851 754 l 2
 941 754 1000 715 1000 625 c 2
 1000 -84 l 2
249 718 m 2
 189 718 156 685 156 625 c 2
 156 -53 l 2
 156 -113 189 -136 249 -136 c 2
 821 -136 l 2
 881 -136 904 -113 904 -53 c 2
 904 625 l 2
 904 685 881 718 821 718 c 2
 249 718 l 2
502 374 m 2
 502 431 500 482 494 524 c 1
 496 527 l 1
 496 527 524 524 550 524 c 0
 576 524 605 527 605 527 c 1
 606 524 l 1
 600 485 598 431 598 374 c 2
 598 191 l 2
 598 134 600 83 606 41 c 1
 604 38 l 1
 604 38 576 41 550 41 c 0
 524 41 495 38 495 38 c 1
 494 41 l 1
 500 81 502 134 502 191 c 2
 502 374 l 2
549 679 m 2
 344 679 l 2
 335 679 332 686 332 693 c 0
 332 702 341 717 351 717 c 2
 558 717 l 2
 566 717 569 710 569 704 c 0
 569 694 560 679 549 679 c 2
EndSplineSet
Position2: "'cpsp' Versalabstaende 1" dx=2 dy=0 dh=4 dv=0
Colour: ff00ff
EndChar

StartChar: imacron
Encoding: 299 299 63
Width: 306
VWidth: 999
Flags: HW
HStem: 70 16<99 151 151 203> 387 15<187 198> 476 33<44 232>
VStem: 43 190<476 509> 107 88<75 379>
LayerCount: 3
Back
SplineSet
326.66 538.574 m 2
 -70.3125 538.574 l 2
 -78.2227 538.574 -81.2988 546.387 -81.2988 553.223 c 0
 -81.2988 564.941 -72.0703 582.52 -61.5234 582.52 c 2
 335.449 582.52 l 2
 344.238 582.52 347.754 574.707 347.754 567.871 c 0
 347.754 556.152 338.085 538.574 326.66 538.574 c 2
EndSplineSet
Fore
SplineSet
620 -84 m 2
 620 -174 591 -212 501 -212 c 2
 -131 -212 l 2
 -221 -212 -260 -174 -260 -84 c 2
 -260 625 l 2
 -260 708 -212 754 -131 754 c 2
 471 754 l 2
 561 754 620 715 620 625 c 2
 620 -84 l 2
-131 718 m 2
 -191 718 -224 685 -224 625 c 2
 -224 -53 l 2
 -224 -113 -191 -136 -131 -136 c 2
 441 -136 l 2
 501 -136 524 -113 524 -53 c 2
 524 625 l 2
 524 685 501 718 441 718 c 2
 -131 718 l 2
109 214 m 2
 109 270 107 313 101 346 c 1
 103 348 l 1
 133 350 179 359 198 367 c 1
 202 367 205 365 205 359 c 0
 199 313 197 282 197 226 c 2
 197 173 l 2
 197 115 199 80 205 37 c 1
 203 35 l 1
 203 35 178 37 153 37 c 0
 127 37 102 35 102 35 c 1
 101 37 l 1
 107 78 109 116 109 173 c 2
 109 214 l 2
152.9 533 m 2
 -31.6 533 l 2
 -39.7 533 -42.4 540 -42.4 547 c 0
 -42.4 556 -34.3 571 -25.3 571 c 2
 161 571 l 2
 168.2 571 170.9 564 170.9 558 c 0
 170.9 548 162.8 533 152.9 533 c 2
EndSplineSet
Colour: ff00ff
EndChar

StartChar: Ibreve
Encoding: 300 300 64
Width: 1100
VWidth: 999
Flags: HW
HStem: 108 16<489 545 545 600> 581 15<489 545 545 600> 629 39<470 587>
VStem: 427 21<684 713> 497 96<112 592> 610 20<686 714>
LayerCount: 3
Fore
SplineSet
1000 -84 m 2
 1000 -174 971 -212 881 -212 c 2
 249 -212 l 2
 159 -212 120 -174 120 -84 c 2
 120 625 l 2
 120 708 168 754 249 754 c 2
 851 754 l 2
 941 754 1000 715 1000 625 c 2
 1000 -84 l 2
249 718 m 2
 189 718 156 685 156 625 c 2
 156 -53 l 2
 156 -113 189 -136 249 -136 c 2
 821 -136 l 2
 881 -136 904 -113 904 -53 c 2
 904 625 l 2
 904 685 881 718 821 718 c 2
 249 718 l 2
502 374 m 2
 502 431 500 482 494 524 c 1
 496 527 l 1
 496 527 524 524 550 524 c 0
 576 524 605 527 605 527 c 1
 606 524 l 1
 600 485 598 431 598 374 c 2
 598 191 l 2
 598 134 600 83 606 41 c 1
 604 38 l 1
 604 38 576 41 550 41 c 0
 524 41 495 38 495 38 c 1
 494 41 l 1
 500 81 502 134 502 191 c 2
 502 374 l 2
642 674 m 1
 631 605 590 579 541 579 c 0
 486 579 442 612 439 674 c 1
 464 674 l 1
 470 645 501 628 541 628 c 0
 578 628 613 645 618 674 c 1
 642 674 l 1
EndSplineSet
Position2: "'cpsp' Versalabstaende 1" dx=2 dy=0 dh=4 dv=0
Colour: ff00ff
EndChar

StartChar: ibreve
Encoding: 301 301 65
Width: 306
VWidth: 999
Flags: HW
HStem: 79 16<100 152 152 203> 396 15<187 199> 459 43<93 185>
VStem: 48 18<539 563> 107 88<83 388> 212 18<540 563>
LayerCount: 3
Fore
SplineSet
620 -84 m 2
 620 -174 591 -212 501 -212 c 2
 -131 -212 l 2
 -221 -212 -260 -174 -260 -84 c 2
 -260 625 l 2
 -260 708 -212 754 -131 754 c 2
 471 754 l 2
 561 754 620 715 620 625 c 2
 620 -84 l 2
-131 718 m 2
 -191 718 -224 685 -224 625 c 2
 -224 -53 l 2
 -224 -113 -191 -136 -131 -136 c 2
 441 -136 l 2
 501 -136 524 -113 524 -53 c 2
 524 625 l 2
 524 685 501 718 441 718 c 2
 -131 718 l 2
109 214 m 2
 109 270 107 313 101 346 c 1
 103 348 l 1
 133 350 179 359 198 367 c 1
 202 367 205 365 205 359 c 0
 199 313 197 282 197 226 c 2
 197 173 l 2
 197 115 199 80 205 37 c 1
 203 35 l 1
 203 35 178 37 153 37 c 0
 127 37 102 35 102 35 c 1
 101 37 l 1
 107 78 109 116 109 173 c 2
 109 214 l 2
68.1 561 m 1
 69 521 97.8 491 141 491 c 0
 172.5 491 211.2 513 213 561 c 1
 234.6 540 l 1
 227.4 461 175.2 433 141 433 c 0
 86.1 433 50.1 479 45.6 540 c 1
 68.1 561 l 1
EndSplineSet
Colour: ff00ff
EndChar

StartChar: Iogonek
Encoding: 302 302 66
Width: 1100
VWidth: 999
Flags: HW
HStem: -126 29<463 526> 40 16<480 536 536 591> 42 19<515 542> 514 15<480 536 536 591>
VStem: 407 45<-88 -14> 488 96<45 524>
LayerCount: 3
Fore
SplineSet
1000 -84 m 2
 1000 -174 971 -212 881 -212 c 2
 249 -212 l 2
 159 -212 120 -174 120 -84 c 2
 120 625 l 2
 120 708 168 754 249 754 c 2
 851 754 l 2
 941 754 1000 715 1000 625 c 2
 1000 -84 l 2
249 718 m 2
 189 718 156 685 156 625 c 2
 156 -53 l 2
 156 -113 189 -136 249 -136 c 2
 821 -136 l 2
 881 -136 904 -113 904 -53 c 2
 904 625 l 2
 904 685 881 718 821 718 c 2
 249 718 l 2
477 -126 m 0
 437 -126 407 -103 407 -62 c 0
 407 -23.8 443 24.5 495 48.2 c 1
 500.2 87.3 502 137.3 502 191 c 2
 502 374 l 2
 502 431 500 482 494 524 c 1
 496 527 l 1
 496 527 524 524 550 524 c 0
 576 524 605 527 605 527 c 1
 606 524 l 1
 600 485 598 431 598 374 c 2
 598 191 l 2
 598 134 600 83 606 41 c 1
 604 38 l 1
 604 38 576 41 550 41 c 0
 546.4 41 542.8 40.9 539.2 40.8 c 0
 487.2 32.6 452 -17.2 452 -52 c 0
 452 -76 469 -97 496 -97 c 0
 518 -97 534 -86 548 -70 c 1
 560 -76 l 1
 542 -111 504 -126 477 -126 c 0
EndSplineSet
Position2: "'cpsp' Versalabstaende 1" dx=2 dy=0 dh=4 dv=0
Colour: ff80cc
EndChar

StartChar: iogonek
Encoding: 303 303 67
Width: 1100
VWidth: 999
Flags: HW
HStem: -112 29<454 516> 54 16<478 530 530 581> 56 19<504 532> 371 15<565 577> 455 104<492 567>
VStem: 398 45<-74 -0> 478 104<469 544> 485 88<59 363>
LayerCount: 3
Fore
SplineSet
473 518 m 0
 473 546 496 570 525 570 c 0
 554 570 577 546 577 518 c 0
 577 490 554 466 525 466 c 0
 496 466 473 490 473 518 c 0
1000 -84 m 2
 1000 -174 971 -212 881 -212 c 2
 249 -212 l 2
 159 -212 120 -174 120 -84 c 2
 120 625 l 2
 120 708 168 754 249 754 c 2
 851 754 l 2
 941 754 1000 715 1000 625 c 2
 1000 -84 l 2
249 718 m 2
 189 718 156 685 156 625 c 2
 156 -53 l 2
 156 -113 189 -136 249 -136 c 2
 821 -136 l 2
 881 -136 904 -113 904 -53 c 2
 904 625 l 2
 904 685 881 718 821 718 c 2
 249 718 l 2
467 -112 m 0
 427 -112 398 -89 398 -48 c 0
 398 -12.9 427.5 30.9 472.7 56.1 c 1
 477.4 92.7 479 128.6 479 180 c 2
 479 221 l 2
 479 277 477 320 471 353 c 1
 473 355 l 1
 503 357 549 366 568 374 c 1
 572 374 575 372 575 366 c 0
 569 320 567 289 567 233 c 2
 567 180 l 2
 567 122 569 87 575 44 c 1
 573 42 l 1
 573 42 548 44 523 44 c 0
 513.4 44 504 43.7 495.9 43.4 c 1
 463 24.6 443 -11.4 443 -39 c 0
 443 -63 459 -83 486 -83 c 0
 508 -83 524 -72 538 -56 c 1
 550 -62 l 1
 532 -97 494 -112 467 -112 c 0
EndSplineSet
Colour: ff80cc
EndChar

StartChar: Idotaccent
Encoding: 304 304 68
Width: 1100
VWidth: 999
Flags: HW
HStem: 114 16<493 549 549 604> 587 15<493 549 549 604> 649 104<508 582>
VStem: 493 104<663 738> 501 96<118 598>
LayerCount: 3
Fore
SplineSet
1000 -84 m 2
 1000 -174 971 -212 881 -212 c 2
 249 -212 l 2
 159 -212 120 -174 120 -84 c 2
 120 625 l 2
 120 708 168 754 249 754 c 2
 412.2 754 l 1
 417.3 777 437.9 795 463 795 c 0
 488.1 795 508.7 777 513.8 754 c 1
 851 754 l 2
 941 754 1000 715 1000 625 c 2
 1000 -84 l 2
249 718 m 2
 189 718 156 685 156 625 c 2
 156 -53 l 2
 156 -113 189 -136 249 -136 c 2
 821 -136 l 2
 881 -136 904 -113 904 -53 c 2
 904 625 l 2
 904 685 881 718 821 718 c 2
 508.5 718 l 1
 499.7 702.1 482.7 691 463 691 c 0
 443.3 691 426.3 702.1 417.5 718 c 1
 249 718 l 2
502 374 m 2
 502 431 500 482 494 524 c 1
 496 527 l 1
 496 527 524 524 550 524 c 0
 576 524 605 527 605 527 c 1
 606 524 l 1
 600 485 598 431 598 374 c 2
 598 191 l 2
 598 134 600 83 606 41 c 1
 604 38 l 1
 604 38 576 41 550 41 c 0
 524 41 495 38 495 38 c 1
 494 41 l 1
 500 81 502 134 502 191 c 2
 502 374 l 2
EndSplineSet
Substitution2: "'c2sc' Versale nach Kapitaelchen 1" idotaccent.sc
Position2: "'cpsp' Versalabstaende 1" dx=2 dy=0 dh=4 dv=0
Colour: ff00ff
EndChar

StartChar: afii10057
Encoding: 1032 1032 69
Width: 385
VWidth: 999
Flags: HW
HStem: 72 45<85 169> 551 15G<192 232 232 271>
VStem: 199 64<179 561>
AnchorPoint: "top_akzent" 231 684 basechar 0
AnchorPoint: "top_punkt" 230 622 basechar 0
LayerCount: 3
Back
SplineSet
208.019 94.2383 m 4
 186.861 0 136.831 -12.207 114.258 -12.207 c 4
 72.2656 -12.207 34.668 7.8125 34.668 41.9922 c 4
 34.668 63.4766 44.4336 82.5195 69.3359 82.5195 c 4
 86.9141 82.5195 101.9 71.8691 105.957 56.1523 c 4
 109.863 41.0156 117.676 32.7148 127.441 32.7148 c 4
 138.389 32.7148 147.876 44.2939 155.241 65.4297 c 4
EndSplineSet
Fore
SplineSet
199 273 m 2
 199 414 l 2
 199 470 198 521 192 564 c 1
 193 566 l 1
 193 566 206 564 232 564 c 0
 258 564 271 566 271 566 c 1
 271 564 l 1
 265 524 264 470 264 414 c 2
 264 290 l 2
 264 204 256 181 217 129 c 0
 186 89 145 72 98 72 c 0
 84 72 70 75 64 79 c 1
 64 81 l 1
 72 96 79 122 85 143 c 1
 93 144 l 1
 101 128 115 117 136 117 c 0
 196 117 199 207 199 273 c 2
EndSplineSet
EndChar

StartChar: afii10061
Encoding: 1036 1036 70
Width: 632
VWidth: 999
Flags: HW
HStem: 97 16<421 448 529 536> 98 16<161 216 216 272> 334 34<229 276> 527 67<427 509> 571 15<161 216 216 272> 624 92
VStem: 168 96<102 582> 305 151
LayerCount: 3
Fore
SplineSet
500.9 124.3 m 1
 501.7 145.5 502 167.9 502 191 c 2
 502 374 l 2
 502 418.3 500.8 459 497.4 494.7 c 1
 483.4 503.6 470.8 508 451 508 c 0
 434 508 407 494 380 458 c 0
 346 414 335 352 302 337 c 1
 302 334 l 1
 356 326 371.8 303.9 410 260 c 0
 459 203.7 469.9 167.9 500.9 124.3 c 1
367 208 m 0
 336 267 313 310 229 316 c 1
 229 350 l 1
 300 350 302 413 349 480 c 0
 381 527 426 575 484 575 c 0
 504 575 507 573 527 568 c 1
 530 563 l 1
 518.3 525.1 l 1
 527.7 524.5 539 524 550 524 c 0
 576 524 605 527 605 527 c 1
 606 524 l 1
 600 485 598 431 598 374 c 2
 598 191 l 2
 598 134 600 83 606 41 c 1
 604 38 l 1
 604 38 576 41 550 41 c 0
 524 41 495 38 495 38 c 1
 494 41 l 1
 495.8 53.3 497.4 66.9 498.5 81.4 c 1
 490.5 81.8 482.4 82 476 82 c 0
 456 82 456 80 439 79 c 1
 403 136 388 170 367 208 c 0
1000 -84 m 2
 1000 -174 971 -212 881 -212 c 2
 249 -212 l 2
 159 -212 120 -174 120 -84 c 2
 120 625 l 2
 120 708 168 754 249 754 c 2
 851 754 l 2
 941 754 1000 715 1000 625 c 2
 1000 -84 l 2
249 718 m 2
 189 718 156 685 156 625 c 2
 156 -53 l 2
 156 -113 189 -136 249 -136 c 2
 821 -136 l 2
 881 -136 904 -113 904 -53 c 2
 904 625 l 2
 904 685 881 718 821 718 c 2
 249 718 l 2
433.8 677.6 m 1
 485.5 634.7 l 1
 366.8 586.3 l 2
 349.2 578.6 338.1 576.4 331.5 576.4 c 0
 323.8 576.4 319.5 580.8 319.5 589.6 c 0
 319.5 595.1 321.6 598.4 331.5 606.1 c 2
 433.8 677.6 l 1
EndSplineSet
LCarets2: 1 89 
Colour: ff00ff
EndChar

StartChar: uni040D
Encoding: 1037 1037 71
Width: 700
VWidth: 999
Flags: HW
HStem: 108 16<165 221 221 276 470 525 525 581> 581 15<165 221 221 276 470 525 525 581>
VStem: 173 96<112 592> 477 96<112 592>
DStem2: 234 211 234 169 0.608002 0.793935<0 370.025>
LayerCount: 3
Fore
SplineSet
965.3 718 m 1
 987.5 697 1000 666.4 1000 625 c 2
 1000 -84 l 2
 1000 -103.8 998.5 -121.1 995.4 -136 c 1
 1125 -136 l 2
 1185 -136 1208 -113 1208 -53 c 2
 1208 625 l 2
 1208 685 1185 718 1125 718 c 2
 965.3 718 l 1
904 105.6 m 1
 904 460.6 l 1
 902.6 433.8 902 404.3 902 374 c 2
 902 191 l 2
 902 160.7 902.6 132.1 904 105.6 c 1
1304 -84 m 2
 1304 -174 1275 -212 1185 -212 c 2
 881 -212 l 1
 553 -212 l 1
 249 -212 l 2
 159 -212 120 -174 120 -84 c 2
 120 625 l 2
 120 708 168 754 249 754 c 2
 553 754 l 1
 851 754 l 1
 1155 754 l 2
 1245 754 1304 715 1304 625 c 2
 1304 -84 l 2
806 374 m 2
 806 431 804 482 798 524 c 1
 800 527 l 1
 800 527 828 524 854 524 c 0
 873.5 524 894.6 525.7 904 526.5 c 1
 904 625 l 2
 904 685 881 718 821 718 c 2
 553 718 l 2
 493 718 460 685 460 625 c 2
 460 476.2 l 1
 479 501 l 1
 479 459 l 1
 460 434.2 l 1
 460 -53 l 2
 460 -113 493 -136 553 -136 c 2
 821 -136 l 2
 881 -136 904 -113 904 -53 c 2
 904 38.4 l 1
 895.4 39.2 874.1 41 854 41 c 0
 828 41 799 38 799 38 c 1
 798 41 l 1
 804 81 806 134 806 191 c 2
 806 374 l 2
249 718 m 2
 189 718 156 685 156 625 c 2
 156 -53 l 2
 156 -113 189 -136 249 -136 c 2
 429.8 -136 l 1
 425.9 -121.1 424 -103.8 424 -84 c 2
 424 387.2 l 1
 234 139 l 1
 234 181 l 1
 424 429.2 l 1
 424 577.9 l 1
 417.8 579.3 409.8 581.9 399.6 586.4 c 2
 273.1 638.1 l 1
 334.7 675.5 l 1
 424 613.7 l 1
 424 625 l 2
 424 664.9 435.1 696.2 455.6 718 c 1
 249 718 l 2
502 374 m 2
 502 431 500 482 494 524 c 1
 496 527 l 1
 496 527 524 524 550 524 c 0
 576 524 605 527 605 527 c 1
 606 524 l 1
 600 485 598 431 598 374 c 2
 598 191 l 2
 598 134 600 83 606 41 c 1
 604 38 l 1
 604 38 576 41 550 41 c 0
 524 41 495 38 495 38 c 1
 494 41 l 1
 500 81 502 134 502 191 c 2
 502 374 l 2
EndSplineSet
LCarets2: 1 93 
Colour: ff00ff
EndChar

StartChar: afii10062
Encoding: 1038 1038 72
Width: 580
VWidth: 999
Flags: HW
HStem: 80 50<176 247> 567 15<117 125 190 200 423 437 490 492> 619 23<276 344>
VStem: 216 52<648 698> 350 52<647 698>
DStem2: 285 200 332 217 0.410131 0.912027<-79.0328 10.4721 85.0448 246.04>
LayerCount: 3
Fore
SplineSet
332 199 m 2
 295.9 119.1 259 62 191 62 c 0
 160 62 125 79 125 103 c 0
 125 124 137 141 161 141 c 0
 171 141 188 136 195 127 c 0
 200 120 212 112 222 112 c 0
 254 112 266 139 285 182 c 1
 220 333 140 504 110 564 c 1
 123 562 143 562 155 562 c 0
 168 562 184 562 197 564 c 1
 203 542 244 431 318 260 c 1
 364 368 413 488 433 564 c 1
 442 562 462 562 470 562 c 0
 479 562 488 562 497 564 c 1
 332 199 l 2
279 768 m 0
 279 729 232 710 185 710 c 0
 136 710 92 728 92 767 c 0
 92 784 101 791 121 791 c 0
 137 791 145 779 145 767 c 0
 145 766 144 762 144 761 c 0
 144 746 161 734 186 734 c 0
 208 734 227 744 227 761 c 1
 226 767 l 1
 226 779 233 791 250 791 c 0
 270 791 279 783 279 768 c 0
EndSplineSet
LCarets2: 1 76 
Colour: ff00ff
EndChar

StartChar: afii10020
Encoding: 1043 1043 73
Width: 481
VWidth: 999
Flags: HW
HStem: 78 16<137 177 177 217> 524 40<213 380>
VStem: 145 64<83 523>
LayerCount: 3
Fore
SplineSet
209 414 m 2
 209 231 l 2
 209 174 211 120 217 81 c 1
 216 78 l 1
 216 78 203 81 177 81 c 0
 152 81 138 78 138 78 c 1
 137 81 l 1
 143 123 145 174 145 231 c 2
 145 414 l 2
 145 471 143 524 137 564 c 1
 138 567 l 1
 138 567 152 564 177 564 c 2
 382 564 l 2
 398 564 415 565 427 567 c 1
 428 564 l 1
 428 554 427 550 427 543 c 0
 427 535 428 524 428 518 c 1
 427 515 l 1
 427 515 316 524 215 524 c 1
 210 506 209 427 209 414 c 2
EndSplineSet
Colour: ff00ff
EndChar

StartChar: afii10021
Encoding: 1044 1044 74
Width: 708
VWidth: 999
Flags: HW
HStem: 63 33<225 420> 514 33<288 420>
VStem: 110 27<-40 19> 426 64<109 503> 508 27<-40 19>
LayerCount: 3
Fore
SplineSet
214 63 m 2
 154 63 145 15 137 -40 c 1
 135 -42 l 1
 111 -42 l 1
 110 -40 l 1
 101 72 l 2
 101 79 105 85 123 87 c 0
 138 89 154 87 165 99 c 0
 184 118 198 172 222 289 c 1
 238 375 247 452 247 499 c 0
 247 516 245 532 243 547 c 1
 243 549 l 1
 243 549 264 547 289 547 c 2
 459 547 l 2
 484 547 498 549 498 549 c 1
 498 547 l 1
 492 507 491 453 491 397 c 2
 491 213 l 2
 491 131 496 90 522 87 c 1
 540 86 544 79 544 72 c 2
 535 -40 l 1
 534 -42 l 1
 510 -42 l 1
 508 -40 l 1
 500 15 491 63 431 63 c 2
 214 63 l 2
399 96 m 2
 413 96 418 101 420 108 c 0
 426 126 426 201 426 213 c 2
 426 397 l 2
 426 410 426 486 420 504 c 1
 415 511 412 514 401 514 c 2
 315 514 l 2
 295 514 288 507 286 488 c 0
 280 412 269 334 260 283 c 0
 243 195 225 121 225 105 c 0
 225 96 234 96 245 96 c 2
 399 96 l 2
EndSplineSet
EndChar

StartChar: afii10024
Encoding: 1046 1046 75
Width: 924
VWidth: 999
Flags: HW
HStem: 79 16G<142 149 226 251 673 698 775 782> 80 16<422 478 478 533> 316 34<389 434 490 535> 508 67<168 245 679 756> 553 15<422 478 478 533>
VStem: 430 96<84 563>
LayerCount: 3
Back
SplineSet
19.043 -0.976562 m 1xaa
 17.0898 0.976562 l 1x42
 17.0898 19.5312 l 2
 17.0898 24.9023 20.9961 27.832 24.9023 27.832 c 2
 33.6914 27.832 l 2
 66.4062 27.832 118.652 103.516 169.922 235.84 c 0
 193.344 296.293 219.238 358.398 281.25 358.398 c 1x92
 209.473 383.789 194.336 467.773 184.57 530.273 c 0
 180.176 559.57 161.621 587.402 141.113 587.402 c 0
 128.906 587.402 117.188 582.031 105.469 575.195 c 0
 94.2383 568.359 82.0312 562.5 70.3125 562.5 c 0
 51.2695 562.5 30.7617 580.566 30.7617 604.98 c 0
 30.7617 628.418 44.9219 652.344 92.2852 652.344 c 0
 155.762 652.344 211.426 599.609 219.238 541.992 c 0
 226.562 485.352 234.375 428.711 287.598 396.484 c 0
 311.523 381.836 355.957 381.348 389.16 381.348 c 1
 389.16 338.379 l 1
 282.715 338.379 261.719 281.25 224.609 179.688 c 0
 184.57 71.7773 156.25 0.976562 83.9844 0 c 2
 19.043 -0.976562 l 1xaa
836.914 -0.976562 m 1x82
 770.508 0 l 2
 698.242 0.976562 669.941 71.4258 630.859 179.688 c 0
 594.727 279.785 573.242 338.379 466.797 338.379 c 1
 466.797 381.348 l 1xa2
 500 381.348 542.969 381.836 566.895 396.484 c 0
 620.117 428.711 629.395 485.352 636.719 541.992 c 0
 644.531 599.609 700.195 652.344 763.672 652.344 c 0
 811.035 652.344 825.195 628.418 825.195 604.98 c 0
 825.195 580.566 804.688 562.5 785.645 562.5 c 0
 773.926 562.5 761.719 568.359 750.488 575.195 c 0
 738.77 582.031 727.051 587.402 714.844 587.402 c 0
 694.336 587.402 675.781 559.57 671.387 530.273 c 0
 661.621 467.773 646.484 383.789 574.707 358.398 c 1
 636.719 358.398 662.148 296.111 686.035 235.84 c 0
 738.281 104.004 789.551 27.832 822.266 27.832 c 2
 831.055 27.832 l 2x9a
 834.961 27.832 838.867 24.9023 838.867 19.5312 c 2
 838.867 0.976562 l 1x42
 836.914 -0.976562 l 1x82
EndSplineSet
Fore
SplineSet
736.5 143.9 m 1
 736.9 159.1 737 174.9 737 191 c 2
 737 374 l 2
 737 421.6 735.6 465 731.6 502.5 c 1
 723.1 506.2 713.7 508 701 508 c 0
 685 508 659 494 634 458 c 0
 602 414 591 352 560 337 c 1
 560 334 l 1
 612 326 626 304 663 260 c 0
 702.7 212.5 715.7 179.4 736.5 143.9 c 1
484 718 m 2
 424 718 391 685 391 625 c 2
 391 363.1 l 1
 401.9 354.8 415.5 350 434 350 c 1
 434 316 l 1
 417.4 314.8 403.2 311.9 391 307.6 c 1
 391 -53 l 2
 391 -113 424 -136 484 -136 c 2
 1056 -136 l 2
 1116 -136 1139 -113 1139 -53 c 2
 1139 625 l 2
 1139 685 1116 718 1056 718 c 2
 484 718 l 2
302 208 m 0
 282.7 170.1 268 136 234 79 c 1
 218 80 218 82 199 82 c 0
 182 82 154 80 144 79 c 1
 142 82 l 1
 202 148 200 187 261 260 c 0
 295.8 301.3 310.2 323.3 355 332.4 c 1
 355 343.1 l 1
 330.5 364.6 318.7 418.5 290 458 c 0
 265 494 239 508 223 508 c 0
 202 508 190 503 176 493 c 1
 168 495 l 1
 147 563 l 1
 151 568 l 1
 170 573 172 575 191 575 c 0
 247 575 289 526 320 480 c 0
 335.1 457.1 345.3 434.5 355 414.9 c 1
 355 625 l 2
 355 708 403 754 484 754 c 2
 1086 754 l 2
 1176 754 1235 715 1235 625 c 2
 1235 -84 l 2
 1235 -174 1206 -212 1116 -212 c 2
 484 -212 l 2
 394 -212 355 -174 355 -84 c 2
 355 287.1 l 1
 332.5 267.8 318.4 240.3 302 208 c 0
622 208 m 0
 592 267 570 310 490 316 c 1
 490 350 l 1
 557 350 560 413 604 480 c 0
 635 526 677 575 733 575 c 0
 752 575 754 573 773 568 c 1
 777 563 l 1
 765.1 524.5 l 1
 771.5 524.2 778.3 524 785 524 c 0
 811 524 840 527 840 527 c 1
 841 524 l 1
 835 485 833 431 833 374 c 2
 833 191 l 2
 833 134 835 83 841 41 c 1
 839 38 l 1
 839 38 811 41 785 41 c 0
 759 41 730 38 730 38 c 1
 729 41 l 1
 730.9 53.5 732.3 67.2 733.5 81.9 c 1
 730.5 82 727.6 82 725 82 c 0
 706 82 706 80 690 79 c 1
 656 136 641.3 170.1 622 208 c 0
EndSplineSet
Colour: ff80cc
EndChar

StartChar: afii10025
Encoding: 1047 1047 76
Width: 542
VWidth: 999
Flags: HW
HStem: 72 28<196 310> 333 28<185 297> 432 16G<103 135> 549 26<191 299>
VStem: 103 22<434 466> 348 60<405 508> 370 69<156 272>
LayerCount: 3
Back
SplineSet
257.324 -12.207 m 4
 171.387 -12.207 114.746 19.043 83.4961 43.457 c 4
 56.6406 64.4531 35.6445 95.2148 35.6445 122.07 c 4
 35.6445 147.949 48.3398 164.551 66.4062 164.551 c 4
 94.7266 164.551 106.445 152.344 117.188 119.629 c 4
 140.625 48.3398 195.801 21.4844 267.578 21.4844 c 4
68.3594 645.508 m 1
 49.3164 471.68 l 1
 79.1016 468.75 l 1
 86.4258 511.719 122.07 606.445 173.828 606.445 c 2
EndSplineSet
Fore
SplineSet
253 100 m 0
 305 100 370 132 370 213 c 0
 370 251 341 333 253 333 c 2
 199 333 l 2
 190 333 185 338 185 346 c 0
 185 354 190 360 199 360 c 2
 234 360 l 2
 323 360 348 419 348 460 c 0
 348 510 300 549 253 549 c 0
 161 549 144 493 126 432 c 1
 103 434 l 1
 118 565 l 1
 184 565 210 574 255 574 c 0
 325 574 408 539 408 468 c 0
 408 408 376 371 322 351 c 1
 375 336 439 305 439 225 c 0
 439 112 339 72 250 72 c 0
 190 72 153 95 130 113 c 0
 109 129 94 149 94 169 c 0
 94 189 102 204 119 204 c 0
 140 204 148 195 156 171 c 0
 172 125 196 100 253 100 c 0
EndSplineSet
EndChar

StartChar: afii10026
Encoding: 1048 1048 77
Width: 700
VWidth: 999
Flags: HW
HStem: 78 16<165 221 221 276 470 525 525 581> 552 15<165 221 221 276 470 525 525 581>
VStem: 173 96<83 562> 477 96<83 562>
DStem2: 234 181 234 139 0.608002 0.793935<0 370.025>
LayerCount: 3
Fore
SplineSet
965.3 718 m 1
 987.5 697 1000 666.4 1000 625 c 2
 1000 -84 l 2
 1000 -103.8 998.5 -121.1 995.4 -136 c 1
 1125 -136 l 2
 1185 -136 1208 -113 1208 -53 c 2
 1208 625 l 2
 1208 685 1185 718 1125 718 c 2
 965.3 718 l 1
904 105.6 m 1
 904 460.6 l 1
 902.6 433.8 902 404.3 902 374 c 2
 902 191 l 2
 902 160.7 902.6 132.1 904 105.6 c 1
249 718 m 2
 189 718 156 685 156 625 c 2
 156 -53 l 2
 156 -113 189 -136 249 -136 c 2
 429.8 -136 l 1
 425.9 -121.1 424 -103.8 424 -84 c 2
 424 387.2 l 1
 234 139 l 1
 234 181 l 1
 424 429.2 l 1
 424 625 l 2
 424 664.9 435.1 696.2 455.6 718 c 1
 249 718 l 2
502 374 m 2
 502 431 500 482 494 524 c 1
 496 527 l 1
 496 527 524 524 550 524 c 0
 576 524 605 527 605 527 c 1
 606 524 l 1
 600 485 598 431 598 374 c 2
 598 191 l 2
 598 134 600 83 606 41 c 1
 604 38 l 1
 604 38 576 41 550 41 c 0
 524 41 495 38 495 38 c 1
 494 41 l 1
 500 81 502 134 502 191 c 2
 502 374 l 2
1304 -84 m 2
 1304 -174 1275 -212 1185 -212 c 2
 881 -212 l 1
 553 -212 l 1
 249 -212 l 2
 159 -212 120 -174 120 -84 c 2
 120 625 l 2
 120 708 168 754 249 754 c 2
 553 754 l 1
 851 754 l 1
 1155 754 l 2
 1245 754 1304 715 1304 625 c 2
 1304 -84 l 2
806 374 m 2
 806 431 804 482 798 524 c 1
 800 527 l 1
 800 527 828 524 854 524 c 0
 873.5 524 894.6 525.7 904 526.5 c 1
 904 625 l 2
 904 685 881 718 821 718 c 2
 553 718 l 2
 493 718 460 685 460 625 c 2
 460 476.2 l 1
 479 501 l 1
 479 459 l 1
 460 434.2 l 1
 460 -53 l 2
 460 -113 493 -136 553 -136 c 2
 821 -136 l 2
 881 -136 904 -113 904 -53 c 2
 904 38.4 l 1
 895.4 39.2 874.1 41 854 41 c 0
 828 41 799 38 799 38 c 1
 798 41 l 1
 804 81 806 134 806 191 c 2
 806 374 l 2
EndSplineSet
EndChar

StartChar: afii10027
Encoding: 1049 1049 78
Width: 700
VWidth: 999
Flags: HW
HStem: 106 16<153 208 208 264 457 513 513 568> 580 15<153 208 208 264 457 513 513 568> 631 23<310 378>
VStem: 160 96<111 590> 250 52<660 710> 384 52<660 710> 465 96<111 590>
DStem2: 221 209 221 167 0.608002 0.793935<0 370.025>
LayerCount: 3
Fore
SplineSet
965.3 718 m 1
 987.5 697 1000 666.4 1000 625 c 2
 1000 -84 l 2
 1000 -103.8 998.5 -121.1 995.4 -136 c 1
 1125 -136 l 2
 1185 -136 1208 -113 1208 -53 c 2
 1208 625 l 2
 1208 685 1185 718 1125 718 c 2
 965.3 718 l 1
904 105.6 m 1
 904 460.6 l 1
 902.6 433.8 902 404.3 902 374 c 2
 902 191 l 2
 902 160.7 902.6 132.1 904 105.6 c 1
424 429.2 m 1
 424 625 l 2
 424 664.9 435.1 696.2 455.6 718 c 1
 265.2 718 l 1
 250.1 712.6 232.6 710 215 710 c 0
 211.6 710 208.2 710.1 204.8 710.3 c 1
 173 697.3 156 668.1 156 625 c 2
 156 -53 l 2
 156 -113 189 -136 249 -136 c 2
 429.8 -136 l 1
 425.9 -121.1 424 -103.8 424 -84 c 2
 424 387.2 l 1
 234 139 l 1
 234 181 l 1
 424 429.2 l 1
502 374 m 2
 502 431 500 482 494 524 c 1
 496 527 l 1
 496 527 524 524 550 524 c 0
 576 524 605 527 605 527 c 1
 606 524 l 1
 600 485 598 431 598 374 c 2
 598 191 l 2
 598 134 600 83 606 41 c 1
 604 38 l 1
 604 38 576 41 550 41 c 0
 524 41 495 38 495 38 c 1
 494 41 l 1
 500 81 502 134 502 191 c 2
 502 374 l 2
1304 -84 m 2
 1304 -174 1275 -212 1185 -212 c 2
 881 -212 l 1
 553 -212 l 1
 249 -212 l 2
 159 -212 120 -174 120 -84 c 2
 120 625 l 2
 120 667 132.3 699.5 155 721.4 c 1
 135.1 730.7 122 745.7 122 767 c 0
 122 784 131 791 151 791 c 0
 167 791 175 779 175 767 c 0
 175 766 174 762 174 761 c 0
 174 753.5 178.2 746.8 185.6 741.9 c 1
 203.5 749.9 224.8 754 249 754 c 2
 255.8 754 l 1
 256.6 756.2 257 758.5 257 761 c 2
 256 767 l 1
 256 779 263 791 280 791 c 0
 300 791 309 783 309 768 c 0
 309 763 308.2 758.3 306.8 754 c 1
 553 754 l 1
 851 754 l 1
 1155 754 l 2
 1245 754 1304 715 1304 625 c 2
 1304 -84 l 2
806 374 m 2
 806 431 804 482 798 524 c 1
 800 527 l 1
 800 527 828 524 854 524 c 0
 873.5 524 894.6 525.7 904 526.5 c 1
 904 625 l 2
 904 685 881 718 821 718 c 2
 553 718 l 2
 493 718 460 685 460 625 c 2
 460 476.2 l 1
 479 501 l 1
 479 459 l 1
 460 434.2 l 1
 460 -53 l 2
 460 -113 493 -136 553 -136 c 2
 821 -136 l 2
 881 -136 904 -113 904 -53 c 2
 904 38.4 l 1
 895.4 39.2 874.1 41 854 41 c 0
 828 41 799 38 799 38 c 1
 798 41 l 1
 804 81 806 134 806 191 c 2
 806 374 l 2
EndSplineSet
LCarets2: 1 81 
Colour: ff00ff
EndChar

StartChar: afii10033
Encoding: 1055 1055 79
Width: 708
VWidth: 999
Flags: HW
HStem: 78 16<156 196 196 236 472 512 512 552> 531 33<235 473>
VStem: 164 64<83 521> 479 64<83 521>
LayerCount: 3
Fore
SplineSet
512 564 m 2
 537 564 550 567 550 567 c 1
 551 564 l 1
 545 524 544 471 544 414 c 2
 544 231 l 2
 544 174 546 123 552 81 c 1
 550 78 l 1
 550 78 537 81 512 81 c 0
 485 81 472 78 472 78 c 1
 472 81 l 1
 478 120 479 174 479 231 c 2
 479 414 l 2
 479 427 478 504 473 522 c 1
 468 528 465 531 454 531 c 2
 254 531 l 2
 243 531 240 528 235 522 c 1
 230 504 229 427 229 414 c 2
 229 231 l 2
 229 174 230 120 236 81 c 1
 236 78 l 1
 236 78 223 81 196 81 c 0
 171 81 158 78 158 78 c 1
 156 81 l 1
 162 123 164 174 164 231 c 2
 164 414 l 2
 164 471 163 524 157 564 c 1
 158 567 l 1
 158 567 171 564 196 564 c 2
 512 564 l 2
EndSplineSet
Colour: ff00ff
EndChar

StartChar: afii10034
Encoding: 1056 1056 80
Width: 1100
VWidth: 999
Flags: HW
HStem: 79 16<361 415 415 471> 293 32<464 578> 538 32<441 582>
VStem: 369 94<83 300 328 531> 606 104<384 497>
LayerCount: 3
Fore
SplineSet
1000 -84 m 2
 1000 -174 971 -212 881 -212 c 2
 249 -212 l 2
 159 -212 120 -174 120 -84 c 2
 120 625 l 2
 120 708 168 754 249 754 c 2
 851 754 l 2
 941 754 1000 715 1000 625 c 2
 1000 -84 l 2
249 718 m 2
 189 718 156 685 156 625 c 2
 156 -53 l 2
 156 -113 189 -136 249 -136 c 2
 821 -136 l 2
 881 -136 904 -113 904 -53 c 2
 904 625 l 2
 904 685 881 718 821 718 c 2
 249 718 l 2
369 375 m 2
 369 431 367 482 361 525 c 1
 363 527 l 1
 363 527 390 525 415 525 c 0
 438 525 509 530 528 530 c 0
 667 530 711 450 711 406 c 0
 711 342 655 253 519 253 c 0
 492 253 480 255 463 260 c 1
 463 191 l 2
 463 135 465 84 471 41 c 1
 469 39 l 1
 469 39 441 41 415 41 c 0
 389 41 362 39 362 39 c 1
 361 41 l 1
 367 82 369 135 369 191 c 2
 369 375 l 2
463 465 m 2
 463 292 l 1
 473 287 496 285 515 285 c 0
 588 285 606 311 606 392 c 0
 606 487 575 498 523 498 c 0
 469 498 463 487 463 465 c 2
EndSplineSet
Colour: ff00ff
EndChar

StartChar: afii10035
Encoding: 1057 1057 81
Width: 1100
VWidth: 999
Flags: HW
HStem: 74 45<483 623> 532 42<483 626>
VStem: 292 109<229 402>
LayerCount: 3
Back
SplineSet
574.707 645.508 m 5
 593.75 471.68 l 5
 563.965 468.75 l 5
 556.641 511.719 520.996 606.445 469.238 606.445 c 6
EndSplineSet
Fore
SplineSet
1000 -84 m 2
 1000 -174 971 -212 881 -212 c 2
 249 -212 l 2
 159 -212 120 -174 120 -84 c 2
 120 625 l 2
 120 708 168 754 249 754 c 2
 851 754 l 2
 941 754 1000 715 1000 625 c 2
 1000 -84 l 2
249 718 m 2
 189 718 156 685 156 625 c 2
 156 -53 l 2
 156 -113 189 -136 249 -136 c 2
 821 -136 l 2
 881 -136 904 -113 904 -53 c 2
 904 625 l 2
 904 685 881 718 821 718 c 2
 249 718 l 2
554 534 m 0
 645 534 717 501 717 501 c 1
 719 498 l 1
 710 462 706 439 704 401 c 1
 696 400 l 1
 665 462 611 492 543 492 c 0
 482 492 401 444 401 292 c 0
 401 182 434 78 550 78 c 0
 620 78 671 94 724 153 c 1
 741 135 l 1
 690 68 608 34 536 34 c 0
 374 34 292 156 292 277 c 0
 292 425 427 534 554 534 c 0
EndSplineSet
Colour: ff00ff
EndChar

StartChar: afii10036
Encoding: 1058 1058 82
Width: 1100
VWidth: 999
Flags: HW
HStem: 78 16<476 531 531 586> 513 51<326 480 582 736>
VStem: 483 96<83 512>
LayerCount: 3
Fore
SplineSet
1000 -84 m 2
 1000 -174 971 -212 881 -212 c 2
 249 -212 l 2
 159 -212 120 -174 120 -84 c 2
 120 625 l 2
 120 708 168 754 249 754 c 2
 851 754 l 2
 941 754 1000 715 1000 625 c 2
 1000 -84 l 2
249 718 m 2
 189 718 156 685 156 625 c 2
 156 -53 l 2
 156 -113 189 -136 249 -136 c 2
 821 -136 l 2
 881 -136 904 -113 904 -53 c 2
 904 625 l 2
 904 685 881 718 821 718 c 2
 249 718 l 2
483 368 m 2
 483 380 482 455 477 473 c 1
 376 473 326 464 326 464 c 1
 324 467 l 1
 326 479 326 503 324 524 c 1
 326 527 l 1
 338 525 355 524 370 524 c 2
 692 524 l 2
 707 524 724 525 736 527 c 1
 738 524 l 1
 736 503 736 479 738 467 c 1
 736 464 l 1
 736 464 686 473 585 473 c 1
 580 455 579 380 579 368 c 2
 579 191 l 2
 579 134 580 83 586 41 c 1
 585 38 l 1
 585 38 556 41 531 41 c 0
 505 41 476 38 476 38 c 1
 476 41 l 1
 482 81 483 134 483 191 c 2
 483 368 l 2
EndSplineSet
Colour: ff00ff
EndChar

StartChar: afii10037
Encoding: 1059 1059 83
Width: 580
VWidth: 999
Flags: HW
HStem: 62 50<176 247> 549 15G<117 125 190 200 423 437 490 492>
DStem2: 285 182 332 199 0.410131 0.912027<-79.0328 10.4721 85.0448 246.04>
LayerCount: 3
Fore
SplineSet
332 199 m 2
 295.9 119.1 259 62 191 62 c 0
 160 62 125 79 125 103 c 0
 125 124 137 141 161 141 c 0
 171 141 188 136 195 127 c 0
 200 120 212 112 222 112 c 0
 254 112 266 139 285 182 c 1
 220 333 140 504 110 564 c 1
 123 562 143 562 155 562 c 0
 168 562 184 562 197 564 c 1
 203 542 244 431 318 260 c 1
 364 368 413 488 433 564 c 1
 442 562 462 562 470 562 c 0
 479 562 488 562 497 564 c 1
 332 199 l 2
EndSplineSet
EndChar

StartChar: afii10039
Encoding: 1061 1061 84
Width: 1100
VWidth: 999
Flags: HW
HStem: 79 21<309 352 433 449 605 621 734 769> 520 20<614 639 710 754>
DStem2: 398 155 422 135 0.593199 0.805056<-26.4267 172.53 246.653 439.717> 449 488 493 325 0.578967 -0.815351<-26.6196 162.358 218.978 419.486>
LayerCount: 3
Fore
SplineSet
1000 -84 m 2
 1000 -174 971 -212 881 -212 c 2
 249 -212 l 2
 159 -212 120 -174 120 -84 c 2
 120 625 l 2
 120 708 168 754 249 754 c 2
 851 754 l 2
 941 754 1000 715 1000 625 c 2
 1000 -84 l 2
249 718 m 2
 189 718 156 685 156 625 c 2
 156 -53 l 2
 156 -113 189 -136 249 -136 c 2
 821 -136 l 2
 881 -136 904 -113 904 -53 c 2
 904 625 l 2
 904 685 881 718 821 718 c 2
 249 718 l 2
746 38 m 1
 732 41 700 41 686 41 c 0
 673 41 641 41 627 38 c 1
 590.3 109 558.9 166.9 519.4 233.9 c 1
 479.8 173 439.4 106.8 402 38 c 1
 394 41 380 41 371 41 c 0
 362 41 332 41 323 38 c 1
 490 282.9 l 1
 335 527 l 1
 347 524 380 524 392 524 c 0
 405 524 437 524 451 527 c 1
 470.5 486.5 498.8 437.9 545 362.5 c 1
 592.4 431.4 610.7 460.3 647 527 c 1
 655 524 686 524 694 524 c 0
 702 524 717 524 725 527 c 1
 574 315.5 l 1
 746 38 l 1
EndSplineSet
Colour: ff00ff
EndChar

StartChar: afii10040
Encoding: 1062 1062 85
Width: 639
VWidth: 999
Flags: HW
HStem: 63 33<224 425> 534 15G<145 186 186 225 422 462 462 503>
VStem: 153 64<109 545> 430 64<99 545> 511 27<-40 19>
LayerCount: 3
Back
SplineSet
428.711 36.6211 m 2
 464.355 36.6211 467.773 51.2695 467.773 83.4961 c 10
548.34 76.6602 m 18
 548.34 51.7578 564.453 27.832 589.517 27.832 c 0
 614.15 27.832 618.276 16.585 618.652 7.8125 c 2
 625 -140.625 l 1
 598.145 -140.625 l 1
 583.74 -70.3125 540.039 2.44141 462.891 2.44141 c 2
622.07 644.204 m 25
 622.07 -297.852 l 25
EndSplineSet
Fore
SplineSet
494 213 m 2
 494 131 499 90 524 87 c 1
 543 86 547 79 547 72 c 2
 538 -40 l 1
 536 -42 l 1
 512 -42 l 1
 511 -40 l 1
 503 14 494 63 434 63 c 2
 186 63 l 2
 160 63 146 61 146 61 c 1
 146 63 l 1
 152 104 153 157 153 213 c 2
 153 397 l 2
 153 453 151 504 145 547 c 1
 146 549 l 1
 146 549 160 547 186 547 c 0
 212 547 224 549 224 549 c 1
 225 547 l 1
 219 507 218 453 218 397 c 2
 218 213 l 2
 218 201 218 126 224 108 c 0
 226 101 231 96 245 96 c 2
 403 96 l 2
 416 96 422 101 424 108 c 0
 429 126 430 201 430 213 c 2
 430 397 l 2
 430 453 428 507 422 547 c 1
 423 549 l 1
 423 549 436 547 462 547 c 0
 488 547 501 549 501 549 c 1
 503 547 l 1
 497 504 494 453 494 397 c 2
 494 213 l 2
EndSplineSet
EndChar

StartChar: afii10041
Encoding: 1063 1063 86
Width: 633
VWidth: 999
Flags: HW
HStem: 88 16<408 464 464 519> 274 48<242 354> 562 15G<144 184 184 224 408 464 464 519>
VStem: 152 64<346 572> 416 96<93 572>
LayerCount: 3
Back
SplineSet
400.391 2.44141 m 6x78
 400.391 2.44141 202.911 3.44141 76.6602 2.44141 c 20x78
 -31.25 -0.976562 l 5
 -33.6914 0.976562 l 5
 -33.6914 17.5781 l 6
 -33.6914 23.4375 -29.541 27.832 -24.9023 27.832 c 6
 1.46484 27.832 l 6xb8
 34.1797 28.8086 41.0156 35.1562 41.0156 74.707 c 14
 41.0156 571.777 l 6
 41.0156 610.84 34.9121 617.676 1.46484 617.676 c 6
 -28.3203 617.676 l 6
 -31.7383 617.676 -33.6914 619.141 -33.6914 622.559 c 6
 -33.6914 644.531 l 5
 -31.7383 646.484 l 5
 76.6602 644.531 l 4
 193.848 646.484 l 5
 195.801 644.692 l 5
 195.801 623.047 l 6
 195.801 619.629 193.848 617.676 190.43 617.676 c 6
 160.645 617.676 l 6
 128.418 617.676 121.582 611.816 121.582 571.777 c 6
 121.582 83.4961 l 22
 121.582 41.9922 129.395 36.6211 160.645 36.6211 c 6
 373.047 36.6211 l 6x78
 408.691 36.6211 412.109 51.2695 412.109 83.4961 c 14
 412.109 571.777 l 6
 412.109 603.516 410.635 617.061 373.047 617.676 c 6
 343.262 617.676 l 6
 339.844 617.676 337.891 619.141 337.891 622.559 c 6
 337.891 644.287 l 5
 340.332 646.484 l 5
 447.754 644.531 l 4
 563.477 646.484 l 5
 566.406 644.287 l 5
 566.406 623.047 l 6
 566.406 619.629 564.453 617.676 560.547 617.676 c 6
 531.25 617.676 l 6
 494.639 617.065 492.676 605.469 492.676 571.777 c 6
 492.676 76.6602 l 22
 492.676 45.8984 495.117 27.832 528.32 27.832 c 6
 544.922 27.832 l 6xb8
 552.246 27.832 565.918 20.5078 565.918 7.8125 c 6
 566.162 -142.822 l 5
 553.467 -142.822 547.607 -142.822 538.818 -142.822 c 5
 524.414 -72.5098 477.539 2.44141 400.391 2.44141 c 6x78
EndSplineSet
Fore
SplineSet
504 718 m 2
 444 718 411 685 411 625 c 2
 411 352.5 l 1
 418 357 l 1
 418 324 l 1
 411 319.3 l 1
 411 -53 l 2
 411 -113 444 -136 504 -136 c 2
 1076 -136 l 2
 1136 -136 1159 -113 1159 -53 c 2
 1159 625 l 2
 1159 685 1136 718 1076 718 c 2
 504 718 l 2
757 374 m 2
 757 431 755 482 749 524 c 1
 751 527 l 1
 751 527 779 524 805 524 c 0
 831 524 860 527 860 527 c 1
 861 524 l 1
 855 485 853 431 853 374 c 2
 853 191 l 2
 853 134 855 83 861 41 c 1
 859 38 l 1
 859 38 831 41 805 41 c 0
 779 41 750 38 750 38 c 1
 749 41 l 1
 755 81 757 134 757 191 c 2
 757 374 l 2
216 424 m 2
 216 404 l 2
 216 342 246 322 300 322 c 0
 315.3 322 343.2 323.4 375 335.1 c 1
 375 625 l 2
 375 708 423 754 504 754 c 2
 1106 754 l 2
 1196 754 1255 715 1255 625 c 2
 1255 -84 l 2
 1255 -174 1226 -212 1136 -212 c 2
 504 -212 l 2
 414 -212 375 -174 375 -84 c 2
 375 298.9 l 1
 336.4 280.4 300.6 274 269 274 c 0
 183 274 152 333 152 407 c 2
 152 424 l 2
 152 481 150 532 144 574 c 1
 146 577 l 1
 146 577 158 574 184 574 c 0
 210 574 223 577 223 577 c 1
 224 574 l 1
 218 535 216 481 216 424 c 2
EndSplineSet
EndChar

StartChar: afii10042
Encoding: 1064 1064 87
Width: 960
VWidth: 999
Flags: HW
HStem: 81 33<268 443 519 695> 552 15G<189 230 230 270 440 480 480 520 692 732 732 773>
VStem: 198 64<126 562> 448 64<126 562> 700 64<116 562>
LayerCount: 3
Fore
SplineSet
764 231 m 1
 765 174 766 123 772 81 c 1
 770 78 l 1
 770 78 758 81 732 81 c 2
 230 81 l 2
 204 81 191 78 191 78 c 1
 190 81 l 1
 196 121 198 174 198 231 c 2
 198 414 l 2
 198 471 195 522 189 564 c 1
 191 567 l 1
 191 567 204 564 230 564 c 0
 256 564 269 567 269 567 c 1
 270 564 l 1
 264 525 262 471 262 414 c 2
 262 231 l 2
 262 218 263 143 268 125 c 0
 270 118 276 114 289 114 c 2
 421 114 l 2
 434 114 440 118 442 125 c 0
 447 143 448 218 448 231 c 2
 448 414 l 2
 448 471 446 522 440 564 c 1
 441 567 l 1
 441 567 455 564 480 564 c 0
 506 564 519 567 519 567 c 1
 520 564 l 1
 514 525 512 471 512 414 c 2
 512 231 l 2
 512 218 513 143 518 125 c 1
 521 118 526 114 540 114 c 2
 673 114 l 2
 686 114 692 118 694 125 c 0
 699 143 700 218 700 231 c 2
 700 414 l 2
 700 471 698 525 692 564 c 1
 693 567 l 1
 693 567 706 564 732 564 c 0
 758 564 771 567 771 567 c 1
 773 564 l 1
 767 522 764 471 764 414 c 2
 764 231 l 1
EndSplineSet
EndChar

StartChar: afii10043
Encoding: 1065 1065 88
Width: 948
VWidth: 999
Flags: HW
HStem: 63 33<275 451 526 703> 534 15G<197 237 237 277 447 488 488 527 700 740 740 780>
VStem: 205 64<109 545> 455 64<109 545> 707 64<99 545> 788 27<-40 19>
LayerCount: 3
Back
SplineSet
732.422 36.6211 m 6
 768.066 36.6211 771.484 51.2695 771.484 83.4961 c 14
852.051 76.6602 m 22
 852.051 51.7578 868.164 27.832 893.228 27.832 c 4
 917.861 27.832 921.987 16.585 922.363 7.8125 c 6
 928.711 -140.625 l 5
 901.855 -140.625 l 5
 887.451 -70.3125 843.75 2.44141 766.602 2.44141 c 6
EndSplineSet
Fore
SplineSet
238 63 m 2
 212 63 198 61 198 61 c 1
 197 63 l 1
 203 104 205 157 205 213 c 2
 205 397 l 2
 205 453 203 504 197 547 c 1
 198 549 l 1
 198 549 212 547 237 547 c 0
 263 547 276 549 276 549 c 1
 277 547 l 1
 271 507 269 453 269 397 c 2
 269 213 l 2
 269 201 270 126 275 108 c 1
 278 101 283 96 296 96 c 2
 428 96 l 2
 442 96 447 101 449 108 c 0
 455 126 455 201 455 213 c 2
 455 397 l 2
 455 453 453 504 447 547 c 1
 449 549 l 1
 449 549 462 547 488 547 c 0
 514 547 527 549 527 549 c 1
 527 547 l 1
 521 507 520 453 520 397 c 2
 520 213 l 2
 520 201 521 126 526 108 c 0
 528 101 533 96 547 96 c 2
 680 96 l 2
 694 96 699 101 701 108 c 0
 707 126 707 201 707 213 c 2
 707 397 l 2
 707 453 706 507 700 547 c 1
 701 549 l 1
 701 549 713 547 740 547 c 0
 765 547 779 549 779 549 c 1
 780 547 l 1
 774 504 772 453 772 397 c 2
 772 213 l 2
 772 131 777 90 802 87 c 1
 821 86 824 79 824 72 c 2
 815 -40 l 1
 814 -42 l 1
 790 -42 l 1
 788 -40 l 1
 780 14 771 63 711 63 c 2
 238 63 l 2
EndSplineSet
EndChar

StartChar: afii10044
Encoding: 1066 1066 89
Width: 717
VWidth: 999
Flags: HW
HStem: 79 26<339 468> 327 33<352 483> 507 16G<129 282> 516 48<131 284>
VStem: 288 64<109 327 360 514> 532 70<158 281>
LayerCount: 3
Back
SplineSet
41.2598 645.508 m 5
 25.6348 471.68 l 5
 55.4199 468.75 l 5
 62.7441 511.719 94.9707 606.445 146.729 606.445 c 6
EndSplineSet
Fore
SplineSet
318 564 m 2
 346 564 359 567 359 567 c 1
 360 564 l 1
 354 525 354 471 352 414 c 1
 352 360 l 1
 396 360 l 2
 580 360 602 285 602 218 c 0
 602 93 484 79 394 79 c 0
 367 79 343 81 322 81 c 0
 296 81 281 78 281 78 c 1
 280 81 l 1
 286 121 288 174 288 231 c 2
 288 414 l 2
 288 427 287 498 282 516 c 1
 181 516 130 507 130 507 c 1
 129 510 l 1
 130 522 130 543 129 564 c 1
 130 567 l 1
 142 565 160 564 175 564 c 2
 318 564 l 2
352 327 m 1
 352 144 l 2
 352 119 354 105 395 105 c 0
 509 105 532 171 532 218 c 0
 532 263 512 327 416 327 c 2
 352 327 l 1
EndSplineSet
EndChar

StartChar: afii10045
Encoding: 1067 1067 90
Width: 786
VWidth: 999
Flags: HW
HStem: 79 16<542 598 598 653> 79 26<230 359> 327 33<243 374> 552 15<170 211 211 250> 552 15<542 598 598 653>
VStem: 178 64<109 327 360 562> 422 70<158 281> 550 96<83 563>
LayerCount: 3
Back
SplineSet
592.759 599.272 m 22
 592.759 608.74 592.461 615.552 591.87 619.692 c 4
 590.684 627.983 586.987 634.341 580.771 638.779 c 4
 576.924 642.031 568.643 643.662 555.913 643.662 c 6
 527.949 644.106 l 6
 524.697 644.404 523.066 645.884 523.066 648.545 c 6
 523.066 664.082 l 5
 626.05 661.865 l 4
 733.472 664.082 l 5
 733.472 649.434 l 6
 733.472 646.182 731.694 644.404 728.145 644.106 c 6
 700.625 643.662 l 6
 687.896 643.662 679.614 642.031 675.767 638.779 c 4
 668.96 633.452 665.259 627.095 664.668 619.692 c 4
 664.077 613.179 663.779 606.377 663.779 599.272 c 14
 663.779 92.7939 l 6
 663.779 85.6914 664.077 78.8857 664.668 72.375 c 4
 665.259 64.9766 668.96 58.6133 675.767 53.2871 c 4
 679.614 50.3281 687.896 48.7002 700.625 48.4043 c 6
 728.145 47.9609 l 6
 731.694 47.9609 733.472 46.333 733.472 43.0771 c 6
 733.472 27.9854 l 5
 626.05 30.2051 l 4
 523.066 27.9854 l 5
 523.066 43.5215 l 6
 523.066 46.4805 524.697 47.9609 527.949 47.9609 c 6
 555.913 48.4043 l 6
 568.643 48.7002 576.924 50.3281 580.771 53.2871 c 4
 586.987 57.7266 590.684 64.0889 591.87 72.375 c 4
 592.456 76.5176 592.759 83.3242 592.759 92.7939 c 6
 592.759 599.272 l 22
197.693 597.5 m 14
 197.693 386.207 l 21
 250.96 386.207 l 6
 329.092 386.207 386.649 377.328 423.635 359.572 c 4
 492.29 326.725 526.616 274.789 526.616 203.767 c 4
 526.616 145.173 504.126 99.748 459.146 67.4922 c 4
 423.635 42.042 381.465 29.3174 332.637 29.3174 c 6
 56.9795 29.3174 l 5
 56.9795 44.8535 l 6
 56.9795 47.7607 58.6074 49.2402 61.8623 49.293 c 6
 89.8271 49.7363 l 6
 102.428 49.9365 110.714 51.5645 114.686 54.6191 c 4
 120.899 59.0586 124.6 65.4199 125.782 73.707 c 4
 126.375 77.8477 126.67 84.6533 126.67 94.125 c 14
 126.67 597.5 l 22
 126.67 606.968 126.375 613.779 125.782 617.92 c 4
 124.732 625.273 121.033 631.636 114.686 637.007 c 4
 111.082 640.054 102.797 641.68 89.8271 641.89 c 6
 61.8623 642.334 l 6
 58.6074 642.378 56.9795 643.862 56.9795 646.772 c 6
 56.9795 662.305 l 5
 159.962 660.088 l 4
 267.385 662.305 l 5
 267.385 647.661 l 6
 267.385 644.165 265.608 642.388 262.058 642.334 c 6
 234.536 641.89 l 6
 221.564 641.68 213.277 640.054 209.678 637.007 c 4
 202.873 631.68 199.172 625.317 198.581 617.92 c 4
 197.989 611.406 197.693 604.6 197.693 597.5 c 14
197.693 354.689 m 13
 197.693 61.7207 l 21
 238.235 54.0273 277.594 52.252 315.769 56.3945 c 4
 362.229 61.7207 397.149 80.2168 420.527 111.881 c 4
 438.283 135.555 447.16 166.628 447.16 205.099 c 4
 447.16 240.313 437.543 272.126 418.308 300.535 c 4
 393.746 336.639 349.356 354.689 285.14 354.689 c 6
 197.693 354.689 l 13
EndSplineSet
Fore
SplineSet
218 327 m 1
 218 144 l 2
 218 119 220 105 261 105 c 0
 375 105 398 171 398 218 c 0
 398 263 378 327 282 327 c 2
 218 327 l 1
188 81 m 0
 162 81 147 78 147 78 c 1
 146 81 l 1
 152 121 154 174 154 231 c 2
 154 414 l 2
 154 471 152 522 146 564 c 1
 147 567 l 1
 147 567 161 564 186 564 c 0
 212 564 225 567 225 567 c 1
 226 564 l 1
 220 525 218 471 218 414 c 2
 218 360 l 1
 262 360 l 2
 446 360 468 285 468 218 c 0
 468 93 350 79 260 79 c 0
 233 79 210 81 188 81 c 0
1369 -83 m 2
 1369 -173 1340 -211 1250 -211 c 2
 618 -211 l 2
 528 -211 489 -173 489 -83 c 2
 489 626 l 2
 489 709 537 755 618 755 c 2
 1220 755 l 2
 1310 755 1369 716 1369 626 c 2
 1369 -83 l 2
618 719 m 2
 558 719 525 686 525 626 c 2
 525 -52 l 2
 525 -112 558 -135 618 -135 c 2
 1190 -135 l 2
 1250 -135 1273 -112 1273 -52 c 2
 1273 626 l 2
 1273 686 1250 719 1190 719 c 2
 618 719 l 2
871 375 m 2
 871 432 869 483 863 525 c 1
 865 528 l 1
 865 528 893 525 919 525 c 0
 945 525 974 528 974 528 c 1
 975 525 l 1
 969 486 967 432 967 375 c 2
 967 192 l 2
 967 135 969 84 975 42 c 1
 973 39 l 1
 973 39 945 42 919 42 c 0
 893 42 864 39 864 39 c 1
 863 42 l 1
 869 82 871 135 871 192 c 2
 871 375 l 2
EndSplineSet
Colour: ff00ff
EndChar

StartChar: afii10046
Encoding: 1068 1068 91
Width: 558
VWidth: 999
Flags: HW
HStem: 79 26<205 335> 327 33<218 350> 552 15G<146 186 186 226>
VStem: 154 64<109 327 360 562> 398 70<158 281>
LayerCount: 3
Fore
SplineSet
218 327 m 1
 218 144 l 2
 218 119 220 105 261 105 c 0
 375 105 398 171 398 218 c 0
 398 263 378 327 282 327 c 2
 218 327 l 1
188 81 m 0
 162 81 147 78 147 78 c 1
 146 81 l 1
 152 121 154 174 154 231 c 2
 154 414 l 2
 154 471 152 522 146 564 c 1
 147 567 l 1
 147 567 161 564 186 564 c 0
 212 564 225 567 225 567 c 1
 226 564 l 1
 220 525 218 471 218 414 c 2
 218 360 l 1
 262 360 l 2
 446 360 468 285 468 218 c 0
 468 93 350 79 260 79 c 0
 233 79 210 81 188 81 c 0
EndSplineSet
EndChar

StartChar: afii10047
Encoding: 1069 1069 92
Width: 604
VWidth: 999
Flags: HMW
HStem: 72 26<221 345> 286 42<307 392> 314 37<192 288> 546 28<217 335>
VStem: 429 67<220 311 339 426>
LayerCount: 3
Back
SplineSet
278.809 657.715 m 0x9c
 439.453 657.715 556.152 545.41 556.152 324.219 c 0
 556.152 143.066 434.082 -12.207 264.16 -12.207 c 0
 178.16 -12.207 120.117 19.043 88.8672 43.457 c 0
 62.0977 64.3711 43.457 91.1641 43.457 118.164 c 0
 43.457 144.043 60.0586 164.551 83.0078 164.551 c 0
 111.328 164.551 124.487 152.379 135.254 119.629 c 0
 158.691 48.3398 207.52 21.4844 279.297 21.4844 c 0
 406.738 21.4844 464.844 190.43 466.797 301.758 c 1x9c
 263.184 296.391 l 2xac
 247.494 296.02 225.374 292.479 205.866 292.479 c 0
 182.292 292.479 162.531 297.648 162.531 319.824 c 0
 162.531 344.693 180.365 350.412 202.663 350.412 c 0xcc
 220.644 350.412 241.526 346.693 258.301 346.297 c 2xac
 466.797 340.82 l 1
 460.938 563.477 349.609 621.094 270.508 621.094 c 0
 176.27 621.094 97.6562 539.551 71.7773 453.613 c 1
 41.5039 458.496 l 1
 51.2695 509.766 60.4297 558.179 63.4766 612.793 c 1
 121.094 616.211 173.828 657.715 278.809 657.715 c 0x9c
EndSplineSet
Fore
SplineSet
429 311 m 1
 388 286 355 286 345 286 c 0
 299 286 267 314 222 314 c 0
 194 314 182 302 176 302 c 0
 173 302 169 304 169 311 c 0
 169 330 216 351 261 351 c 0
 310 351 332 328 375 328 c 0
 397 328 414 332 429 339 c 1
 421 493 339 546 279 546 c 0
 207 546 149 486 129 421 c 1
 107 424 l 1
 115 464 121 499 123 540 c 1
 166 543 206 574 285 574 c 0
 408 574 496 493 496 330 c 0
 496 166 409 72 282 72 c 0
 217 72 175 95 152 113 c 0
 132 129 116 152 116 172 c 0
 116 192 125 204 138 204 c 0
 160 204 169 195 177 171 c 0
 195 117 236 96 290 96 c 0
 385 96 429 208 429 311 c 1
EndSplineSet
EndChar

StartChar: afii10048
Encoding: 1070 1070 93
Width: 905
VWidth: 999
Flags: HW
HStem: 72 29<510 619> 78 16<194 250 250 306> 307 33<263 336> 545 29<494 606> 552 15<194 250 250 306>
VStem: 202 96<83 562> 336 72<226 307 340 416> 700 72<224 424>
LayerCount: 3
Fore
SplineSet
1000 -84 m 2
 1000 -174 971 -212 881 -212 c 2
 249 -212 l 2
 159 -212 120 -174 120 -84 c 2
 120 625 l 2
 120 708 168 754 249 754 c 2
 851 754 l 2
 941 754 1000 715 1000 625 c 2
 1000 -84 l 2
249 718 m 2
 189 718 156 685 156 625 c 2
 156 -53 l 2
 156 -113 189 -136 249 -136 c 2
 821 -136 l 2
 881 -136 904 -113 904 -53 c 2
 904 625 l 2
 904 685 881 718 821 718 c 2
 249 718 l 2
544 545 m 0
 481 545 408 484 408 326 c 0
 408 222.5 448.3 151.5 500.7 119.8 c 1
 501.6 142.3 502 166.3 502 191 c 2
 502 374 l 2
 502 431 500 482 494 524 c 1
 496 527 l 1
 496 527 524 524 550 524 c 0
 576 524 605 527 605 527 c 1
 606 524 l 1
 600 485 598 431 598 374 c 2
 598 191 l 2
 598 161 598.6 132.6 600 106.3 c 1
 659.8 126 700 199.4 700 313 c 0
 700 469 638 545 544 545 c 0
263 340 m 1
 337 340 l 1
 347 474 435 574 552 574 c 0
 678 574 772 476 772 328 c 0
 772 197.3 706.8 100 602 77.1 c 1
 603.1 64.4 604.4 52.4 606 41 c 1
 604 38 l 1
 604 38 576 41 550 41 c 0
 524 41 495 38 495 38 c 1
 494 41 l 1
 495.7 52.6 497.1 65.2 498.2 78.7 c 1
 405.8 102 337.7 185.1 336 307 c 1
 263 307 l 1
 263 340 l 1
EndSplineSet
EndChar

StartChar: afii10049
Encoding: 1071 1071 94
Width: 561
VWidth: 999
Flags: HW
HStem: 79 16G<60 68 144 155 337 377 377 416> 296 33<264 344> 541 29<222 358>
VStem: 113 73<375 505> 344 64<83 296 329 533>
LayerCount: 3
Back
SplineSet
387.695 322.754 m 21
 281.25 322.754 266.602 281.738 230.469 179.688 c 4
 191.895 70.3125 163.085 1.07129 91.3086 0 c 6
 25.8789 -0.976562 l 5xa2
 24.4141 0.976562 l 5x62
 24.4141 19.5312 l 6
 24.4141 24.9023 27.832 27.832 31.7383 27.832 c 6xb2
 41.0156 27.832 l 6
 73.7305 27.832 125 102.539 176.758 235.84 c 4
 200.684 296.387 219.238 342.773 281.25 342.773 c 5
 263.021 350.424 84.1318 351.723 83.9844 504.395 c 5
 83.9844 562.5 117.676 646.484 303.711 646.484 c 4
 338.867 646.484 397.461 644.531 430.176 644.531 c 4
 461.914 644.531 558.594 646.484 558.594 646.484 c 5
 558.594 624.512 l 6
 558.594 620.605 556.763 617.676 551.27 617.676 c 6
 521.484 617.676 l 6
 479.98 617.676 468.262 607.939 468.262 573.73 c 6
 468.262 71.2891 l 6
 468.262 40.5273 483.398 27.832 522.949 27.832 c 6
 549.316 27.832 l 6
 553.711 27.832 557.617 24.9023 557.617 19.5312 c 6
 557.617 0.976562 l 5
 555.664 -0.976562 l 5
 555.664 -0.976562 468.75 0.976562 429.688 0.976562 c 4
 394.043 0.976562 300.781 -0.976562 300.781 -0.976562 c 5
 298.828 0.976562 l 5
 298.828 19.5312 l 6
 298.828 24.9023 301.758 27.832 306.641 27.832 c 6
 333.008 27.832 l 6
 374.023 27.832 387.695 43.457 387.695 71.2891 c 6
 387.695 322.754 l 21
387.695 575.195 m 6
 387.695 365.723 l 5
 310.059 365.723 l 6
 227.051 365.723 161.133 417.969 161.133 502.441 c 4
 161.133 594.727 240.723 611.328 296.875 611.328 c 4x36
 383.301 611.328 387.695 607.91 387.695 575.195 c 6
EndSplineSet
Fore
SplineSet
223.9 306.3 m 1
 208.9 310.1 197.7 314.8 188 320 c 0
 147 340 113 379 113 440 c 0
 113 478 126 509 152 534 c 0
 188 568 236 570 283 570 c 0
 302 570 354 565 377 565 c 0
 402 565 415 567 415 567 c 1
 416 565 l 1
 410 522 409 471 409 415 c 2
 409 231 l 2
 409 175 410 122 416 81 c 1
 416 79 l 1
 416 79 403 81 377 81 c 0
 351 81 338 79 338 79 c 1
 337 81 l 1
 343 124 344 175 344 231 c 2
 344 296 l 1
 325.6 296 309.3 296.4 295 297.1 c 1
 273.5 272.5 251.5 242.3 231 213 c 0
 193.1 158.9 159 104 151 79 c 1
 137 81 114 81 100 81 c 0
 85 81 76 81 61 79 c 1
 60 81 l 1
 96.8 123.5 176.4 242.6 223.9 306.3 c 1
282 541 m 0
 236 541 186 528 186 440 c 0
 186 346 236 329 308 329 c 2
 344 329 l 1
 344 508 l 2
 344 530 336 541 282 541 c 0
EndSplineSet
EndChar

StartChar: afii10089
Encoding: 1095 1095 95
Width: 510
VWidth: 999
Flags: HW
HStem: 58 16<301 338 338 376> 163 33<180 284> 369 15G<101 139 139 176 301 338 338 376>
VStem: 109 60<207 380> 308 60<62 380>
LayerCount: 3
Back
SplineSet
664.062 430.664 m 5
 666.016 428.711 l 5
 666.016 410.156 l 6
 666.016 404.785 663.086 401.855 658.203 401.855 c 6
 631.836 401.855 l 6
 590.82 401.855 74.2188 401.855 34.668 401.855 c 6
 8.30078 401.855 l 6
 3.90625 401.855 0 404.785 0 410.156 c 6
 0 428.711 l 5
 1.95312 430.664 l 5
 664.062 430.664 l 5
-122.07 428.711 m 5
 785.156 428.711 l 5
-57.1289 0.976562 m 5
 990.234 0.976562 l 5
741.699 27.832 m 6
 768.066 27.832 l 6
 772.461 27.832 776.367 24.9023 776.367 19.5312 c 6
 776.367 0.976562 l 5
 774.414 -0.976562 l 5
 9.27734 -0.976562 l 5
 7.32422 0.976562 l 5
 7.32422 19.5312 l 6
 7.32422 24.9023 10.2539 27.832 15.1367 27.832 c 6
 41.5039 27.832 l 6
 82.5195 27.832 702.148 27.832 741.699 27.832 c 6
EndSplineSet
Fore
SplineSet
109 279 m 0
 109 335 107 342 101 382 c 1
 102 384 l 1
 102 384 112 382 139 382 c 0
 164 382 175 384 175 384 c 1
 176 382 l 1
 170 339 169 336 169 280 c 0
 169 222 175 196 221 196 c 0
 245 196 265.2 199.8 283 209 c 1
 283 241 l 2
 283 294 282 335 276 375 c 1
 276 378 l 1
 276 378 287 375 313 375 c 0
 338 375 349 378 349 378 c 1
 350 375 l 1
 344 333 344 297 343 241 c 1
 343 188 l 2
 343 132 344 96 350 54 c 1
 349 51 l 1
 349 51 338 54 313 54 c 0
 287 54 276 51 276 51 c 1
 276 54 l 1
 281.6 91.7 282.9 127.6 283 178.4 c 1
 263.1 168.3 242 163 211 163 c 0
 138 163 109 199 109 279 c 0
EndSplineSet
EndChar

StartChar: afii10090
Encoding: 1096 1096 96
Width: 807
VWidth: 999
Flags: HW
HStem: 54 31<240 367 439 568> 363 15G<166 204 204 241 366 403 403 441 565 603 603 641>
VStem: 174 60<95 373> 373 60<95 373> 573 60<86 373>
CounterMasks: 1 38
LayerCount: 3
Fore
SplineSet
633 204 m 2
 633 148 634 94 640 54 c 1
 639 51 l 1
 639 51 626 54 600 54 c 2
 206 54 l 2
 180 54 167 51 167 51 c 1
 166 54 l 1
 172 94 174 147 174 204 c 2
 174 241 l 2
 174 297 173 333 166 375 c 1
 168 378 l 1
 168 378 178 375 204 375 c 0
 230 375 240 378 240 378 c 1
 241 375 l 1
 234 335 234 297 234 241 c 2
 234 204 l 2
 234 191 234 112 240 94 c 1
 245 87 248 84 259 84 c 2
 348 84 l 2
 359 84 362 87 367 94 c 1
 372 112 373 191 373 204 c 2
 373 241 l 2
 373 297 372 333 366 375 c 1
 367 378 l 1
 367 378 378 375 403 375 c 0
 429 375 440 378 440 378 c 1
 441 375 l 1
 434 335 433 297 433 241 c 2
 433 204 l 2
 433 191 434 112 439 94 c 1
 444 87 447 84 459 84 c 2
 558 84 l 2
 569 84 561 87 567 94 c 1
 572 112 573 191 573 204 c 2
 573 240 l 2
 573 297 572 333 565 375 c 1
 567 378 l 1
 567 378 578 375 603 375 c 0
 630 375 640 378 640 378 c 1
 641 375 l 1
 634 335 633 297 633 240 c 2
 633 204 l 2
EndSplineSet
EndChar

StartChar: afii10091
Encoding: 1097 1097 97
Width: 813
VWidth: 999
Flags: HW
HStem: 38 31<247 374 447 575> 347 15G<174 211 211 248 373 410 410 448 572 611 611 648>
VStem: 181 60<79 358> 380 60<79 358> 580 60<69 358> 656 27<-56 -0>
LayerCount: 3
Back
SplineSet
496.094 31.7383 m 6
 463.379 31.7383 459.961 45.4102 459.961 75.1953 c 14
385.254 72.7539 m 22
 385.254 49.8047 370.605 27.832 347.168 27.832 c 4
 324.219 27.832 320.312 17.0898 320.312 9.27734 c 6
 314.453 -128.418 l 5
 339.355 -128.418 l 5
 352.539 -63.4766 393.066 3.90625 464.355 3.90625 c 6
601.562 35.6445 m 6
 634.277 35.6445 637.695 49.3164 637.695 79.1016 c 14
712.402 72.7539 m 22
 712.402 49.8047 727.051 27.832 750.488 27.832 c 4
 773.438 27.832 777.344 17.0898 777.344 9.27734 c 6
 783.203 -128.418 l 5
 758.301 -128.418 l 5
 745.117 -63.4766 704.59 3.90625 633.301 3.90625 c 6
EndSplineSet
Fore
SplineSet
213 38 m 2
 188 38 174 36 174 36 c 1
 174 38 l 1
 180 78 181 132 181 188 c 2
 181 226 l 2
 181 282 180 317 174 360 c 1
 175 362 l 1
 175 362 186 360 211 360 c 0
 237 360 248 362 248 362 c 1
 248 360 l 1
 242 319 241 281 241 226 c 2
 241 188 l 2
 241 175 242 96 247 78 c 1
 252 72 255 69 266 69 c 2
 355 69 l 2
 366 69 369 72 374 78 c 1
 380 96 380 175 380 188 c 2
 380 226 l 2
 380 282 380 317 373 360 c 1
 374 362 l 1
 374 362 385 360 410 360 c 0
 437 360 447 362 447 362 c 1
 448 360 l 1
 441 319 440 281 440 226 c 2
 440 188 l 2
 440 175 441 96 446 78 c 1
 452 72 455 69 466 69 c 2
 565 69 l 2
 576 69 569 72 574 78 c 1
 579 96 580 175 580 188 c 2
 580 225 l 2
 580 282 579 317 572 360 c 1
 574 362 l 1
 574 362 585 360 611 360 c 0
 637 360 648 362 648 362 c 1
 648 360 l 1
 642 320 640 281 640 225 c 2
 640 188 l 2
 640 106 645 64 670 62 c 0
 689 60 692 54 692 46 c 2
 684 -56 l 1
 682 -58 l 1
 658 -58 l 1
 656 -56 l 1
 648 -1 639 38 579 38 c 2
 213 38 l 2
EndSplineSet
EndChar

StartChar: afii10092
Encoding: 1098 1098 98
Width: 539
VWidth: 999
Flags: HW
HStem: 52 27<260 369> 218 28<272 369> 334 41<94 210>
VStem: 212 60<84 218 246 333> 388 60<99 201>
LayerCount: 3
Back
SplineSet
38.0859 429.688 m 9
 26.3672 277.832 l 25
 53.2227 275.391 l 17
 65.4297 332.52 79.5898 391.113 137.207 391.113 c 10
EndSplineSet
Fore
SplineSet
212 241 m 2
 212 294 210 334 210 334 c 1
 116 334 93 326 93 326 c 1
 92 328 l 1
 93 339 93 356 92 375 c 1
 93 377 l 1
 104 376 120 375 134 375 c 2
 242 375 l 2
 268 375 278 378 278 378 c 1
 280 375 l 1
 273 333 272 304 272 248 c 2
 272 246 l 1
 315 246 l 2
 387 246 448 226 448 156 c 0
 448 93 402 52 319 52 c 0
 289 52 272 54 242 54 c 0
 216 54 206 51 206 51 c 1
 205 54 l 1
 212 94 212 132 212 188 c 2
 212 241 l 2
388 148 m 0
 388 188 376 218 322 218 c 2
 272 218 l 1
 272 113 l 2
 272 87 285 79 320 79 c 0
 357 79 388 87 388 148 c 0
EndSplineSet
EndChar

StartChar: afii10093
Encoding: 1099 1099 99
Width: 681
VWidth: 999
Flags: HW
HStem: 51 16<456 494 494 531> 52 27<208 317> 218 28<220 317> 363 15<152 190 190 228 456 494 494 531>
VStem: 160 60<84 218 246 373> 336 60<99 201> 464 60<56 373>
LayerCount: 3
Fore
SplineSet
199 248 m 2
 199 246 l 1
 242 246 l 2
 314 246 375 226 375 156 c 0
 375 93 329 52 246 52 c 0
 216 52 199 54 169 54 c 0
 143 54 132 51 132 51 c 1
 132 54 l 1
 138 94 139 132 139 188 c 2
 139 241 l 2
 139 294 138 335 132 375 c 1
 132 378 l 1
 132 378 143 375 169 375 c 0
 195 375 205 378 205 378 c 1
 207 375 l 1
 200 333 199 304 199 248 c 2
315 148 m 0
 315 188 303 218 249 218 c 2
 199 218 l 1
 199 113 l 2
 199 87 212 79 246 79 c 0
 284 79 315 87 315 148 c 0
413 241 m 2
 413 294 412 335 406 375 c 1
 406 378 l 1
 406 378 417 375 443 375 c 0
 468 375 479 378 479 378 c 1
 480 375 l 1
 474 333 474 297 473 241 c 1
 473 188 l 2
 473 132 474 96 480 54 c 1
 479 51 l 1
 479 51 468 54 443 54 c 0
 417 54 406 51 406 51 c 1
 406 54 l 1
 412 94 413 132 413 188 c 2
 413 241 l 2
EndSplineSet
Colour: ff00ff
EndChar

StartChar: afii10094
Encoding: 1100 1100 100
Width: 447
VWidth: 999
Flags: HW
HStem: 52 27<187 296> 218 28<199 296> 363 15G<132 169 169 207>
VStem: 139 60<84 218 246 373> 315 60<99 201>
LayerCount: 3
Back
SplineSet
180.664 357.422 m 6
 180.664 385.742 190.918 401.367 223.633 401.367 c 6
 242.676 401.367 l 6
 247.07 401.367 250.977 404.297 250.977 409.668 c 6
 250.977 428.223 l 5
 249.023 430.176 l 5
 249.023 430.176 180.664 428.223 141.602 428.223 c 4
 105.957 428.223 38.0859 430.176 38.0859 430.176 c 5
 36.1328 428.223 l 5
 36.1328 409.668 l 6
 36.1328 404.297 39.0625 401.367 43.9453 401.367 c 6
 62.9883 401.367 l 6
 96.6797 401.367 105.957 385.742 105.957 357.422 c 6
 105.957 108.398 l 2
 105.957 55.1758 97.168 46.875 83.4961 46.875 c 0
 70.3125 46.875 58.5938 48.3398 41.5039 51.7578 c 1
 36.6211 24.4141 l 1
 100.146 13.8271 112.061 9.0332 140.625 -4.45605 c 0
 151.082 -9.39453 158.317 -12.6953 165.527 -12.6953 c 2
 180.664 -12.6953 l 1
 180.664 357.422 l 6
EndSplineSet
Fore
SplineSet
199 248 m 2
 199 246 l 1
 242 246 l 2
 314 246 375 226 375 156 c 0
 375 93 329 52 246 52 c 0
 216 52 199 54 169 54 c 0
 143 54 132 51 132 51 c 1
 132 54 l 1
 138 94 139 132 139 188 c 2
 139 241 l 2
 139 294 138 335 132 375 c 1
 132 378 l 1
 132 378 143 375 169 375 c 0
 195 375 205 378 205 378 c 1
 207 375 l 1
 200 333 199 304 199 248 c 2
315 148 m 0
 315 188 303 218 249 218 c 2
 199 218 l 1
 199 113 l 2
 199 87 212 79 246 79 c 0
 284 79 315 87 315 148 c 0
EndSplineSet
EndChar

StartChar: afii10095
Encoding: 1101 1101 101
Width: 434
VWidth: 999
Flags: HMW
HStem: 46 23<154 232> 189 37<174 280> 209 31<123 195> 360 23<146 231>
VStem: 289 58<141 210 226 293>
LayerCount: 3
Back
SplineSet
136.23 390.625 m 6
 105.957 390.625 76.6602 377.93 58.1055 294.434 c 5
 31.7383 298.828 l 5
 63.4766 451.172 l 5
 86.9141 446.777 l 5
 87.6465 432.129 91.9902 429.688 107.91 429.688 c 6
309.03 207.447 m 1
 204.102 204.59 l 2
 192.383 204.59 175.781 201.66 161.133 201.66 c 0
 143.555 201.66 128.906 205.566 128.906 222.168 c 0
 128.906 241.211 142.09 245.117 158.691 245.117 c 0
 172.363 245.117 187.988 242.676 200.684 242.188 c 2
 307.162 239.663 l 1
 298.34 375 228.516 410.645 182.129 410.645 c 0
 101.562 410.645 79.5898 354.004 65.4297 287.598 c 1
 39.5508 291.992 l 1
 45.5518 336.016 48.9209 387.496 51.2695 441.865 c 1
 63.9648 441.895 l 1
 73.4863 441.895 77.3926 430.664 84.9609 430.664 c 1
 115.723 430.664 132.324 441.895 192.383 441.895 c 0
 315.43 441.895 385.742 330.566 385.742 220.215 c 0
 385.742 62.9883 271.973 -12.207 183.105 -12.207 c 0
 92.2852 -12.207 36.6211 24.4141 36.6211 84.4727 c 0
 36.6211 98.1445 48.8281 113.281 66.8945 113.281 c 0
 77.6367 113.281 103.027 109.375 107.91 76.1719 c 0
 112.863 42.4912 131.836 18.5547 182.617 18.5547 c 0
 234.276 18.5547 305.664 58.5938 309.03 207.447 c 1
EndSplineSet
Fore
SplineSet
288 231 m 1
 283 285 258 360 190 360 c 0
 130 360 114 317 104 271 c 1
 84 274 l 1
 88 307 90 333 92 374 c 1
 144 374 144 383 198 383 c 0
 290 383 347 305 347 222 c 0
 347 105 266 46 187 46 c 0
 126 46 81 79 81 118 c 0
 81 129 90 140 104 140 c 0
 112 140 128 137 132 112 c 0
 137 87 160 69 192 69 c 0
 263 69 289 151 289 210 c 1
 272 201 248 189 224 189 c 0
 192 189 170 209 144 209 c 0
 134 209 127 205 121 205 c 0
 116 205 116 212 116 215 c 0
 116 226 150 240 182 240 c 0
 216 240 228 225 257 225 c 0
 269 225 279 227 288 231 c 1
EndSplineSet
EndChar

StartChar: afii10096
Encoding: 1102 1102 102
Width: 686
VWidth: 999
Flags: HW
HStem: 46 30<406 488> 51 16<155 193 193 230> 202 29<221 294> 354 28<392 472> 363 15<155 193 193 230>
VStem: 163 60<56 373> 294 64<136 202 231 296> 516 64<134 300>
LayerCount: 3
Fore
SplineSet
103 241 m 2
 103 294 102 335 96 375 c 1
 96 378 l 1
 96 378 107 375 133 375 c 0
 158 375 169 378 169 378 c 1
 170 375 l 1
 164 333 164 297 163 241 c 1
 163 188 l 2
 163 132 164 96 170 54 c 1
 169 51 l 1
 169 51 158 54 133 54 c 0
 107 54 96 51 96 51 c 1
 96 54 l 1
 102 94 103 132 103 188 c 2
 103 241 l 2
221 231 m 1
 295 231 l 1
 302 321 351 383 437 383 c 0
 545 383 580 294 580 216 c 0
 580 141 541 46 437 46 c 0
 341 46 296 126 294 202 c 1
 221 202 l 1
 221 231 l 1
430 354 m 0
 374 354 358 288 358 223 c 0
 358 165 379 76 449 76 c 0
 480 76 516 93 516 192 c 0
 516 302 488 354 430 354 c 0
EndSplineSet
EndChar

StartChar: afii10097
Encoding: 1103 1103 103
Width: 429
VWidth: 999
Flags: HW
HStem: 51 22<53 64> 200 26<201 247> 207 20<163 169> 355 22<159 259>
VStem: 74 64<244 332> 247 60<56 200 226 353>
LayerCount: 3
Back
SplineSet
287.598 243.652 m 1xe8
 287.598 210.449 l 1
 204.102 210.449 186.035 172.363 164.062 112.793 c 4
 148.926 72.2656 122.559 0.976562 77.6367 0 c 6
 12.6953 -0.976562 l 5
 10.2539 0.976562 l 5
 10.2539 19.5312 l 6
 10.2539 26.8555 16.1133 27.832 20.5078 27.832 c 6
 27.832 27.832 l 6
 61.0352 27.832 97.168 119.141 111.328 156.738 c 4
 129.395 205.566 164.551 226.562 212.891 226.562 c 1
 173.34 234.375 153.32 274.902 140.137 318.359 c 0
 130.371 348.633 116.699 370.605 106.934 370.605 c 0
 99.1211 370.605 93.75 368.164 89.3555 363.77 c 0
 83.9844 357.91 71.7773 354.492 62.9883 354.492 c 0
 45.8984 354.492 28.3203 373.047 28.3203 393.066 c 0
 28.3203 417.48 38.0859 437.5 75.1953 437.5 c 0
 118.164 437.5 146.973 383.789 163.086 337.402 c 0
 182.129 281.738 208.496 243.652 269.531 243.652 c 2
 287.598 243.652 l 1xe8
EndSplineSet
Fore
SplineSet
307 242 m 2
 307 187 l 2
 307 135 307 94 314 54 c 1
 313 51 l 1
 313 51 303 54 277 54 c 0
 251 54 241 51 241 51 c 1
 239 54 l 1
 246 96 247 125 247 180 c 2
 247 200 l 1
 228 200 l 2
 198 200 180 162 165 117 c 0
 154 86 134 54 108 54 c 1
 53 51 l 1
 51 54 l 1
 51 68 l 2
 51 73 55 74 58 74 c 2
 64 75 l 1
 85 77 110 127 121 156 c 0
 133 186 148 202 169 207 c 1
 128 207 74 233 74 286 c 0
 74 308 88 378 208 378 c 0
 236 378 250 375 277 375 c 0
 303 375 313 378 313 378 c 1
 314 375 l 1
 307 335 307 297 307 242 c 2
247 226 m 1
 247 328 l 2
 247 352 235 355 206 355 c 0
 151 355 138 330 138 294 c 0
 138 257 155 226 198 226 c 2
 247 226 l 1
EndSplineSet
EndChar

StartChar: uni04AE
Encoding: 1198 1198 104
Width: 1100
VWidth: 999
Flags: HW
HStem: 78 16<480 483 580 584> 552 15<316 325 420 447 654 678 707 747>
VStem: 482 98<112 327>
LayerCount: 3
Fore
SplineSet
580.2 254.3 m 1
 580.8 180 582.7 73.9 586 38 c 1
 574 41 542 41 531 41 c 0
 520 41 489 41 477 38 c 1
 481.2 79.8 481.9 174 482 247 c 1
 454 296.1 340 482 310 527 c 1
 322 524 356 524 368 524 c 0
 381 524 414 524 427 527 c 1
 464.8 452.3 506 385.3 550.6 309.5 c 1
 592 374.6 638.1 453.3 674 527 c 1
 682 524 711 524 721 524 c 0
 730 524 742 524 752 527 c 1
 662.2 388.3 610.2 314.2 580.2 254.3 c 1
1000 -84 m 2
 1000 -174 971 -212 881 -212 c 2
 249 -212 l 2
 159 -212 120 -174 120 -84 c 2
 120 625 l 2
 120 708 168 754 249 754 c 2
 851 754 l 2
 941 754 1000 715 1000 625 c 2
 1000 -84 l 2
249 718 m 2
 189 718 156 685 156 625 c 2
 156 -53 l 2
 156 -113 189 -136 249 -136 c 2
 821 -136 l 2
 881 -136 904 -113 904 -53 c 2
 904 625 l 2
 904 685 881 718 821 718 c 2
 249 718 l 2
EndSplineSet
Colour: ff00ff
EndChar

StartChar: uni04C0
Encoding: 1216 1216 105
Width: 1100
VWidth: 999
Flags: HW
HStem: 78 16<494 550 550 606> 552 15<494 550 550 606>
VStem: 502 96<83 562>
LayerCount: 3
Fore
SplineSet
1000 -84 m 2
 1000 -174 971 -212 881 -212 c 2
 249 -212 l 2
 159 -212 120 -174 120 -84 c 2
 120 625 l 2
 120 708 168 754 249 754 c 2
 851 754 l 2
 941 754 1000 715 1000 625 c 2
 1000 -84 l 2
249 718 m 2
 189 718 156 685 156 625 c 2
 156 -53 l 2
 156 -113 189 -136 249 -136 c 2
 821 -136 l 2
 881 -136 904 -113 904 -53 c 2
 904 625 l 2
 904 685 881 718 821 718 c 2
 249 718 l 2
502 374 m 2
 502 431 500 482 494 524 c 1
 496 527 l 1
 496 527 524 524 550 524 c 0
 576 524 605 527 605 527 c 1
 606 524 l 1
 600 485 598 431 598 374 c 2
 598 191 l 2
 598 134 600 83 606 41 c 1
 604 38 l 1
 604 38 576 41 550 41 c 0
 524 41 495 38 495 38 c 1
 494 41 l 1
 500 81 502 134 502 191 c 2
 502 374 l 2
EndSplineSet
Colour: ff00ff
EndChar

StartChar: uni04D0
Encoding: 1232 1232 106
Width: 1100
VWidth: 999
Flags: HW
HStem: 107 16<292 326 359 377 649 660 748 761> 275 40<432 608> 588 15<473 596> 632 23<489 557>
VStem: 429 52<662 711> 563 52<661 711>
LayerCount: 3
Fore
SplineSet
433.2 205.1 m 1
 407.7 142.2 385.7 83.3 374 39 c 1
 365 41 348 41 340 41 c 0
 332 41 307 41 298 39 c 1
 374 204 447 368 519 534 c 1
 572 534 l 1
 641 370 740 114 777 39 c 1
 764 41 729 41 716 41 c 0
 704 41 676 41 663 39 c 1
 658.7 54.9 642.5 111.1 607.2 205.6 c 1
 582.6 206.3 556.6 207 533 207 c 0
 506 207 462.3 206.1 433.2 205.1 c 1
522.5 414.7 m 1
 450.9 248 l 1
 474.7 247.7 507.2 246 529 246 c 0
 546.3 246 570 246.5 591.5 247.1 c 1
 572.9 295.1 550.1 351 522.5 414.7 c 1
1000 -84 m 2
 1000 -174 971 -212 881 -212 c 2
 249 -212 l 2
 159 -212 120 -174 120 -84 c 2
 120 625 l 2
 120 708 168 754 249 754 c 2
 299.1 754 l 1
 297.7 758.3 297 763 297 768 c 0
 297 785 306 792 326 792 c 0
 342 792 350 780 350 768 c 0
 350 767 349 763 349 762 c 0
 349 759.2 349.6 756.5 350.7 754 c 1
 430.5 754 l 1
 431.5 756.5 432 759.1 432 762 c 2
 431 768 l 1
 431 780 438 792 455 792 c 0
 475 792 484 784 484 769 c 0
 484 763.6 483.1 758.6 481.4 754 c 1
 851 754 l 2
 941 754 1000 715 1000 625 c 2
 1000 -84 l 2
249 718 m 2
 189 718 156 685 156 625 c 2
 156 -53 l 2
 156 -113 189 -136 249 -136 c 2
 821 -136 l 2
 881 -136 904 -113 904 -53 c 2
 904 625 l 2
 904 685 881 718 821 718 c 2
 437.3 718 l 1
 422.9 713.3 406.4 711 390 711 c 0
 372.5 711 355.7 713.3 341.3 718 c 1
 249 718 l 2
EndSplineSet
LCarets2: 1 84 
Colour: ff00ff
EndChar

StartChar: uni04D1
Encoding: 1233 1233 107
Width: 1100
VWidth: 999
Flags: HW
HStem: 72 45<443 534 619 691> 369 40<472 559> 447 23<472 528>
VStem: 374 89<125 199> 409 55<475 534> 536 55<475 535> 576 88<147 244 281 350>
DStem2: 506 265 516 228 0.972082 0.234641<-44.0071 62.8753>
LayerCount: 3
Fore
SplineSet
1000 -84 m 2
 1000 -174 971 -212 881 -212 c 2
 249 -212 l 2
 159 -212 120 -174 120 -84 c 2
 120 625 l 2
 120 708 168 754 249 754 c 2
 851 754 l 2
 941 754 1000 715 1000 625 c 2
 1000 -84 l 2
249 718 m 2
 189 718 156 685 156 625 c 2
 156 -53 l 2
 156 -113 189 -136 249 -136 c 2
 821 -136 l 2
 881 -136 904 -113 904 -53 c 2
 904 625 l 2
 904 685 881 718 821 718 c 2
 249 718 l 2
656 107 m 0
 656 92 665 84 674 84 c 0
 684 84 694 95 701 100 c 1
 703 98 l 1
 711 94 715 86 719 78 c 1
 695 48 664 36 635 36 c 0
 602 36 581 56 575 80 c 1
 574 80 l 1
 536 46 499 36 470 36 c 0
 417 36 374 62 374 117 c 0
 374 168 434.1 211.6 506 229 c 2
 572 245 l 2
 574 245 576 248 576 254 c 0
 576 311 557 332 517 332 c 0
 483 332 452 307 432 273 c 1
 415 274 l 1
 395 323 l 1
 398 326 l 1
 416 342 470 373 524 373 c 0
 591 373 659 348 659 251 c 0
 659 243 656 129 656 107 c 0
576 208 m 1
 516 192 l 2
 474 180.8 464 155 464 124 c 0
 464 104 476 81 499 81 c 0
 520 81 544 98 563 113 c 0
 569 118 576 123 576 133 c 2
 576 208 l 1
470 573 m 0
 470 532 426 507 378 507 c 0
 329 507 288 532 288 572 c 0
 288 586 300 597 317 597 c 0
 334 597 343 586 343 574 c 0
 343 572 343 571 342 568 c 0
 341 566 341 564 341 562 c 0
 341 546 357 530 379 530 c 0
 401 530 417 545 417 562 c 0
 417 564 417 566 416 568 c 0
 415 570 415 572 415 574 c 0
 415 586 428 597 441 597 c 0
 459 597 470 587 470 573 c 0
EndSplineSet
LCarets2: 1 68 
Colour: ff00ff
EndChar

StartChar: uni04D2
Encoding: 1234 1234 108
Width: 1100
VWidth: 999
Flags: HW
HStem: 107 16<292 326 359 377 649 660 748 761> 275 40<432 608> 588 15<473 596> 644 69<432 490 552 610>
VStem: 427 69<649 707> 547 69<649 707>
LayerCount: 3
Fore
SplineSet
433.2 205.1 m 1
 407.7 142.2 385.7 83.3 374 39 c 1
 365 41 348 41 340 41 c 0
 332 41 307 41 298 39 c 1
 374 204 447 368 519 534 c 1
 572 534 l 1
 641 370 740 114 777 39 c 1
 764 41 729 41 716 41 c 0
 704 41 676 41 663 39 c 1
 658.7 54.9 642.5 111.1 607.2 205.6 c 1
 582.6 206.3 556.6 207 533 207 c 0
 506 207 462.3 206.1 433.2 205.1 c 1
522.5 414.7 m 1
 450.9 248 l 1
 474.7 247.7 507.2 246 529 246 c 0
 546.3 246 570 246.5 591.5 247.1 c 1
 572.9 295.1 550.1 351 522.5 414.7 c 1
1000 -84 m 2
 1000 -174 971 -212 881 -212 c 2
 249 -212 l 2
 159 -212 120 -174 120 -84 c 2
 120 625 l 2
 120 708 168 754 249 754 c 2
 851 754 l 2
 941 754 1000 715 1000 625 c 2
 1000 -84 l 2
249 718 m 2
 189 718 156 685 156 625 c 2
 156 -53 l 2
 156 -113 189 -136 249 -136 c 2
 821 -136 l 2
 881 -136 904 -113 904 -53 c 2
 904 625 l 2
 904 685 881 718 821 718 c 2
 249 718 l 2
385.2 640 m 0
 385.2 665.3 406 685 430.2 685 c 0
 454.4 685 474.2 665.3 474.2 640 c 0
 474.2 615.8 454.4 596 430.2 596 c 0
 406 596 385.2 615.8 385.2 640 c 0
534.8 640 m 0
 534.8 665.3 554.6 685 578.8 685 c 0
 603 685 623.8 665.3 623.8 640 c 0
 623.8 615.8 603 596 578.8 596 c 0
 554.6 596 534.8 615.8 534.8 640 c 0
EndSplineSet
LCarets2: 1 84 
Colour: ff00ff
EndChar

StartChar: uni04D3
Encoding: 1235 1235 109
Width: 1100
VWidth: 999
Flags: HW
HStem: 75 45<443 534 619 691> 371 40<472 559> 478 69<414 472 534 592>
VStem: 374 89<127 201> 408 69<483 541> 528 69<483 541> 576 88<149 247 283 353>
DStem2: 506 268 516 231 0.972082 0.234641<-44.0071 62.8753>
LayerCount: 3
Fore
SplineSet
1000 -84 m 2
 1000 -174 971 -212 881 -212 c 2
 249 -212 l 2
 159 -212 120 -174 120 -84 c 2
 120 625 l 2
 120 708 168 754 249 754 c 2
 851 754 l 2
 941 754 1000 715 1000 625 c 2
 1000 -84 l 2
249 718 m 2
 189 718 156 685 156 625 c 2
 156 -53 l 2
 156 -113 189 -136 249 -136 c 2
 821 -136 l 2
 881 -136 904 -113 904 -53 c 2
 904 625 l 2
 904 685 881 718 821 718 c 2
 249 718 l 2
656 107 m 0
 656 92 665 84 674 84 c 0
 684 84 694 95 701 100 c 1
 703 98 l 1
 711 94 715 86 719 78 c 1
 695 48 664 36 635 36 c 0
 602 36 581 56 575 80 c 1
 574 80 l 1
 536 46 499 36 470 36 c 0
 417 36 374 62 374 117 c 0
 374 168 434.1 211.6 506 229 c 2
 572 245 l 2
 574 245 576 248 576 254 c 0
 576 311 557 332 517 332 c 0
 483 332 452 307 432 273 c 1
 415 274 l 1
 395 323 l 1
 398 326 l 1
 416 342 470 373 524 373 c 0
 591 373 659 348 659 251 c 0
 659 243 656 129 656 107 c 0
576 208 m 1
 516 192 l 2
 474 180.8 464 155 464 124 c 0
 464 104 476 81 499 81 c 0
 520 81 544 98 563 113 c 0
 569 118 576 123 576 133 c 2
 576 208 l 1
398.2 501 m 0
 398.2 526.3 419 546 443.2 546 c 0
 467.4 546 487.2 526.3 487.2 501 c 0
 487.2 476.8 467.4 457 443.2 457 c 0
 419 457 398.2 476.8 398.2 501 c 0
547.8 501 m 0
 547.8 526.3 567.6 546 591.8 546 c 0
 616 546 636.8 526.3 636.8 501 c 0
 636.8 476.8 616 457 591.8 457 c 0
 567.6 457 547.8 476.8 547.8 501 c 0
EndSplineSet
LCarets2: 1 68 
Colour: ff00ff
EndChar

StartChar: uni04D4
Encoding: 1236 1236 110
Width: 802
VWidth: 999
Flags: HW
HStem: 79 22<100 123 222 247 353 377> 81 29<482 652> 280 29<300 418> 327 26<480 587> 534 30<484 630> 544 21<318 346>
VStem: 418 62<111 280 309 327 353 529> 600 25<266 315 386 414>
DStem2: 174 144 208 132 0.46188 0.886943<-19.2605 171.716 204.587 435.837>
LayerCount: 3
Fore
SplineSet
394.4 324.1 m 1
 364 481 l 1
 362 481 l 1
 334.7 433 306.5 378.9 279.9 324.9 c 1
 302.2 324.6 329.1 324 348 324 c 0
 361.1 324 377.9 324.1 394.4 324.1 c 1
262.7 289.4 m 1
 224.4 209.4 190.9 132.4 170 78 c 1
 161 81 144 81 136 81 c 0
 128 81 119 81 110 78 c 1
 190 231 262 388 371 565 c 1
 371.2 564.7 l 1
 372 567 l 1
 372 567 385 564 411 564 c 0
 433 564 570 564 570 564 c 2
 586 564 604 565 616 567 c 1
 617 564 l 1
 616 554 616 547 616 541 c 0
 616 534 616 528 617 522 c 1
 616 519 l 1
 616 519 558 526 478 526 c 0
 410 526 408 517 419 469 c 1
 418.8 469 l 1
 428.4 422.6 438.9 375.3 449.4 330 c 1
 534 330.2 575.1 334.1 618 338 c 1
 620 336 l 1
 618 329 618 321 618 315 c 0
 618 308 618 300 620 294 c 1
 618 291 l 1
 571.8 296.3 497.8 298.5 456.7 298.9 c 1
 473 230.3 488.9 168 501.4 122.2 c 1
 576.3 125.2 660 130 660 130 c 1
 662 127 l 1
 661 121 660 110 660 102 c 0
 660 95 661 91 662 81 c 1
 660 78 l 1
 648 80 631 81 616 81 c 2
 513 81 l 1
 512 81 l 1
 472 81 l 2
 459 81 447 81 434 78 c 1
 434 105.3 423.7 168.7 400.8 290.3 c 1
 384.2 290.7 367.6 291 352 291 c 0
 328.1 291 291.1 290.2 262.7 289.4 c 1
EndSplineSet
Colour: ff00ff
EndChar

StartChar: uni04D5
Encoding: 1237 1237 111
Width: 715
VWidth: 999
Flags: HW
HStem: 46 38<201 291 429 522> 217 30<256 322 381 516> 349 34<209 298 420 500>
VStem: 129 62<94 173> 322 58<138 215> 521 63<254 328>
LayerCount: 3
Fore
SplineSet
740 -84 m 2
 740 -174 711 -212 621 -212 c 2
 -11 -212 l 2
 -101 -212 -140 -174 -140 -84 c 2
 -140 625 l 2
 -140 708 -92 754 -11 754 c 2
 591 754 l 2
 681 754 740 715 740 625 c 2
 740 -84 l 2
-11 718 m 2
 -71 718 -104 685 -104 625 c 2
 -104 -53 l 2
 -104 -113 -71 -136 -11 -136 c 2
 561 -136 l 2
 621 -136 644 -113 644 -53 c 2
 644 625 l 2
 644 685 621 718 561 718 c 2
 -11 718 l 2
154 342 m 0
 123.5 342 90.6 313.3 68.5 278.5 c 2
 66 274.5 l 1
 46.1 276.6 l 1
 31.1 334.3 l 1
 35.6 340.6 l 1
 36.4 341.2 l 1
 56.3 357.5 100 390 161.5 390 c 0
 182.4 390 237.8 387.4 268.6 342.3 c 1
 294.2 373 332.5 390 374 390 c 0
 463.9 390 498 314.9 498 285 c 0
 498 261.4 493.8 240.6 476.6 225.7 c 2
 476 225.2 l 1
 475.2 224.8 l 2
 447.1 210.2 398 216.4 294.1 210.7 c 1
 295.9 138.8 329.8 94 380 94 c 0
 414.6 94 441.9 112.1 466.6 142.4 c 2
 472.4 149.5 l 1
 495.2 117.6 l 1
 493.2 113.8 l 2
 470.9 70.3 421.9 39 370 39 c 0
 305 39 278.1 66.9 261.2 87.8 c 1
 227 57.2 188.6 39 144.2 39 c 0
 31.8 39 15 93 15 129 c 0
 15 196.8 88.4 240.7 221.9 250.8 c 1
 220.4 312.7 207.4 342 154 342 c 0
373 342 m 0
 332.3 342 303.4 310.6 295.9 254.4 c 1
 397.5 259.4 421 246 421 283 c 0
 421 305.5 402.8 342 373 342 c 0
213.4 131.4 m 0
 218.2 145.2 221.4 181.7 221.9 207.3 c 1
 146.5 199.7 95.5 176.5 95.5 133 c 0
 95.5 101.9 112.9 91 146.4 91 c 0
 173.1 91 204 105.4 213.4 131.4 c 0
EndSplineSet
Colour: ff00ff
EndChar

StartChar: uni04D6
Encoding: 1238 1238 112
Width: 1100
VWidth: 999
Flags: HW
HStem: 109 47<457 630> 346 38<453 616> 540 16<459 665> 549 44<457 625> 632 23<457 525>
VStem: 357 96<157 346 384 548> 397 52<661 711> 531 52<661 711>
LayerCount: 3
Fore
SplineSet
1000 -84 m 2
 1000 -174 971 -212 881 -212 c 2
 249 -212 l 2
 159 -212 120 -174 120 -84 c 2
 120 625 l 2
 120 708 168 754 249 754 c 2
 276.1 754 l 1
 274.7 758.3 274 763 274 768 c 0
 274 785 283 792 303 792 c 0
 319 792 327 780 327 768 c 0
 327 767 326 763 326 762 c 0
 326 759.2 326.6 756.5 327.7 754 c 1
 407.5 754 l 1
 408.5 756.5 409 759.1 409 762 c 2
 408 768 l 1
 408 780 415 792 432 792 c 0
 452 792 461 784 461 769 c 0
 461 763.6 460.1 758.6 458.4 754 c 1
 851 754 l 2
 941 754 1000 715 1000 625 c 2
 1000 -84 l 2
249 718 m 2
 189 718 156 685 156 625 c 2
 156 -53 l 2
 156 -113 189 -136 249 -136 c 2
 821 -136 l 2
 881 -136 904 -113 904 -53 c 2
 904 625 l 2
 904 685 881 718 821 718 c 2
 414.3 718 l 1
 399.9 713.3 383.4 711 367 711 c 0
 349.5 711 332.7 713.3 318.3 718 c 1
 249 718 l 2
453 191 m 2
 453 178 454 106 459 88 c 1
 560 88 671 97 671 97 c 1
 672 94 l 1
 672 88 671 75 671 68 c 0
 671 60 672 51 672 41 c 1
 671 38 l 1
 659 40 642 41 626 41 c 2
 405 41 l 2
 379 41 350 38 350 38 c 1
 350 41 l 1
 356 81 357 134 357 191 c 2
 357 374 l 2
 357 431 356 482 350 524 c 1
 351 527 l 1
 351 527 380 524 405 524 c 0
 428 524 618 524 618 524 c 2
 634 524 651 525 663 527 c 1
 665 524 l 1
 664 514 663 504 663 498 c 0
 663 491 664 481 665 475 c 1
 663 472 l 1
 663 472 560 481 459 481 c 1
 454 463 453 387 453 374 c 2
 453 316 l 1
 542 316 576 320 620 323 c 1
 623 321 l 1
 621 314 620 304 620 297 c 0
 620 290 621 279 623 272 c 1
 620 270 l 1
 569 275 489 278 453 278 c 1
 453 191 l 2
EndSplineSet
LCarets2: 1 75 
Colour: ff00ff
EndChar

StartChar: uni04D7
Encoding: 1239 1239 113
Width: 1100
VWidth: 999
Flags: HW
HStem: 72 51<506 621> 262 33<463 588> 372 37<495 574> 447 23<481 537>
VStem: 366 94<175 262 295 304> 418 55<475 534> 545 55<475 535> 588 95<271 337>
LayerCount: 3
Fore
SplineSet
1000 -84 m 2
 1000 -174 971 -212 881 -212 c 2
 249 -212 l 2
 159 -212 120 -174 120 -84 c 2
 120 625 l 2
 120 708 168 754 249 754 c 2
 851 754 l 2
 941 754 1000 715 1000 625 c 2
 1000 -84 l 2
249 718 m 2
 189 718 156 685 156 625 c 2
 156 -53 l 2
 156 -113 189 -136 249 -136 c 2
 821 -136 l 2
 881 -136 904 -113 904 -53 c 2
 904 625 l 2
 904 685 881 718 821 718 c 2
 249 718 l 2
666 129 m 1
 677 123 682 114 682 103 c 1
 653 64 597 36 543 36 c 0
 431 36 366 107 366 193 c 0
 366 307 463 373 534 373 c 0
 634 373 676 302 676 239 c 0
 676 230 671 226 663 226 c 2
 461 226 l 1
 461 120 515 87 558 87 c 0
 599 87 640 101 666 129 c 1
463 259 m 1
 570 259 l 2
 578 259 581 263 581 269 c 0
 581 323 562 336 534 336 c 0
 517 336 474 326 463 259 c 1
486 573 m 0
 486 532 442 507 394 507 c 0
 345 507 304 532 304 572 c 0
 304 586 316 597 333 597 c 0
 350 597 359 586 359 574 c 0
 359 572 359 571 358 568 c 0
 357 566 357 564 357 562 c 0
 357 546 373 530 395 530 c 0
 417 530 433 545 433 562 c 0
 433 564 433 566 432 568 c 0
 431 570 431 572 431 574 c 0
 431 586 444 597 457 597 c 0
 475 597 486 587 486 573 c 0
EndSplineSet
LCarets2: 1 61 
Colour: ff00ff
EndChar

StartChar: uni04D8
Encoding: 1240 1240 114
Width: 644
VWidth: 999
Flags: HW
HStem: 72 26<266 377> 243 33<173 465> 549 26<238 358>
VStem: 472 68<247 413>
LayerCount: 3
Fore
SplineSet
173 243 m 1
 196 145 250 97 324 97 c 0
 403 97 451 168 465 243 c 1
 173 243 l 1
154 473 m 1
 137 491 l 1
 196 546 232 574 314 574 c 0
 475 574 540 444 540 325 c 0
 540 179 463 72 319 72 c 0
 175 72 121 169 113 276 c 1
 472 276 l 1
 472 284 472 293 472 304 c 0
 472 443 403 549 302 549 c 0
 232 549 194 512 154 473 c 1
EndSplineSet
Colour: ff00ff
EndChar

StartChar: uni04DA
Encoding: 1242 1242 116
Width: 644
VWidth: 999
Flags: HW
HStem: 98 26<266 377> 269 33<173 465> 575 26<238 358> 637 68<226 284 368 426>
VStem: 221 68<642 699> 363 68<642 700> 472 68<274 440>
LayerCount: 3
Fore
SplineSet
173 243 m 1
 196 145 250 97 324 97 c 0
 403 97 451 168 465 243 c 1
 173 243 l 1
154 473 m 1
 137 491 l 1
 196 546 232 574 314 574 c 0
 475 574 540 444 540 325 c 0
 540 179 463 72 319 72 c 0
 175 72 121 169 113 276 c 1
 472 276 l 1
 472 284 472 293 472 304 c 0
 472 443 403 549 302 549 c 0
 232 549 194 512 154 473 c 1
208 682 m 0
 232 682 248 662.6 248 641 c 0
 248 619.4 232 600 208 600 c 0
 185.2 600 167 618.2 167 641 c 0
 167 663.8 185.2 682 208 682 c 0
349 683 m 0
 371.9 683 391 664.2 391 642 c 0
 391 619 372 600 349 600 c 0
 326.7 600 309 619.4 309 642 c 0
 309 663.8 326.7 683 349 683 c 0
EndSplineSet
LCarets2: 1 82 
Colour: ff00ff
EndChar

StartChar: uni04DB
Encoding: 1243 1243 117
Width: 1100
VWidth: 999
Flags: HW
HStem: 60 37<400 479> 174 33<385 510> 346 51<353 468> 464 69<382 440 502 560>
VStem: 290 95<133 199> 377 69<470 527> 497 69<470 527> 513 94<165 174 208 294>
LayerCount: 3
Back
SplineSet
-90.8203 617.676 m 5
 528.32 617.676 l 5
 528.32 526.855 l 5
 -90.8203 526.855 l 5
 -90.8203 617.676 l 5
EndSplineSet
Fore
SplineSet
388.2 501 m 0
 388.2 526.3 409 546 433.2 546 c 0
 457.4 546 477.2 526.3 477.2 501 c 0
 477.2 476.8 457.4 457 433.2 457 c 0
 409 457 388.2 476.8 388.2 501 c 0
537.8 501 m 0
 537.8 526.3 557.6 546 581.8 546 c 0
 606 546 626.8 526.3 626.8 501 c 0
 626.8 476.8 606 457 581.8 457 c 0
 557.6 457 537.8 476.8 537.8 501 c 0
EndSplineSet
LCarets2: 1 32 
Colour: ff00ff
EndChar

StartChar: uni04E0
Encoding: 1248 1248 118
Width: 608
VWidth: 999
Flags: HW
HStem: -101 28<237 344> 511 29<182 201 201 410>
VStem: 432 67<26 166>
DStem2: 263 246 351 273 0.48636 0.873758<66.6031 303.444>
LayerCount: 3
Fore
SplineSet
201 541 m 2
 467 541 l 2
 483 541 488 536 488 530 c 0
 488 523 484 511 477 500 c 2
 351 273 l 1
 452 253 499 178 499 95 c 0
 499 -9 400 -101 280 -101 c 0
 220 -101 107 -75 107 -26 c 0
 107 -8 115 12 140 12 c 0
 160 12 182 2 191 -14 c 1
 215 -51 253 -74 294 -74 c 0
 359 -74 432 17 432 88 c 0
 432 208 346 248 294 248 c 0
 282 248 274 248 263 246 c 1
 410 511 l 1
 224 511 l 1
 168 510 146 448 143 415 c 1
 124 416 l 1
 140 557 l 1
 157 554 183 541 201 541 c 2
EndSplineSet
Colour: ff00ff
EndChar

StartChar: uni04E1
Encoding: 1249 1249 119
Width: 416
VWidth: 999
Flags: HW
HStem: -150 26<166 237> 103 26<216 255> 322 26<134 275>
VStem: 84 20<253 279> 288 61<-64 72>
DStem2: 149 106 216 129 0.505072 0.863077<52.8301 249.493>
LayerCount: 3
Fore
SplineSet
149 106 m 1
 275 322 l 1
 167 322 l 2
 144 322 119 306 104 252 c 1
 84 254 l 1
 90 291 95 324 95 357 c 1
 114 357 l 1
 116 353 122 348 134 348 c 2
 286 348 l 2
 308 348 335 352 336 352 c 0
 341 352 346 351 346 348 c 0
 346 345 341 336 329 316 c 2
 216 129 l 1
 288 129 349 89 349 9 c 0
 349 -80 285 -150 193 -150 c 0
 129 -150 86 -105 86 -81 c 0
 86 -67 93 -54 110 -54 c 0
 127 -54 137 -61 143 -79 c 0
 149 -96 169 -124 199 -124 c 0
 236 -124 288 -84 288 -3 c 0
 288 73 265 103 206 103 c 0
 198 103 176 98 162 95 c 1
 149 106 l 1
EndSplineSet
Colour: ff00ff
EndChar

StartChar: uni04E6
Encoding: 1254 1254 120
Width: 1100
VWidth: 999
Flags: HW
HStem: 100 40<496 626> 561 40<479 613> 637 68<429 487 571 628>
VStem: 296 106<249 436> 424 68<642 700> 566 68<643 700> 697 106<257 450>
LayerCount: 3
Fore
SplineSet
1000 -84 m 2
 1000 -174 971 -212 881 -212 c 2
 249 -212 l 2
 159 -212 120 -174 120 -84 c 2
 120 625 l 2
 120 708 168 754 249 754 c 2
 851 754 l 2
 941 754 1000 715 1000 625 c 2
 1000 -84 l 2
249 718 m 2
 189 718 156 685 156 625 c 2
 156 -53 l 2
 156 -113 189 -136 249 -136 c 2
 821 -136 l 2
 881 -136 904 -113 904 -53 c 2
 904 625 l 2
 904 685 881 718 821 718 c 2
 249 718 l 2
793 288 m 0
 793 138 699 34 538 34 c 0
 390 34 286 132 286 274 c 0
 286 420 385 534 538 534 c 0
 697 534 793 436 793 288 c 0
528 495 m 0
 456 495 392 444 392 286 c 0
 392 142 463 73 553 73 c 0
 639 73 687 139 687 274 c 0
 687 430 634 495 528 495 c 0
397 682 m 0
 421 682 437 662.6 437 641 c 0
 437 619.4 421 600 397 600 c 0
 374.2 600 356 618.2 356 641 c 0
 356 663.8 374.2 682 397 682 c 0
538 683 m 0
 560.9 683 580 664.2 580 642 c 0
 580 619 561 600 538 600 c 0
 515.7 600 498 619.4 498 642 c 0
 498 663.8 515.7 683 538 683 c 0
EndSplineSet
LCarets2: 1 95 
Colour: ff00ff
EndChar

StartChar: uni04E7
Encoding: 1255 1255 121
Width: 1100
VWidth: 999
Flags: HW
HStem: 75 38<499 588> 374 38<487 583> 478 69<438 495 558 615>
VStem: 363 96<166 315> 432 69<484 542> 552 69<484 542> 616 96<172 320>
LayerCount: 3
Back
SplineSet
518.555 502.441 m 5
 489.746 549.316 452.148 594.727 417.48 632.324 c 5
 437.988 645.508 l 5
 477.051 616.699 509.277 591.309 543.457 555.176 c 5
 580.566 593.262 614.258 618.652 651.367 645.508 c 5
 670.41 632.324 l 5
 635.742 592.773 597.656 548.34 568.359 502.441 c 5
 518.555 502.441 l 5
-202.637 647.949 m 5
 -200.684 596.68 -154.297 556.152 -93.75 556.152 c 4
 -47.8516 556.152 11.7188 585.938 14.1602 647.949 c 5
 40.5273 634.277 l 5
 30.7617 533.691 -43.9453 499.023 -93.75 499.023 c 4
 -171.387 499.023 -222.168 556.641 -229.492 634.277 c 5
 -202.637 647.949 l 5
151.855 645.508 m 5
 180.664 598.633 217.285 555.664 252.93 515.625 c 5
 232.422 502.441 l 5
 193.359 531.25 159.668 556.152 125.977 592.285 c 5
 88.8672 554.199 56.1523 529.297 19.043 502.441 c 5
 -0.488281 515.625 l 5
 34.668 555.176 72.7539 599.609 102.051 645.508 c 5
 151.855 645.508 l 5
-90.5762 664.062 m 5
 528.076 664.062 l 5
 528.076 500.732 l 5
 -90.5762 500.732 l 5
 -90.5762 664.062 l 5
446.289 662.598 m 21
 449.707 664.062 456.055 665.039 460.938 665.039 c 4
 488.936 665.039 501.382 654.214 509.766 646.704 c 4
 512.07 644.639 514.121 642.856 516.113 641.602 c 5
 518.555 630.859 l 5
 403.809 521.973 l 6
 388.184 507.324 381.348 502.441 375 502.441 c 4
 367.188 502.441 360.352 507.974 360.352 514.487 c 4
 360.352 519.858 360.443 527.246 366.699 537.109 c 6
 446.289 662.598 l 21
-90.5762 616.211 m 5
 528.076 616.211 l 5
 528.076 525.635 l 5
 -90.5762 525.635 l 5
 -90.5762 616.211 l 5
87.8906 570.801 m 4
 87.8906 595.703 108.398 616.211 133.301 616.211 c 4
 158.203 616.211 178.711 595.703 178.711 570.801 c 4
 178.711 545.898 158.203 525.391 133.301 525.391 c 4
 108.398 525.391 87.8906 545.898 87.8906 570.801 c 4
248.535 570.801 m 4
 248.535 595.703 269.043 616.211 293.945 616.211 c 4
 318.848 616.211 339.355 595.703 339.355 570.801 c 4
 339.355 545.898 318.848 525.391 293.945 525.391 c 4
 269.043 525.391 248.535 545.898 248.535 570.801 c 4
EndSplineSet
Fore
SplineSet
409.2 502 m 0
 409.2 527.3 430 547 454.2 547 c 0
 478.4 547 498.2 527.3 498.2 502 c 0
 498.2 477.8 478.4 458 454.2 458 c 0
 430 458 409.2 477.8 409.2 502 c 0
558.8 502 m 0
 558.8 527.3 578.6 547 602.8 547 c 0
 627 547 647.8 527.3 647.8 502 c 0
 647.8 477.8 627 458 602.8 458 c 0
 578.6 458 558.8 477.8 558.8 502 c 0
1000 -84 m 2
 1000 -174 971 -212 881 -212 c 2
 249 -212 l 2
 159 -212 120 -174 120 -84 c 2
 120 625 l 2
 120 708 168 754 249 754 c 2
 851 754 l 2
 941 754 1000 715 1000 625 c 2
 1000 -84 l 2
249 718 m 2
 189 718 156 685 156 625 c 2
 156 -53 l 2
 156 -113 189 -136 249 -136 c 2
 821 -136 l 2
 881 -136 904 -113 904 -53 c 2
 904 625 l 2
 904 685 881 718 821 718 c 2
 249 718 l 2
530 335 m 0
 466 335 459 280 459 215 c 0
 459 157 466 74 544 74 c 0
 578 74 609 98 609 184 c 0
 609 288 594 335 530 335 c 0
363 197 m 0
 363 300 428 373 536 373 c 0
 662 373 705 282 705 204 c 0
 705 124 649 36 534 36 c 0
 422 36 363 115 363 197 c 0
EndSplineSet
LCarets2: 1 66 
Colour: ff00ff
EndChar

StartChar: uni04E8
Encoding: 1256 1256 122
Width: 1100
VWidth: 999
Flags: HW
HStem: 74 40<496 626> 280 43<555 666> 315 44<398 520> 535 40<479 613>
VStem: 296 106<222 410> 340 11<281 284> 697 106<230 424>
LayerCount: 3
Back
SplineSet
592.285 296.875 m 5
 107.422 296.875 l 5
 107.422 353.027 l 5
 590.82 353.027 l 5
 592.285 296.875 l 5
EndSplineSet
Fore
SplineSet
682.6 344.1 m 1
 668 449.8 616.5 495 528 495 c 0
 465.4 495 409 456.5 395.2 342.8 c 1
 420 353.2 447.3 358 466 358 c 0
 540 358 562 323 610 323 c 0
 630.4 323 659.2 330.4 682.6 344.1 c 1
685.9 311.5 m 1
 656.3 287.8 622.5 280 596 280 c 0
 527 280 509 315 453 315 c 0
 437.7 315 414.1 313.3 392.4 306.6 c 1
 392.1 300 392 293.1 392 286 c 0
 392 142 463 73 553 73 c 0
 639 73 687 139 687 274 c 0
 687 287.1 686.7 299.6 685.9 311.5 c 1
1000 -84 m 2
 1000 -174 971 -212 881 -212 c 2
 249 -212 l 2
 159 -212 120 -174 120 -84 c 2
 120 625 l 2
 120 708 168 754 249 754 c 2
 851 754 l 2
 941 754 1000 715 1000 625 c 2
 1000 -84 l 2
249 718 m 2
 189 718 156 685 156 625 c 2
 156 -53 l 2
 156 -113 189 -136 249 -136 c 2
 821 -136 l 2
 881 -136 904 -113 904 -53 c 2
 904 625 l 2
 904 685 881 718 821 718 c 2
 249 718 l 2
793 288 m 0
 793 138 699 34 538 34 c 0
 390 34 286 132 286 274 c 0
 286 420 385 534 538 534 c 0
 697 534 793 436 793 288 c 0
EndSplineSet
Colour: ff00ff
EndChar

StartChar: uni04E9
Encoding: 1257 1257 123
Width: 1100
VWidth: 999
Flags: HMW
HStem: 45 27<488 582> 188 37<489 598> 209 32<424 514> 360 25<473 564>
VStem: 369 59<147 294> 619 59<138 292>
AnchorPoint: "unten_punkt" 250 -27 basechar 0
AnchorPoint: "top_punkt" 250 466 basechar 0
AnchorPoint: "top_akzent" 243 537 basechar 0
LayerCount: 3
Fore
SplineSet
608.6 210.1 m 1
 591.4 200 565.2 188 542 188 c 0
 509.4 188 484.6 208.5 459 209 c 1
 459.5 151.5 468.7 74 544 74 c 0
 578 74 609 98 609 184 c 0
 609 193.1 608.9 201.8 608.6 210.1 c 1
607.6 231.7 m 1
 602.6 302.5 583.2 335 530 335 c 0
 472.8 335 461.1 291.1 459.3 235.4 c 1
 471.8 238.2 485 240 496 240 c 0
 530 240 546 225 574 225 c 0
 585.9 225 597.8 227.9 607.6 231.7 c 1
1000 -84 m 2
 1000 -174 971 -212 881 -212 c 2
 249 -212 l 2
 159 -212 120 -174 120 -84 c 2
 120 625 l 2
 120 708 168 754 249 754 c 2
 851 754 l 2
 941 754 1000 715 1000 625 c 2
 1000 -84 l 2
249 718 m 2
 189 718 156 685 156 625 c 2
 156 -53 l 2
 156 -113 189 -136 249 -136 c 2
 821 -136 l 2
 881 -136 904 -113 904 -53 c 2
 904 625 l 2
 904 685 881 718 821 718 c 2
 249 718 l 2
363 197 m 0
 363 300 428 373 536 373 c 0
 662 373 705 282 705 204 c 0
 705 124 649 36 534 36 c 0
 422 36 363 115 363 197 c 0
EndSplineSet
Colour: ff80cc
EndChar

StartChar: uni04EA
Encoding: 1258 1258 124
Width: 1100
VWidth: 999
Flags: HW
HStem: 100 40<496 626> 307 43<555 666> 342 44<398 520> 562 40<479 613> 639 68<426 484 569 626>
VStem: 296 106<249 437> 340 11<308 311> 422 68<644 701> 563 68<644 702> 697 106<257 450>
LayerCount: 3
Fore
SplineSet
682.6 344.1 m 1
 668 449.8 616.5 495 528 495 c 0
 465.4 495 409 456.5 395.2 342.8 c 1
 420 353.2 447.3 358 466 358 c 0
 540 358 562 323 610 323 c 0
 630.4 323 659.2 330.4 682.6 344.1 c 1
685.9 311.5 m 1
 656.3 287.8 622.5 280 596 280 c 0
 527 280 509 315 453 315 c 0
 437.7 315 414.1 313.3 392.4 306.6 c 1
 392.1 300 392 293.1 392 286 c 0
 392 142 463 73 553 73 c 0
 639 73 687 139 687 274 c 0
 687 287.1 686.7 299.6 685.9 311.5 c 1
1000 -84 m 2
 1000 -174 971 -212 881 -212 c 2
 249 -212 l 2
 159 -212 120 -174 120 -84 c 2
 120 625 l 2
 120 708 168 754 249 754 c 2
 851 754 l 2
 941 754 1000 715 1000 625 c 2
 1000 -84 l 2
249 718 m 2
 189 718 156 685 156 625 c 2
 156 -53 l 2
 156 -113 189 -136 249 -136 c 2
 821 -136 l 2
 881 -136 904 -113 904 -53 c 2
 904 625 l 2
 904 685 881 718 821 718 c 2
 249 718 l 2
793 288 m 0
 793 138 699 34 538 34 c 0
 390 34 286 132 286 274 c 0
 286 420 385 534 538 534 c 0
 697 534 793 436 793 288 c 0
395 683 m 0
 419 683 435 663.6 435 642 c 0
 435 620.4 419 601 395 601 c 0
 372.2 601 354 619.2 354 642 c 0
 354 664.8 372.2 683 395 683 c 0
536 684 m 0
 558.9 684 578 665.2 578 643 c 0
 578 620 559 601 536 601 c 0
 513.7 601 496 620.4 496 643 c 0
 496 664.8 513.7 684 536 684 c 0
EndSplineSet
LCarets2: 1 95 
Colour: ff00ff
EndChar

